<?xml version="1.0" encoding="UTF-8"?>
<svg id="Capa_2" data-name="Capa 2" xmlns="http://www.w3.org/2000/svg" xmlns:xlink="http://www.w3.org/1999/xlink" viewBox="0 0 140.03 1020.61">
  <defs>
    <style>
      .cls-1, .cls-2, .cls-3, .cls-4, .cls-5, .cls-6, .cls-7, .cls-8, .cls-9, .cls-10, .cls-11, .cls-12, .cls-13, .cls-14, .cls-15, .cls-16, .cls-17, .cls-18 {
        stroke-width: 0px;
      }

      .cls-1, .cls-3, .cls-10, .cls-12 {
        fill-rule: evenodd;
      }

      .cls-1, .cls-13 {
        fill: #ea044e;
      }

      .cls-19 {
        stroke: #47839f;
      }

      .cls-19, .cls-9, .cls-20 {
        fill: none;
      }

      .cls-19, .cls-20 {
        stroke-linecap: round;
        stroke-linejoin: round;
        stroke-width: .47px;
      }

      .cls-2 {
        fill: #dcf8ff;
      }

      .cls-3 {
        fill: #72e6ff;
      }

      .cls-4 {
        fill: #47839f;
      }

      .cls-5 {
        fill: #5fbbd5;
      }

      .cls-6 {
        opacity: .28;
      }

      .cls-6, .cls-10, .cls-14 {
        fill: #40004d;
      }

      .cls-21 {
        clip-path: url(#clippath-2);
      }

      .cls-22 {
        stroke-width: .94px;
      }

      .cls-22, .cls-11, .cls-23, .cls-24 {
        fill: #fff;
      }

      .cls-22, .cls-23, .cls-24 {
        stroke-miterlimit: 10;
      }

      .cls-22, .cls-24 {
        stroke: #000;
      }

      .cls-7, .cls-12 {
        fill: #100423;
      }

      .cls-8 {
        fill: #563e5b;
      }

      .cls-25 {
        clip-path: url(#clippath-1);
      }

      .cls-26 {
        clip-path: url(#clippath-4);
      }

      .cls-27 {
        opacity: .6;
      }

      .cls-27, .cls-28, .cls-29 {
        isolation: isolate;
      }

      .cls-15 {
        fill: #44174d;
      }

      .cls-30 {
        clip-path: url(#clippath);
      }

      .cls-23 {
        stroke: #030725;
        stroke-width: 1.23px;
      }

      .cls-28 {
        opacity: .16;
      }

      .cls-16 {
        fill: #f1fcff;
      }

      .cls-31 {
        clip-path: url(#clippath-3);
      }

      .cls-20 {
        stroke: #100423;
      }

      .cls-17 {
        fill: #f9b495;
      }

      .cls-32 {
        clip-path: url(#clippath-5);
      }

      .cls-18 {
        fill: #f8ea46;
      }

      .cls-24 {
        stroke-width: 1.47px;
      }

      .cls-29 {
        opacity: .28;
      }
    </style>
    <clipPath id="clippath">
      <rect class="cls-9" x="47.19" y="20.48" width="54.85" height="35.24" transform="translate(-2.94 69.78) rotate(-49.27)"/>
    </clipPath>
    <clipPath id="clippath-1">
      <rect class="cls-9" x="80.7" y="682.87" width="7.38" height="12.55" transform="translate(-124.82 27.12) rotate(-10.56)"/>
    </clipPath>
    <clipPath id="clippath-2">
      <rect class="cls-9" x="109.96" y="676.73" width="1.78" height="2.76" transform="translate(-122.35 31.78) rotate(-10.56)"/>
    </clipPath>
    <clipPath id="clippath-3">
      <rect class="cls-9" x="85.1" y="644.68" width="12.65" height="11.69" transform="translate(-560.85 728.49) rotate(-88.82)"/>
    </clipPath>
    <clipPath id="clippath-4">
      <rect class="cls-9" x="92.46" y="651.16" width="10.84" height="12.23" transform="translate(-561.28 741.56) rotate(-88.82)"/>
    </clipPath>
    <clipPath id="clippath-5">
      <rect class="cls-9" x="80.55" y="660.19" width="3.3" height="11.34" transform="translate(-585.21 734.29) rotate(-88.82)"/>
    </clipPath>
  </defs>
  <g id="Layer_1" data-name="Layer 1">
    <path class="cls-23" d="m139.19,450.5H.66c-.95-18.51,13.45-36.65,31.62-40.31,18.17-3.66,38.17,7.61,44.45,25.05,4.55-4.78,10.96-6.96,17.49-5.99,6.53.97,12.47,5.26,15.44,11.15,4.98-3.37,11.45-4.32,17.14-2.36,5.69,1.96,10.55,6.73,12.4,12.46Z"/>
    <g>
      <path class="cls-24" d="m72.92,291.37c-.74,0-1.48-.08-2.21-.25l-3.33-.75c-2.6-.59-4.78-2.18-6.18-4.31-4.33-1.88-6.87-6.64-5.8-11.42l1.72-7.64c-.23-7.81-1.82-12.63-3.22-16.9-1.51-4.61-3.08-9.37-1.73-15.33l.37-1.66c2.93-13,14.73-22.44,28.06-22.44,2.12,0,4.25.24,6.33.71,7.49,1.69,13.87,6.2,17.98,12.7,4.11,6.5,5.44,14.2,3.76,21.69l-.37,1.66c-1.34,5.96-4.8,9.59-8.14,13.1-3.1,3.25-6.59,6.93-10.16,13.89l-1.72,7.64c-1.04,4.61-5.07,7.83-9.79,7.83,0,0-.21,0-.31,0-1.58.97-3.4,1.49-5.25,1.49Z"/>
      <g>
        <path class="cls-18" d="m60.53,234.79c2.52-11.16,13.5-18.22,24.49-15.75,10.99,2.48,17.88,13.57,15.37,24.73l-.38,1.69c-.85,3.77-3.04,6.11-6.08,9.35-3.37,3.59-7.55,8.05-11.74,16.39l-16.97-3.82c-.21-9.33-2.07-15.15-3.58-19.84-1.36-4.23-2.33-7.28-1.48-11.05l.38-1.69Z"/>
        <rect class="cls-5" x="72.32" y="263.14" width="2.07" height="17.02" transform="translate(-207.78 283.42) rotate(-77.29)"/>
        <rect class="cls-5" x="71.48" y="266.87" width="2.07" height="17.02" transform="translate(-212.08 285.51) rotate(-77.29)"/>
        <path id="Lamp_1" data-name="Lamp 1" class="cls-7" d="m63.78,267.67l-1.9,8.43c-.41,1.83.74,3.66,2.57,4.07l1.74.39c0,1.56,1.07,2.98,2.65,3.34l3.32.75h0c.89.2,1.8.04,2.57-.44.56-.35.99-.85,1.27-1.43l1.74.39c1.83.41,3.66-.74,4.07-2.57l1.9-8.44c4.13-8.3,8.29-12.68,11.64-16.2,3.09-3.25,5.53-5.82,6.47-9.99l.37-1.66c2.68-11.9-4.82-23.77-16.72-26.45-11.9-2.68-23.77,4.82-26.45,16.72l-.37,1.66c-.94,4.17.16,7.54,1.56,11.8,1.52,4.62,3.4,10.36,3.57,19.63Zm10.04,15.1c-.38.24-.84.32-1.28.22h0s-3.32-.75-3.32-.75c-.66-.15-1.14-.66-1.29-1.28l6.32,1.43c-.12.15-.26.28-.43.39Zm6.32-2.55c-.21.92-1.12,1.49-2.03,1.29l-13.28-3c-.92-.21-1.49-1.12-1.29-2.03l.08-.35,16.61,3.75-.08.35Zm.45-2.01l-16.61-3.75.45-2.02,16.61,3.75-.45,2.02Zm.83-3.68l-16.61-3.75.45-2.01,16.61,3.74-.45,2.02Zm-20.74-39.58c2.48-10.99,13.43-17.91,24.42-15.44,10.99,2.48,17.91,13.43,15.44,24.42l-.37,1.66c-.84,3.71-3.02,6.01-6.05,9.19-3.36,3.53-7.52,7.91-11.68,16.11l-16.97-3.82c-.24-9.2-2.12-14.93-3.64-19.57-1.37-4.17-2.36-7.18-1.52-10.9l.37-1.66Z"/>
        <path class="cls-11" d="m88.5,225.14c-1.91-.77-3.86-1.08-5.74-.99-2.83.14-3.45,3.95-.8,4.98.05.02.11.04.16.06,5.21,2.11,8.59,7.45,8.26,13.06,0,.06,0,.12-.01.18-.2,2.83,3.51,3.91,4.85,1.41.89-1.66,1.45-3.55,1.57-5.62.34-5.62-3.05-10.98-8.27-13.09"/>
      </g>
    </g>
    <g>
      <g>
        <path class="cls-1" d="m85.06,8.65l-6.12-1.73c-1.13-.32-2.29.17-2.95,1.14-1.4,2.05-4,3.08-6.52,2.37-2.52-.71-4.2-2.94-4.32-5.42-.06-1.17-.79-2.19-1.92-2.51l-6.12-1.73c-3.51-.99-7.15,1.05-8.14,4.56l-12.52,44.47c-.99,3.51,1.05,7.15,4.56,8.14l6.12,1.73c1.13.32,2.29-.17,2.95-1.14,1.4-2.05,4-3.08,6.52-2.37,2.52.71,4.2,2.94,4.32,5.42.06,1.17.79,2.19,1.92,2.51l6.12,1.73c3.51.99,7.15-1.05,8.14-4.56l12.52-44.47c.99-3.51-1.06-7.15-4.56-8.14"/>
        <path class="cls-11" d="m73.82,43.5c-5.64,5.96-15.04,6.22-20.99.58-5.96-5.64-6.22-15.04-.58-20.99,5.64-5.96,15.04-6.22,20.99-.58,5.96,5.64,6.22,15.04.58,20.99"/>
        <path class="cls-13" d="m68.31,25.82l-.19-.03-.86-.16-9.95-1.71c-.16-.03-.31.08-.33.24l-.27,1.58c-.3,1.73.76,2.89,2.98,3.27l7.85,1.36c.83.14,1.39.93,1.24,1.76s-.93,1.39-1.76,1.24l-8.81-1.51c-.13-.02-.26.05-.31.16l-3.5,7.87c-.04.08-.03.17,0,.25.04.08.12.13.2.15l2.79.48c1.05.18,1.7-.6,1.89-1.04l1.34-2.85,5.61.96c3.32.57,6.48-1.66,7.05-4.98s-1.66-6.48-4.98-7.05"/>
        <path class="cls-7" d="m61.18,43.15s-.07-.07-.11-.1c-1.27-1.2-1.32-3.2-.12-4.46,1.2-1.26,3.21-1.34,4.46-.12.61.58.96,1.36.99,2.21.02.84-.28,1.64-.86,2.26-1.16,1.23-3.09,1.32-4.35.22Zm3.44-4c-.85-.73-2.14-.68-2.93.15-.8.85-.77,2.2.08,3,.86.8,2.2.77,3-.08h0c.39-.41.6-.95.58-1.52-.02-.57-.25-1.09-.66-1.48-.02-.02-.05-.05-.07-.07Z"/>
        <g class="cls-29">
          <g class="cls-30">
            <path class="cls-10" d="m77.1,61.26l12.52-44.47c.17-.59.22-1.17.22-1.76l-37.23,22.16c-3.3,1.96-4.38,6.23-2.42,9.52l3.43,5.75c.63,1.06,1.87,1.53,3.07,1.27,2.55-.55,5.28.55,6.69,2.92,1.41,2.37,1.07,5.29-.63,7.27-.03.03-.04.07-.07.11.05.02.09.05.14.07l6.12,1.73c3.51.99,7.15-1.05,8.14-4.56"/>
          </g>
        </g>
        <path class="cls-7" d="m38.15,56.99c-.62-.54-1.15-1.18-1.57-1.92-.93-1.66-1.16-3.58-.64-5.41L48.47,5.19c.51-1.83,1.71-3.35,3.37-4.28,1.66-.93,3.58-1.16,5.41-.64l6.12,1.73c1.3.37,2.22,1.57,2.3,2.98.12,2.33,1.7,4.32,3.95,4.95,2.24.63,4.63-.23,5.95-2.16.8-1.17,2.21-1.71,3.51-1.35l6.12,1.73c1.83.52,3.35,1.71,4.28,3.37.93,1.66,1.16,3.58.64,5.41l-12.52,44.47c-.51,1.83-1.71,3.35-3.37,4.28-1.66.93-3.58,1.16-5.41.64l-6.12-1.73c-1.3-.37-2.22-1.56-2.3-2.98-.12-2.33-1.7-4.32-3.95-4.95-2.25-.63-4.64.24-5.95,2.16-.8,1.17-2.21,1.71-3.51,1.34l-6.12-1.73c-1.02-.29-1.94-.78-2.71-1.45ZM63.87,3.41c-.22-.19-.49-.34-.78-.42l-6.12-1.73c-1.56-.44-3.21-.25-4.62.55-1.42.79-2.44,2.09-2.88,3.66l-12.52,44.47c-.44,1.56-.25,3.21.55,4.62.79,1.42,2.09,2.44,3.66,2.88l6.12,1.73c.89.25,1.82-.11,2.38-.93,1.56-2.29,4.41-3.33,7.09-2.57,2.67.75,4.56,3.12,4.7,5.89.05.99.65,1.79,1.54,2.04l6.12,1.73c1.56.44,3.21.25,4.62-.55,1.42-.79,2.44-2.09,2.88-3.66l12.52-44.47c.44-1.56.25-3.21-.55-4.62-.8-1.42-2.09-2.44-3.66-2.88h0s-6.12-1.73-6.12-1.73c-.89-.25-1.82.12-2.38.93-1.56,2.29-4.41,3.33-7.08,2.57-2.67-.75-4.56-3.12-4.7-5.89-.03-.66-.31-1.23-.76-1.62Zm21.19,5.23h0s0,0,0,0Z"/>
        <path class="cls-3" d="m126.88,40.18l-3.77-5.52c-.69-1.02-1.96-1.41-3.14-1.08-2.5.7-5.29-.24-6.84-2.51-1.55-2.27-1.4-5.2.16-7.27.74-.98.84-2.29.14-3.31l-3.77-5.52c-2.16-3.16-6.47-3.99-9.63-1.84l-40,27.18c-3.16,2.14-3.96,6.45-1.8,9.61l3.77,5.52c.69,1.02,1.96,1.41,3.14,1.08,2.51-.7,5.29.24,6.84,2.51,1.55,2.27,1.4,5.2-.16,7.27-.74.98-.84,2.29-.14,3.31l3.77,5.52c2.16,3.16,6.47,3.99,9.63,1.84l40-27.18c3.16-2.14,3.96-6.45,1.8-9.61"/>
        <path class="cls-7" d="m76.32,76.87c-.48-.42-.92-.9-1.3-1.45l-3.77-5.52c-.8-1.16-.73-2.74.16-3.91,1.48-1.95,1.54-4.63.15-6.66-1.39-2.04-3.91-2.96-6.27-2.3-1.42.4-2.91-.12-3.7-1.28l-3.77-5.52c-1.13-1.65-1.54-3.64-1.17-5.59.37-1.95,1.47-3.63,3.11-4.74l40-27.18c3.39-2.3,8.03-1.41,10.35,1.98l3.77,5.52c.8,1.16.73,2.74-.16,3.91-1.48,1.95-1.54,4.63-.15,6.66,1.39,2.04,3.91,2.96,6.27,2.3,1.42-.4,2.91.12,3.7,1.28l3.77,5.52h0c1.13,1.65,1.54,3.63,1.17,5.59-.37,1.95-1.47,3.63-3.11,4.74l-40,27.18c-2.84,1.93-6.56,1.62-9.05-.53Zm-5.08-19.45c.44.38.84.82,1.18,1.32,1.64,2.4,1.57,5.57-.18,7.87-.63.83-.68,1.89-.13,2.7l3.77,5.52c1.99,2.93,5.99,3.69,8.91,1.71l40-27.18c1.41-.96,2.36-2.4,2.67-4.08.32-1.68-.04-3.39-1.01-4.81l-3.77-5.52c-.55-.81-1.56-1.15-2.57-.87-2.79.78-5.77-.31-7.41-2.72-1.64-2.4-1.57-5.57.18-7.87.63-.83.68-1.89.13-2.7l-3.77-5.52c-2-2.92-5.99-3.69-8.91-1.71l-40,27.18c-1.41.96-2.36,2.4-2.67,4.08-.32,1.68.04,3.39,1.01,4.81l3.77,5.52c.56.81,1.56,1.15,2.57.87,2.21-.62,4.54-.06,6.23,1.39Z"/>
        <path class="cls-11" d="m101.36,57.94c-7.1,4.83-16.8,2.97-21.66-4.15-4.86-7.12-3.05-16.8,4.05-21.63,7.1-4.83,16.8-2.97,21.66,4.15,4.86,7.12,3.05,16.8-4.05,21.63"/>
      </g>
      <path class="cls-13" d="m101.11,44.8l-.11-.16-.47-.74-5.51-8.46c-.09-.13-.27-.17-.4-.08l-1.34.87c-1.47.96-1.6,2.52-.38,4.41l4.34,6.68c.46.71.26,1.65-.45,2.11s-1.65.26-2.11-.44l-4.88-7.49c-.07-.11-.21-.16-.33-.11l-8.15,2.79c-.08.03-.15.09-.18.18-.03.08-.02.17.03.25l1.55,2.37c.58.89,1.6.84,2.05.68l3-.96,3.11,4.77c1.84,2.82,5.63,3.62,8.45,1.78,2.82-1.84,3.62-5.63,1.78-8.45"/>
    </g>
    <g>
      <g>
        <path class="cls-12" d="m76.5,960.8c.2-.64.77-.86,1.32-.69.46.14.89.68.69,1.32l-1.11,3.57,27.07,8.43c.46.14.77.74.63,1.2l-2.22,7.13,16.92,5.27c.55.17.68.71.54,1.17-.11.37-.14.46-.38.58l-11.16,8.77,4.27,13.37c.22.57.02,1.21-.55,1.43-.18-.06-.39-.02-.58-.08l-17.83-5.55c-.55-.17-.86-.77-.72-1.23l2.28-7.32-26.07-8.11-9.31,29.91c-.2.64-.83.74-1.29.6-.55-.17-.92-.59-.72-1.23l9.59-30.82,7.23-23.23,1.4-4.48Z"/>
        <polygon class="cls-1" points="76.8 966.91 76.8 966.91 70.14 988.31 96.2 996.43 100.67 982.07 102.86 975.03 76.8 966.91"/>
        <path class="cls-1" d="m102.28,983.67h0l-4.41,14.18-2.28,7.32,15,4.67-3.85-12.43c-.1-.33.02-.7.28-.92l10.44-8.08-15.18-4.73Z"/>
        <rect class="cls-6" x="98.92" y="983.67" width="3.33" height="22.08" transform="translate(300.19 15.06) rotate(17.29)"/>
      </g>
      <path class="cls-11" d="m90.46,976.13l-.11-.02-.52-.12-5.96-1.26c-.09-.02-.19.04-.21.13l-.2.94c-.22,1.04.39,1.76,1.72,2.04l4.7,1.01c.5.11.81.59.71,1.09s-.59.81-1.09.71l-5.27-1.12c-.08-.02-.15.02-.19.09l-2.29,4.66s-.02.1,0,.15c.02.05.07.08.12.09l1.67.35c.63.13,1.04-.32,1.17-.58l.87-1.69,3.36.71c1.99.42,3.94-.85,4.37-2.84.42-1.99-.85-3.94-2.84-4.37"/>
    </g>
    <g>
      <path class="cls-22" d="m120.17,706.2c-7.03,1.31-13.89-1.37-18.25-6.44-.27.11-.54.2-.81.27-1.46,1.74-3.51,2.99-5.89,3.44-.9.17-1.79.21-2.66.14-2.64,5.22-7.6,9.16-13.73,10.3-10.49,1.96-20.62-4.99-22.57-15.48-.76-4.09-.17-8.13,1.46-11.64l-2.65.49c-4.81.9-9.46-2.29-10.35-7.1l-2.56-13.71c-.9-4.81,2.29-9.46,7.1-10.35l15.68-2.92c2.08-.39,4.13-.01,5.86.93.42-1.25.92-2.55,1.48-3.84,1.78-4.07,3.82-8.09,6.66-10.74-.14-.92-.18-1.67-.18-2.02-.11-5.6,3.46-10.05,8.88-11.06.58-.11,1.18-.17,1.78-.2,3.16-.11,6.2.99,8.35,3.03,1.97,1.87,3.08,4.43,3.12,7.19v.93s2.16.04,2.16.04l-.07,3.53,2.66,3.98-.58.06,4.7.1-.21,10.17c.87.47,1.65,1.09,2.29,1.85.78.65,1.42,1.46,1.87,2.4.82,1.71.92,3.64.28,5.42-.29.82-.72,1.56-1.27,2.21l.55.94c10.42-1.84,20.44,5.09,22.38,15.52,1.96,10.49-4.99,20.62-15.48,22.57Z"/>
      <g>
        <path class="cls-2" d="m100.86,692.65l.17.99-6.91,1.17c-.27.05-.53-.14-.58-.41-.05-.27.14-.53.41-.58l6.91-1.17Z"/>
        <path class="cls-20" d="m100.86,692.65l.17.99-6.91,1.17c-.27.05-.53-.14-.58-.41-.05-.27.14-.53.41-.58l6.91-1.17Z"/>
        <path class="cls-8" d="m99.84,693.7l2.34-1.88c.22-.17.53-.14.7.08.17.22.14.53-.08.7l-2.34,1.88c-.22.17-.53.14-.7-.08-.17-.22-.14-.53.08-.7"/>
        <path class="cls-20" d="m99.84,693.7l2.34-1.88c.22-.17.53-.14.7.08.17.22.14.53-.08.7l-2.34,1.88c-.22.17-.53.14-.7-.08-.17-.22-.14-.53.08-.7Z"/>
        <g>
          <path class="cls-4" d="m94.45,668.52c1.54.31,3.07,1.62,2.39,4.23-.68,2.61-2.76,9-3.56,14.12-1.18.54-3.5.68-4.5-.61.35-4.81.52-12.91,1.54-15.04.88-1.84,2.1-3.1,4.13-2.7"/>
          <path class="cls-20" d="m97.13,672.54c-.08.38-.15.54-.27.99-.69,2.61-2.88,8.61-3.58,13.35-1.08.59-3.6.63-4.5-.61.38-4.39.47-12.91,1.52-15.03.05-.1.1-.19.15-.29"/>
          <path class="cls-8" d="m73.72,682.74c-7.07,1.32-11.73,8.11-10.41,15.18s8.11,11.73,15.18,10.41c7.07-1.32,11.73-8.11,10.41-15.18s-8.11-11.73-15.18-10.41m4.31,23.13c-5.71,1.06-11.2-2.7-12.26-8.41-1.06-5.71,2.7-11.2,8.41-12.26,5.71-1.06,11.2,2.7,12.26,8.41,1.06,5.71-2.7,11.2-8.41,12.26"/>
          <path class="cls-5" d="m74.04,684.47c-6.11,1.14-10.15,7.02-9.01,13.14,1.14,6.11,7.02,10.15,13.14,9.01,6.11-1.14,10.15-7.02,9.01-13.14s-7.02-10.15-13.14-9.01m3.99,21.41c-5.71,1.06-11.2-2.7-12.26-8.41-1.06-5.71,2.7-11.2,8.41-12.26,5.71-1.06,11.2,2.7,12.26,8.41,1.06,5.71-2.7,11.2-8.41,12.26"/>
          <g class="cls-27">
            <g class="cls-25">
              <path class="cls-15" d="m88.98,693.65l-2.47.46c.05.34.08.67.09,1l2.49-.46c-.02-.33-.06-.66-.11-1"/>
              <path class="cls-15" d="m80.01,685.79c.31.13.62.27.91.42l.84-2.39c-.3-.15-.61-.28-.92-.4l-.84,2.37Z"/>
            </g>
          </g>
          <path class="cls-20" d="m73.72,682.74c-7.07,1.32-11.73,8.11-10.41,15.18s8.11,11.73,15.18,10.41c7.07-1.32,11.73-8.11,10.41-15.18s-8.11-11.73-15.18-10.41Z"/>
          <circle class="cls-19" cx="76.1" cy="695.54" r="10.51" transform="translate(-367.07 154.09) rotate(-33.06)"/>
          <path class="cls-2" d="m90.48,688.21l.88-.48,3.35,6.16c.13.24.04.55-.2.68-.24.13-.55.04-.68-.2l-3.35-6.16Z"/>
          <path class="cls-20" d="m90.48,688.21l.88-.48,3.35,6.16c.13.24.04.55-.2.68-.24.13-.55.04-.68-.2l-3.35-6.16Z"/>
          <path class="cls-8" d="m89.24,687.89l2.64-1.44c.24-.13.55-.04.68.2.13.24.04.55-.2.68l-2.64,1.44c-.24.13-.55.04-.68-.2-.13-.24-.04-.55.2-.68"/>
          <path class="cls-20" d="m89.24,687.89l2.64-1.44c.24-.13.55-.04.68.2.13.24.04.55-.2.68l-2.64,1.44c-.24.13-.55.04-.68-.2-.13-.24-.04-.55.2-.68Z"/>
          <path class="cls-2" d="m82.98,676.44l-.31,1.08-20.18,3.76c-.27.05-.53-.13-.58-.4s.13-.53.4-.58l20.67-3.85Z"/>
          <path class="cls-19" d="m82.98,676.44l-.31,1.08-20.18,3.76c-.27.05-.53-.13-.58-.4s.13-.53.4-.58l20.67-3.85Z"/>
          <path class="cls-13" d="m70.4,678.78l-15.68,2.92c-1.38.26-2.7-.65-2.96-2.03l-2.56-13.71c-.26-1.38.65-2.7,2.03-2.96l15.68-2.92c1.38-.26,2.7.65,2.96,2.03l2.56,13.71c.26,1.38-.65,2.7-2.03,2.96"/>
          <path class="cls-2" d="m70.4,678.78l-15.68,2.92c-1.38.26-2.7-.65-2.96-2.03l-.27-1.44,20.67-3.85.27,1.44c.26,1.38-.65,2.7-2.03,2.96"/>
          <rect class="cls-20" x="50.3" y="661.38" width="21.02" height="19.02" rx="2.54" ry="2.54" transform="translate(-121.88 22.5) rotate(-10.56)"/>
          <path class="cls-11" d="m61.04,665.04l-.09.02-.42.07-4.79.89c-.08.01-.13.09-.11.16l.14.76c.16.83.83,1.18,1.9.98l3.78-.7c.4-.07.78.19.86.59s-.19.78-.59.86l-4.24.79c-.06.01-.11.06-.11.13l-.27,4.15s.01.08.05.11c.03.03.07.04.12.03l1.34-.25c.5-.09.67-.56.68-.79l.13-1.51,2.7-.5c1.6-.3,2.65-1.84,2.36-3.44s-1.84-2.65-3.44-2.36"/>
          <rect class="cls-2" x="79.75" y="665.81" width="1" height="8.71" transform="translate(-329.52 133.84) rotate(-30.55)"/>
          <rect class="cls-20" x="79.75" y="665.81" width="1" height="8.71" transform="translate(-329.52 133.84) rotate(-30.55)"/>
          <path class="cls-8" d="m115.06,675.04c-7.07,1.32-11.73,8.11-10.41,15.18s8.11,11.73,15.18,10.41c7.07-1.32,11.73-8.11,10.41-15.18s-8.11-11.73-15.18-10.41m4.31,23.13c-5.71,1.06-11.2-2.7-12.26-8.41-1.06-5.71,2.7-11.2,8.41-12.26s11.2,2.7,12.26,8.41c1.06,5.71-2.7,11.2-8.41,12.26"/>
          <path class="cls-5" d="m115.38,676.76c-6.11,1.14-10.15,7.02-9.01,13.14,1.14,6.11,7.02,10.15,13.14,9.01s10.15-7.02,9.01-13.14c-1.14-6.11-7.02-10.15-13.14-9.01m3.99,21.41c-5.71,1.06-11.2-2.7-12.26-8.41-1.06-5.71,2.7-11.2,8.41-12.26s11.2,2.7,12.26,8.41c1.06,5.71-2.7,11.2-8.41,12.26"/>
          <g class="cls-27">
            <g class="cls-21">
              <path class="cls-15" d="m111.08,679.48c.27-.2.54-.39.83-.57l-1.28-2.16c-.29.18-.56.36-.83.56l1.28,2.18Z"/>
            </g>
          </g>
          <path class="cls-20" d="m115.05,675.04c-7.07,1.32-11.73,8.11-10.41,15.18s8.11,11.73,15.18,10.41c7.07-1.32,11.73-8.11,10.41-15.18s-8.11-11.73-15.18-10.41Z"/>
          <circle class="cls-19" cx="117.44" cy="687.84" r="10.51" transform="translate(-356.18 175.4) rotate(-33.06)"/>
          <path class="cls-2" d="m74.13,695.91c-.2-1.09.51-2.13,1.6-2.34,1.09-.2,2.13.51,2.34,1.6.2,1.09-.51,2.13-1.6,2.34s-2.13-.51-2.34-1.6"/>
          <path class="cls-20" d="m74.13,695.91c-.2-1.09.51-2.13,1.6-2.34,1.09-.2,2.13.51,2.34,1.6.2,1.09-.51,2.13-1.6,2.34s-2.13-.51-2.34-1.6Z"/>
          <path class="cls-2" d="m115.47,688.2c-.2-1.09.51-2.13,1.6-2.34s2.13.51,2.34,1.6c.2,1.09-.51,2.13-1.6,2.34s-2.13-.51-2.34-1.6"/>
          <path class="cls-20" d="m115.47,688.2c-.2-1.09.51-2.13,1.6-2.34s2.13.51,2.34,1.6c.2,1.09-.51,2.13-1.6,2.34s-2.13-.51-2.34-1.6Z"/>
          <path class="cls-13" d="m94.71,691.56l-17.84,3.33,6.93-19.63-.94-.33s-7.23,20.46-7.22,20.47c-.11.34.21.71.56.64l18.7-3.48c.63-.13.48-1.09-.18-.98"/>
          <path class="cls-20" d="m94.71,691.56l-17.84,3.33,6.93-19.63-.94-.33s-7.23,20.46-7.22,20.47c-.11.34.21.71.56.64l18.7-3.48c.63-.13.48-1.09-.18-.98Z"/>
          <polygon class="cls-13" points="107.45 671.11 82.84 675.7 82.57 674.22 106.76 669.71 107.45 671.11"/>
          <polygon class="cls-20" points="107.45 671.11 82.84 675.7 82.57 674.22 106.76 669.71 107.45 671.11"/>
          <rect class="cls-13" x="87.39" y="671.11" width="1.5" height="25.03" transform="translate(-335.27 139.72) rotate(-30.55)"/>
          <rect class="cls-20" x="87.39" y="671.11" width="1.5" height="25.03" transform="translate(-335.27 139.72) rotate(-30.55)"/>
          <polygon class="cls-13" points="94.96 693.6 93.31 692.47 107.46 671.83 108.82 673.38 94.96 693.6"/>
          <polygon class="cls-20" points="94.96 693.6 93.31 692.47 107.46 671.83 108.82 673.38 94.96 693.6"/>
          <path class="cls-2" d="m90.49,694.89c-.38-2.04.96-4,3-4.38,2.04-.38,4,.96,4.38,3s-.96,4-3,4.38-4-.96-4.38-3"/>
          <path class="cls-20" d="m90.49,694.89c-.38-2.04.96-4,3-4.38,2.04-.38,4,.96,4.38,3s-.96,4-3,4.38-4-.96-4.38-3Z"/>
          <path class="cls-8" d="m75.75,668.9l-1.54-1.06c-.74-.5-.49-1.65.38-1.81l8.81-1.64c.54-.1.83.62.36.92l-5.74,3.59c-.68.47-1.58.47-2.27,0"/>
          <path class="cls-20" d="m75.75,668.9l-1.54-1.06c-.74-.5-.49-1.65.38-1.81l8.81-1.64c.54-.1.83.62.36.92l-5.74,3.59c-.68.47-1.58.47-2.27,0Z"/>
          <path class="cls-13" d="m117.67,688.31h0c-.24.14-.55.06-.69-.18l-11.53-19.53.86-.51,11.53,19.53c.14.24.06.55-.18.69"/>
          <path class="cls-20" d="m117.67,688.31h0c-.24.14-.55.06-.69-.18l-11.53-19.53.86-.51,11.53,19.53c.14.24.06.55-.18.69Z"/>
          <path class="cls-2" d="m107.03,663.44l-.43-.9-3.16,1.51c-.21.1-.31.33-.27.54,0,0,0,0,0,0,0,.04.01.08.03.12,0,.01.01.02.02.03,0,.01,0,.03.01.04l1.78,3.02.86-.51-1.52-2.57,2.67-1.28Z"/>
          <path class="cls-20" d="m107.03,663.44l-.43-.9-3.16,1.51c-.21.1-.31.33-.27.54,0,0,0,0,0,0,0,.04.01.08.03.12,0,.01.01.02.02.03,0,.01,0,.03.01.04l1.78,3.02.86-.51-1.52-2.57,2.67-1.28Z"/>
          <path class="cls-8" d="m108.15,662.58c.15.82-.39,1.6-1.2,1.75s-1.6-.39-1.75-1.2.39-1.6,1.2-1.75,1.6.39,1.75,1.2"/>
          <path class="cls-20" d="m108.15,662.58c.15.82-.39,1.6-1.2,1.75s-1.6-.39-1.75-1.2.39-1.6,1.2-1.75,1.6.39,1.75,1.2Z"/>
          <path class="cls-13" d="m106.82,668.99l-.63.37c-.3.18-.69.08-.87-.22l-.63-1.06c-.18-.3-.08-.69.22-.87l.63-.37c.3-.18.69-.08.87.22l.63,1.06c.18.3.08.69-.22.87"/>
          <rect class="cls-20" x="104.87" y="666.85" width="2" height="2.5" rx=".63" ry=".63" transform="translate(-325.05 146.68) rotate(-30.57)"/>
          <path class="cls-8" d="m108.82,663.51h0c-.14.39-.57.6-.96.46l-.94-.33c-.39-.14-.6-.57-.46-.96.14-.39.57-.6.96-.46l.94.33c.39.14.6.57.46.96"/>
          <path class="cls-20" d="m108.82,663.51h0c-.14.39-.57.6-.96.46l-.94-.33c-.39-.14-.6-.57-.46-.96.14-.39.57-.6.96-.46l.94.33c.39.14.6.57.46.96Z"/>
          <path class="cls-17" d="m103.13,660.87s1.61.62,2.98,1.7c.84.66.72,1.32.37,2.23-.35.91-.77.92-1.58,1.16-.41.12-.77-.56-.22-.88.57-.33.03-1.5-.65-1.23-.53.21-.93.41-1.36.07-.44-.34-1.15-1.31-.89-2.1.34-1.05,1.36-.95,1.36-.95"/>
          <path class="cls-20" d="m103.13,660.87s1.61.62,2.98,1.7c.84.66.72,1.32.37,2.23-.35.91-.77.92-1.58,1.16-.41.12-.77-.56-.22-.88.57-.33.03-1.5-.65-1.23-.53.21-.93.41-1.36.07-.44-.34-1.15-1.31-.89-2.1.34-1.05,1.36-.95,1.36-.95Z"/>
          <path class="cls-2" d="m90.1,645.08l6.46,7.34c.97,1.16.8,2.89-.36,3.86-1.17.97-2.81.9-4.32-.6-4.66-4.62-4.86-5.15-5.7-6.56-.31-.52-.5-1.06-.52-1.59-.12-2.68,2.49-4.63,4.46-2.45"/>
          <g class="cls-28">
            <g class="cls-31">
              <path class="cls-14" d="m90.1,645.08l6.46,7.34c.97,1.16.8,2.89-.36,3.86-1.17.97-2.81.9-4.32-.6-4.66-4.62-4.86-5.15-5.7-6.56-.31-.52-.5-1.06-.52-1.59-.12-2.68,2.49-4.63,4.46-2.45"/>
            </g>
          </g>
          <path class="cls-20" d="m90.99,646.1l5.38,6.52c.97,1.16.99,2.69-.17,3.65-1.16.97-2.71.98-4.32-.6-4.69-4.59-4.86-5.15-5.7-6.56-.31-.52-.48-1.06-.52-1.59-.04-.55.06-1.37.59-2.19"/>
          <path class="cls-2" d="m92.56,652.26c.95-.94,2.92-.33,3.59.36.78.8,7.6,7.95,7.77,8.16-.39.93-1.72,2.07-2.32,2l-8.79-6.61c-1.35-1.01-1.19-2.95-.25-3.9"/>
          <g class="cls-28">
            <g class="cls-26">
              <path class="cls-14" d="m92.56,652.26c.95-.94,2.92-.33,3.59.36.78.8,7.6,7.95,7.77,8.16-.39.93-1.72,2.07-2.32,2l-8.79-6.61c-1.35-1.01-1.19-2.95-.25-3.9"/>
            </g>
          </g>
          <path class="cls-20" d="m96.36,652.56c.13.15.54.59.76.84,1.91,2.17,6.66,7.2,6.8,7.37-.4.91-1.63,2.04-2.32,2l-9.44-6.93"/>
          <path class="cls-4" d="m82.08,664.66h0c.87-1.75,3.1-2.8,5.5-1.67,4.08,1.91,4.16,2.07,8.19,4.06,1.89.94,2.47,3.08,1.57,4.71-.9,1.62-2.28,2.08-4.35,1.34l-8.91-3.13c-2.34-.86-2.86-3.56-2-5.3"/>
          <path class="cls-20" d="m85.63,662.52c.62,0,1.28.15,1.96.47,4.08,1.91,4.16,2.07,8.19,4.06,1.89.94,2.47,3.09,1.57,4.71-.9,1.62-2.28,2.08-4.36,1.34l-10.11-3.58"/>
          <path class="cls-16" d="m103.57,664.11c-.02.92.71,1.69,1.64,1.71.92.02,1.69-.71,1.71-1.64s-.71-1.69-1.64-1.71c-.92-.02-1.69.71-1.71,1.64"/>
          <path class="cls-20" d="m103.57,664.11c-.02.92.71,1.69,1.64,1.71.92.02,1.69-.71,1.71-1.64s-.71-1.69-1.64-1.71c-.92-.02-1.69.71-1.71,1.64Z"/>
          <path class="cls-16" d="m103.63,666l1.65-.97c.34-.2.45-.64.25-.98-.2-.34-.64-.45-.98-.25l-1.65.97c-.34.2-.46.64-.25.98.2.34.64.45.98.25"/>
          <path class="cls-20" d="m103.63,666l1.65-.97c.34-.2.45-.64.25-.98-.2-.34-.64-.45-.98-.25l-1.65.97c-.34.2-.46.64-.25.98.2.34.64.45.98.25Z"/>
          <path class="cls-17" d="m102.13,661.68s1.65.48,3.12,1.44c.9.58.83,1.25.56,2.19-.27.94-.68.99-1.48,1.3-.4.16-.81-.49-.3-.86.54-.38-.1-1.5-.75-1.17-.51.25-.89.49-1.35.19-.47-.3-1.26-1.21-1.07-2.01.25-1.08,1.27-1.06,1.27-1.06"/>
          <path class="cls-20" d="m102.13,661.68s1.65.48,3.12,1.44c.9.58.83,1.25.56,2.19-.27.94-.68.99-1.48,1.3-.4.16-.81-.49-.3-.86.54-.38-.1-1.5-.75-1.17-.51.25-.89.49-1.35.19-.47-.3-1.26-1.21-1.07-2.01.25-1.08,1.27-1.06,1.27-1.06Z"/>
          <path class="cls-17" d="m90.18,645.89c-.1.25-.33.43-.62.48-.4.07-1.04.05-1.85-.39-.81-.43-1.17-.95-1.34-1.33-.12-.27-.1-.56.06-.78l2.89-3.87,2.59,1.39-1.74,4.49Z"/>
          <path class="cls-20" d="m90.18,645.89c-.1.25-.33.43-.62.48-.4.07-1.04.05-1.85-.39-.81-.43-1.17-.95-1.34-1.33-.12-.27-.1-.56.06-.78l2.89-3.87,2.59,1.39-1.74,4.49Z"/>
          <path class="cls-17" d="m95.29,640.32l-.92-1.35c-.05-1.59-1.15-3-2.77-3.36-1.92-.43-3.82.77-4.26,2.69-.43,1.92.77,3.83,2.69,4.26,2.89.64,3.66.54,4.13-2.18l1.12-.05Z"/>
          <path class="cls-7" d="m93.31,639.72h0c-.14.01-.27-.1-.28-.24v-.23c-.02-.14.09-.27.23-.28.14-.01.27.1.28.24v.23c.02.14-.09.27-.23.28"/>
          <path class="cls-20" d="m88.56,641.84l-.23-.2c-.86-.83-1.27-2.08-.99-3.34.43-1.92,2.34-3.12,4.26-2.69,1.62.36,2.73,1.78,2.78,3.36.34.48.91,1.35.91,1.35,0,0-.7.07-1.12.05-.46,2.37-.95,2.7-3.27,2.36l-.24-.03"/>
          <path class="cls-13" d="m85.91,638.06c-.06-2.95,1.95-4.71,4.55-4.8,2.38-.08,4.86,1.26,4.91,3.98-.6.79-1.76.68-2.49.52-1.1-.24-2.16.22-2.37,1.58-.28,1.79-2.09,2.61-4.07,1.32-.26-.48-.5-1.56-.52-2.6"/>
          <path class="cls-20" d="m85.91,638.06c-.06-2.95,1.95-4.71,4.55-4.8,2.38-.08,4.86,1.26,4.91,3.98-.6.79-1.76.68-2.49.52-1.1-.24-2.16.22-2.37,1.58-.28,1.79-2.09,2.61-4.07,1.32-.26-.48-.5-1.56-.52-2.6Z"/>
          <path class="cls-5" d="m79.64,671.01l1.81.42,4.64-6.62-8.58-2.66-.99,3.18c-.73,2.35.59,4.99,3.11,5.68"/>
          <path class="cls-20" d="m79.64,671.01l1.81.42,4.64-6.62-8.58-2.66-.99,3.18c-.73,2.35.59,4.99,3.11,5.68Z"/>
          <path class="cls-5" d="m79.88,666.65h0c.67-1.84,2.77-3.12,5.28-2.27,4.26,1.45,4.37,1.59,8.59,3.13,1.98.72,2.8,2.79,2.08,4.51-.72,1.71-2.03,2.32-4.18,1.81l-9.2-2.13c-2.42-.59-3.24-3.22-2.57-5.05"/>
          <g class="cls-28">
            <g class="cls-32">
              <path class="cls-14" d="m87.89,665.29s-1.56.02-3.51,1.1c-1.89,1.04-3.84,1.2-5.46,1-1.38-.17-2.39-1.08-2.39-1.08,0,0,0-.54.37-1.35.52-1.14,9.46-.62,9.46-.62l1.54.95Z"/>
            </g>
          </g>
          <path class="cls-20" d="m83.17,664.14c.62-.06,1.29,0,2,.25,4.26,1.45,4.37,1.59,8.59,3.13,1.98.72,2.8,2.79,2.08,4.51-.72,1.71-2.03,2.32-4.18,1.81l-10.53-2.47"/>
          <path class="cls-11" d="m93.73,685.02h0c-.78.19-1.25.98-1.06,1.76l.91,3.66c.19.78.98,1.25,1.76,1.06.78-.19,1.25-.98,1.06-1.76l-.91-3.66c-.19-.78-.98-1.25-1.76-1.06"/>
          <path class="cls-20" d="m93.73,685.02h0c-.78.19-1.25.98-1.06,1.76l.91,3.66c.19.78.98,1.25,1.76,1.06.78-.19,1.25-.98,1.06-1.76l-.91-3.66c-.19-.78-.98-1.25-1.76-1.06Z"/>
          <path class="cls-5" d="m92.6,669.23c1.57-.12,3.39.73,3.45,3.43.05,2.7-.21,9.41.42,14.55-.99.84-3.19,1.6-4.5.63-.97-4.73-3.01-12.57-2.61-14.89.35-2.01,1.17-3.56,3.24-3.72"/>
          <path class="cls-20" d="m96.27,672.37c.02.39,0,.57,0,1.02.05,2.7-.43,9.07.18,13.82-.87.86-3.3,1.59-4.5.63-.72-3.74-2.47-10.37-2.66-13.61"/>
          <path class="cls-2" d="m89.46,644.71c1.71,1.61,2.34,4.8,2.4,7.57.06,2.92-2.2,13.31-2.2,13.31,0,0-2.55-1.14-5.42-.25-2.05.63-4.11.63-5.57.35-1.94-.38-3.01-1.42-3.01-1.42,0,0,.94-5.51,3.25-10.79,2.71-6.2,6.37-12.71,10.56-8.76"/>
          <path class="cls-20" d="m89.46,644.71c1.71,1.61,2.34,4.8,2.4,7.57.06,2.92-2.2,13.31-2.2,13.31,0,0-2.55-1.14-5.42-.25-2.05.63-4.11.63-5.57.35-1.94-.38-3.01-1.42-3.01-1.42,0,0,.94-5.51,3.25-10.79,2.71-6.2,6.37-12.71,10.56-8.76Z"/>
          <path class="cls-2" d="m88.68,646.14l6.01,7.71c.89,1.22.63,2.93-.59,3.83-1.22.89-2.86.74-4.28-.85-4.38-4.89-4.55-5.43-5.31-6.89-.28-.54-.44-1.09-.43-1.61.04-2.68,2.75-4.48,4.59-2.18"/>
          <path class="cls-20" d="m89.51,647.21l4.98,6.83c.89,1.22.83,2.74-.39,3.64-1.22.89-2.76.82-4.28-.85-4.41-4.86-4.55-5.43-5.31-6.89-.28-.54-.42-1.09-.43-1.61-.01-.56.14-1.37.72-2.15"/>
          <path class="cls-2" d="m90.66,653.94c.87-1.02,2.89-.56,3.61.07.84.73,8.2,7.32,8.39,7.52-.31.96-1.55,2.2-2.16,2.17l-9.29-5.89c-1.42-.89-1.42-2.85-.55-3.87"/>
          <path class="cls-20" d="m94.47,653.94c.14.14.59.55.83.78,2.07,2.01,7.21,6.65,7.36,6.81-.33.94-1.46,2.16-2.16,2.17l-9.96-6.16"/>
          <path class="cls-2" d="m90.91,647.44l.21-2.81s-.69-.81-2.26-1.47c-1.57-.66-2.6-.42-2.6-.42l-.91,1.44s1.75-.41,3.21.69c1.46,1.09,2.36,2.57,2.36,2.57"/>
          <path class="cls-20" d="m90.94,647.3l.18-2.67s-.69-.81-2.26-1.47c-1.57-.66-2.6-.42-2.6-.42l-.85,1.19"/>
          <path class="cls-11" d="m101.96,690.1c.53-.08.69.12.69.12l.3.75s-2.01.84-4.54,1.81c-2.53.98-4.28,1.67-4.28,1.67,0,0-.49-.39-.3-.89.06-.16,7.57-3.37,8.13-3.46"/>
          <path class="cls-20" d="m101.96,690.1c.53-.08.69.12.69.12l.3.75s-2.01.84-4.54,1.81c-2.53.98-4.28,1.67-4.28,1.67,0,0-.49-.39-.3-.89.06-.16,7.57-3.37,8.13-3.46Z"/>
          <path class="cls-11" d="m93.2,690.81c.2.18.8.47,1.86.18,1.08-.3,1.52-1.06,1.63-1.42,0,0,2.7-.62,4.01-.06,1.21-.45,1.99.61,1.78.69-.47.19-1.55.65-2.92,1.17,0,0-1.87.72-3.09,1.18-1.58.6-2.64,1-2.64,1,0,0-.83-1.75-.63-2.74"/>
          <path class="cls-20" d="m93.2,690.81c.2.18.8.47,1.86.18,1.08-.3,1.52-1.06,1.63-1.42,0,0,2.7-.62,4.01-.06,1.21-.45,1.99.61,1.78.69-.47.19-1.55.65-2.92,1.17,0,0-1.87.72-3.09,1.18-1.58.6-2.64,1-2.64,1,0,0-.83-1.75-.63-2.74Z"/>
        </g>
      </g>
    </g>
  </g>
</svg>