<?xml version="1.0" encoding="UTF-8"?>
<svg id="uuid-1273f2d4-84ae-498a-8625-87e810060657" data-name="Capa 2" xmlns="http://www.w3.org/2000/svg" xmlns:xlink="http://www.w3.org/1999/xlink" viewBox="0 0 1113.12 129.55">
  <defs>
    <style>
      .uuid-81d2159e-ab6c-4dd9-a988-6b41cc381cd3 {
        fill: #72e6ff;
      }

      .uuid-81d2159e-ab6c-4dd9-a988-6b41cc381cd3, .uuid-1ca4d5e4-f414-4e19-bc58-95d865676a1b, .uuid-63f0015d-bc5f-4b6e-80f0-0e47141810cb, .uuid-071d29ec-d41e-4327-96fd-56b43dc6835f, .uuid-bf67e8fa-6437-4807-9dbd-d1639ed7e8b3, .uuid-30b76d39-7482-4b66-820a-200fd1f2faed, .uuid-1b86cfac-74c5-495e-bf8e-d1d23da20cb2, .uuid-91da7a90-34a6-4e52-9064-ad735595c749, .uuid-930f810b-030f-4be0-83e1-572f2db101b8, .uuid-d009fa69-5cab-4eb6-bb1e-fee2c3a6ba4b, .uuid-51079c9d-43ee-4beb-a726-f13391c2d329, .uuid-d9bdd211-f140-45da-b390-b888d2c77c9a, .uuid-2c4928ef-045e-40b7-a1a3-16911db3163f, .uuid-477b8cd9-6a9b-4f43-8ce2-282a09d02ec0, .uuid-64fe39ed-6df9-41b4-a489-72b52cf654e8, .uuid-178193d6-948f-4538-b0ce-8a2f3aad3a06 {
        stroke-width: 0px;
      }

      .uuid-c5cd8d77-01f6-49fc-9e0f-8caa602ebd13 {
        clip-path: url(#uuid-c73a6b39-6995-4a2b-9415-4e6ecc3cc6fb);
      }

      .uuid-1ca4d5e4-f414-4e19-bc58-95d865676a1b {
        fill: #60f6c0;
      }

      .uuid-cb56eae6-4c8a-430e-a8fa-769b6f21ddf1 {
        clip-path: url(#uuid-aae5abd0-f567-477d-81d8-3e879f8f834d);
      }

      .uuid-4cde7620-3ec9-4f97-9c4a-04c4bcdaffbf {
        clip-path: url(#uuid-f071b427-4156-488c-9cd5-5a93d7829acd);
      }

      .uuid-0b7b78b5-a26f-45c3-a33b-1312c9ac08c5 {
        clip-path: url(#uuid-8bd18796-3e3c-4f47-bdff-7198536ce4d1);
      }

      .uuid-63f0015d-bc5f-4b6e-80f0-0e47141810cb {
        fill: #dcf8ff;
      }

      .uuid-071d29ec-d41e-4327-96fd-56b43dc6835f {
        fill: #8c4b46;
      }

      .uuid-3e0c3051-ce7c-41b5-bf19-c0b0c8ec3a1c {
        opacity: .92;
      }

      .uuid-3e0c3051-ce7c-41b5-bf19-c0b0c8ec3a1c, .uuid-42d24e63-f22c-41bd-937b-d769d05879db, .uuid-1494cdef-002c-4dce-858d-157373e77b8c {
        isolation: isolate;
      }

      .uuid-bf67e8fa-6437-4807-9dbd-d1639ed7e8b3 {
        fill: #47839f;
      }

      .uuid-30b76d39-7482-4b66-820a-200fd1f2faed {
        fill: #5fbbd5;
      }

      .uuid-1b86cfac-74c5-495e-bf8e-d1d23da20cb2 {
        fill: #c1f9fe;
      }

      .uuid-0dc6c28f-5ee0-432b-9beb-95031f38ab9a {
        clip-path: url(#uuid-d42986d8-663c-493d-b48a-a15a5585b2fc);
      }

      .uuid-7e21ee7c-79b8-4a2d-b601-54ae2cb410c6 {
        clip-path: url(#uuid-c8b09756-adf5-4800-ac17-36e038b3ce32);
      }

      .uuid-91da7a90-34a6-4e52-9064-ad735595c749 {
        fill: #100423;
      }

      .uuid-6af22146-26fb-433b-a1c0-d1afe44f37b2 {
        clip-path: url(#uuid-16c3faec-0ad4-4629-beff-422fd3535a44);
      }

      .uuid-14f413aa-04a0-453e-9d16-76ea29f1aad7 {
        clip-path: url(#uuid-ef3741de-3f4e-4deb-8516-26dd720b49d3);
      }

      .uuid-639d7f90-9040-403b-ac8d-2c0cb8099c22 {
        clip-path: url(#uuid-25cb5a7c-ca41-425d-89c6-e8c0b57b681e);
      }

      .uuid-9c4838c7-72bd-4bde-a42d-98c14b11beb7 {
        clip-path: url(#uuid-d05de519-83b2-4bd1-a5e1-b6eec97a9fb0);
      }

      .uuid-73c3a267-cdb4-4cac-8f31-79038320daf0 {
        stroke: #000;
        stroke-miterlimit: 10;
        stroke-width: .85px;
      }

      .uuid-73c3a267-cdb4-4cac-8f31-79038320daf0, .uuid-d9bdd211-f140-45da-b390-b888d2c77c9a {
        fill: #fff;
      }

      .uuid-930f810b-030f-4be0-83e1-572f2db101b8 {
        fill: #563e5b;
      }

      .uuid-d009fa69-5cab-4eb6-bb1e-fee2c3a6ba4b, .uuid-56a107db-d2b3-4142-b2bb-8b5f3e29ec83, .uuid-a11a6586-801e-432d-a696-d2a459ec2daa {
        fill: none;
      }

      .uuid-51079c9d-43ee-4beb-a726-f13391c2d329 {
        fill: #482e4d;
      }

      .uuid-56a107db-d2b3-4142-b2bb-8b5f3e29ec83 {
        stroke: #47839f;
      }

      .uuid-56a107db-d2b3-4142-b2bb-8b5f3e29ec83, .uuid-a11a6586-801e-432d-a696-d2a459ec2daa {
        stroke-linecap: round;
        stroke-linejoin: round;
        stroke-width: .43px;
      }

      .uuid-54f1579d-c587-4f06-96d7-e45906ae00c7 {
        clip-path: url(#uuid-480d2a77-8cf0-4bf3-993a-a8f2a3cc6457);
      }

      .uuid-84b5e412-ee59-4788-abae-f6983035edbf {
        clip-path: url(#uuid-79efce7f-f612-49d9-915e-0ab816b429b5);
      }

      .uuid-2c4928ef-045e-40b7-a1a3-16911db3163f {
        fill: #ea044e;
      }

      .uuid-477b8cd9-6a9b-4f43-8ce2-282a09d02ec0 {
        fill: #40004d;
      }

      .uuid-3ccb3b57-2999-4e89-b57c-3a38d4db9f52 {
        clip-path: url(#uuid-308f4aaf-af91-4383-bcd5-183faa48aeef);
      }

      .uuid-517929ea-8656-495b-9ef7-8d748bfbf603 {
        clip-path: url(#uuid-dec066d0-0ccb-4759-9f7f-d9e8adf4d45e);
      }

      .uuid-25f6b724-76f3-474d-9326-97d6ebdc0e91 {
        clip-path: url(#uuid-4544f762-71e3-4727-a3e1-e4cbe2e459b6);
      }

      .uuid-42d24e63-f22c-41bd-937b-d769d05879db {
        opacity: .16;
      }

      .uuid-64fe39ed-6df9-41b4-a489-72b52cf654e8 {
        fill: #f1fcff;
      }

      .uuid-8c7f3b4b-8b50-446f-a01a-90fc1b84e706 {
        clip-path: url(#uuid-9a04f47a-04e9-416b-a1ae-db7eaf3085ca);
      }

      .uuid-a11a6586-801e-432d-a696-d2a459ec2daa {
        stroke: #100423;
      }

      .uuid-1494cdef-002c-4dce-858d-157373e77b8c {
        opacity: .11;
      }

      .uuid-178193d6-948f-4538-b0ce-8a2f3aad3a06 {
        fill: #f9b495;
      }

      .uuid-d5ff153c-df2f-411e-ad1c-e04b88ce5e7a {
        clip-path: url(#uuid-47d2b403-4a4e-4a69-a2b8-09215f90800c);
      }
    </style>
    <clipPath id="uuid-8bd18796-3e3c-4f47-bdff-7198536ce4d1">
      <rect class="uuid-d009fa69-5cab-4eb6-bb1e-fee2c3a6ba4b" x="266.26" y="50.24" width="101" height="24.51"/>
    </clipPath>
    <clipPath id="uuid-c8b09756-adf5-4800-ac17-36e038b3ce32">
      <rect class="uuid-d009fa69-5cab-4eb6-bb1e-fee2c3a6ba4b" x="498.71" y="58.47" width="13.38" height="14.48" transform="translate(-2.38 22.06) rotate(-2.49)"/>
    </clipPath>
    <clipPath id="uuid-d42986d8-663c-493d-b48a-a15a5585b2fc">
      <rect class="uuid-d009fa69-5cab-4eb6-bb1e-fee2c3a6ba4b" x="491.19" y="67.41" width="14" height="12.4" transform="translate(-2.73 21.76) rotate(-2.49)"/>
    </clipPath>
    <clipPath id="uuid-9a04f47a-04e9-416b-a1ae-db7eaf3085ca">
      <rect class="uuid-d009fa69-5cab-4eb6-bb1e-fee2c3a6ba4b" x="499.54" y="101.67" width="5.78" height="7.4" transform="translate(-4.11 21.97) rotate(-2.49)"/>
    </clipPath>
    <clipPath id="uuid-dec066d0-0ccb-4759-9f7f-d9e8adf4d45e">
      <rect class="uuid-d009fa69-5cab-4eb6-bb1e-fee2c3a6ba4b" x="485.16" y="95.61" width="21.64" height="13.21" transform="translate(-3.98 21.69) rotate(-2.49)"/>
    </clipPath>
    <clipPath id="uuid-f071b427-4156-488c-9cd5-5a93d7829acd">
      <rect class="uuid-d009fa69-5cab-4eb6-bb1e-fee2c3a6ba4b" x="498.94" y="107.75" width="3.83" height="3.83" transform="translate(-4.3 21.91) rotate(-2.49)"/>
    </clipPath>
    <clipPath id="uuid-d05de519-83b2-4bd1-a5e1-b6eec97a9fb0">
      <rect class="uuid-d009fa69-5cab-4eb6-bb1e-fee2c3a6ba4b" x="483.29" y="95.17" width="2.33" height="3.08" transform="translate(-3.75 21.18) rotate(-2.49)"/>
    </clipPath>
    <clipPath id="uuid-79efce7f-f612-49d9-915e-0ab816b429b5">
      <rect class="uuid-d009fa69-5cab-4eb6-bb1e-fee2c3a6ba4b" x="502.59" y="88.7" width="23.74" height="7.79" transform="translate(-3.54 22.48) rotate(-2.49)"/>
    </clipPath>
    <clipPath id="uuid-47d2b403-4a4e-4a69-a2b8-09215f90800c">
      <rect class="uuid-d009fa69-5cab-4eb6-bb1e-fee2c3a6ba4b" x="509.86" y="81.12" width="12.99" height="3.78" transform="translate(-3.12 22.56) rotate(-2.49)"/>
    </clipPath>
    <clipPath id="uuid-308f4aaf-af91-4383-bcd5-183faa48aeef">
      <rect class="uuid-d009fa69-5cab-4eb6-bb1e-fee2c3a6ba4b" x="1055.17" y="58.47" width="13.38" height="14.48" transform="translate(-1.85 46.28) rotate(-2.49)"/>
    </clipPath>
    <clipPath id="uuid-16c3faec-0ad4-4629-beff-422fd3535a44">
      <rect class="uuid-d009fa69-5cab-4eb6-bb1e-fee2c3a6ba4b" x="1047.65" y="67.41" width="14" height="12.4" transform="translate(-2.2 45.98) rotate(-2.49)"/>
    </clipPath>
    <clipPath id="uuid-480d2a77-8cf0-4bf3-993a-a8f2a3cc6457">
      <rect class="uuid-d009fa69-5cab-4eb6-bb1e-fee2c3a6ba4b" x="1055.99" y="101.67" width="5.78" height="7.4" transform="translate(-3.58 46.19) rotate(-2.49)"/>
    </clipPath>
    <clipPath id="uuid-25cb5a7c-ca41-425d-89c6-e8c0b57b681e">
      <rect class="uuid-d009fa69-5cab-4eb6-bb1e-fee2c3a6ba4b" x="1041.62" y="95.61" width="21.64" height="13.21" transform="translate(-3.45 45.91) rotate(-2.49)"/>
    </clipPath>
    <clipPath id="uuid-ef3741de-3f4e-4deb-8516-26dd720b49d3">
      <rect class="uuid-d009fa69-5cab-4eb6-bb1e-fee2c3a6ba4b" x="1055.4" y="107.75" width="3.83" height="3.83" transform="translate(-3.77 46.13) rotate(-2.49)"/>
    </clipPath>
    <clipPath id="uuid-4544f762-71e3-4727-a3e1-e4cbe2e459b6">
      <rect class="uuid-d009fa69-5cab-4eb6-bb1e-fee2c3a6ba4b" x="1039.74" y="95.17" width="2.33" height="3.08" transform="translate(-3.22 45.4) rotate(-2.49)"/>
    </clipPath>
    <clipPath id="uuid-aae5abd0-f567-477d-81d8-3e879f8f834d">
      <rect class="uuid-d009fa69-5cab-4eb6-bb1e-fee2c3a6ba4b" x="1059.04" y="88.7" width="23.74" height="7.79" transform="translate(-3.02 46.7) rotate(-2.49)"/>
    </clipPath>
    <clipPath id="uuid-c73a6b39-6995-4a2b-9415-4e6ecc3cc6fb">
      <rect class="uuid-d009fa69-5cab-4eb6-bb1e-fee2c3a6ba4b" x="1066.32" y="81.12" width="12.99" height="3.78" transform="translate(-2.6 46.78) rotate(-2.49)"/>
    </clipPath>
  </defs>
  <g id="uuid-962efd98-6d43-44f3-a9fc-11b538427e9b" data-name="Layer 1">
    <g>
      <g>
        <path class="uuid-1ca4d5e4-f414-4e19-bc58-95d865676a1b" d="m111.4,73.33c7.75.13,14.06-6.16,13.91-13.89-.14-7.3-6.13-13.25-13.46-13.36-3.15-.05-6.06.97-8.39,2.71,1.6-2.41,2.51-5.31,2.46-8.43-.14-7.87-6.55-14.31-14.44-14.52-4.16-.11-7.94,1.49-10.7,4.14,1.22-2.57,1.91-5.45,1.91-8.48,0-10.77-8.78-19.63-19.58-19.78-11.09-.15-20.12,8.77-20.12,19.79,0,2.47.46,4.84,1.29,7.02-2.42-1.7-5.38-2.71-8.57-2.7-8,.01-14.62,6.45-14.81,14.43-.07,2.84.67,5.5,1.99,7.78-2.19-1.32-4.79-2.05-7.57-1.95-7.18.26-13,6.13-13.16,13.29-.18,7.68,6.01,13.95,13.67,13.95h95.6Z"/>
        <g>
          <path class="uuid-91da7a90-34a6-4e52-9064-ad735595c749" d="m110.43,73.46c-.08,0-.17,0-.25,0H14.59c-3.97,0-7.68-1.56-10.45-4.4C1.38,66.24-.09,62.51,0,58.57c.18-7.68,6.35-13.92,14.05-14.19,1.95-.06,3.87.24,5.66.92-.69-1.86-1.02-3.84-.97-5.85.21-8.43,7.27-15.31,15.73-15.32h.03c2.44,0,4.8.55,6.95,1.61-.41-1.63-.61-3.31-.61-5.01,0-5.57,2.19-10.8,6.16-14.72C50.99,2.06,56.24-.12,61.9,0c11.29.15,20.48,9.44,20.49,20.7,0,1.97-.27,3.9-.81,5.75,2.59-1.6,5.59-2.44,8.71-2.33,8.45.22,15.18,7,15.34,15.42.04,2.09-.33,4.14-1.09,6.05,1.91-.84,3.95-1.28,6.12-1.23,7.77.12,14.22,6.52,14.36,14.27.08,3.98-1.43,7.73-4.25,10.54-2.76,2.77-6.43,4.29-10.34,4.29Zm-.24-1.84c.08.01.16,0,.24,0,3.42,0,6.62-1.33,9.04-3.75,2.46-2.46,3.77-5.73,3.71-9.21-.13-6.77-5.76-12.36-12.55-12.46-2.86-.1-5.55.83-7.83,2.52-.36.27-.86.24-1.18-.07-.32-.31-.38-.81-.13-1.18,1.56-2.35,2.35-5.08,2.3-7.91-.14-7.44-6.09-13.42-13.54-13.61-3.79-.1-7.33,1.28-10.04,3.89-.32.31-.82.35-1.18.08-.36-.26-.48-.74-.29-1.14,1.21-2.54,1.82-5.26,1.82-8.09,0-10.26-8.38-18.72-18.68-18.86-5.07-.1-9.94,1.87-13.58,5.46-3.62,3.57-5.61,8.34-5.61,13.41,0,2.3.41,4.56,1.23,6.7.14.38.02.81-.3,1.05-.32.25-.76.26-1.09.03-2.36-1.66-5.13-2.54-8.02-2.54h-.02c-7.48.01-13.71,6.08-13.9,13.53-.06,2.56.58,5.09,1.86,7.29.21.36.15.82-.15,1.12s-.76.35-1.12.13c-2.12-1.28-4.55-1.91-7.06-1.82-6.73.24-12.12,5.68-12.28,12.4-.08,3.45,1.2,6.7,3.61,9.17,2.42,2.48,5.67,3.84,9.14,3.84h95.6Z"/>
          <path class="uuid-91da7a90-34a6-4e52-9064-ad735595c749" d="m62.51,129.55c-.51,0-.92-.41-.92-.92V37.72c0-.51.41-.92.92-.92s.92.41.92.92v90.91c0,.51-.41.92-.92.92Z"/>
          <path class="uuid-91da7a90-34a6-4e52-9064-ad735595c749" d="m61.88,67.4c-.2,0-.4-.07-.57-.2l-24.04-19.17c-.4-.32-.46-.9-.15-1.29.32-.4.9-.47,1.29-.15l24.04,19.17c.4.32.46.9.15,1.29-.18.23-.45.35-.72.35Z"/>
          <path class="uuid-91da7a90-34a6-4e52-9064-ad735595c749" d="m63.3,53.02c-.39,0-.75-.24-.87-.63-.15-.45.07-.94.49-1.13,1.07-.67,10.63-9.4,16.44-14.78.37-.35.96-.32,1.3.05.35.37.32.96-.05,1.3-10.61,9.82-16.33,14.91-17.02,15.14-.1.03-.19.05-.29.05Z"/>
        </g>
      </g>
      <g>
        <path class="uuid-1ca4d5e4-f414-4e19-bc58-95d865676a1b" d="m202.4,93.52c4.97.09,9.01-3.95,8.91-8.9-.09-4.68-3.93-8.49-8.62-8.56-2.02-.03-3.88.62-5.38,1.73,1.02-1.54,1.61-3.4,1.57-5.4-.09-5.04-4.2-9.17-9.26-9.3-2.67-.07-5.09.96-6.86,2.66.78-1.65,1.22-3.49,1.22-5.44,0-6.9-5.63-12.58-12.55-12.68-7.11-.09-12.9,5.62-12.9,12.68,0,1.59.29,3.1.83,4.5-1.55-1.09-3.45-1.74-5.49-1.73-5.13,0-9.37,4.13-9.49,9.25-.05,1.82.43,3.53,1.28,4.99-1.41-.85-3.07-1.31-4.85-1.25-4.6.16-8.33,3.93-8.44,8.52-.11,4.92,3.85,8.94,8.76,8.94h61.27Z"/>
        <g>
          <path class="uuid-91da7a90-34a6-4e52-9064-ad735595c749" d="m201.78,93.6c-.05,0-.11,0-.16,0h-61.26c-2.54,0-4.92-1-6.7-2.82-1.77-1.81-2.71-4.2-2.65-6.73.12-4.92,4.07-8.92,9.01-9.1,1.25-.04,2.48.16,3.63.59-.44-1.19-.66-2.46-.62-3.75.13-5.41,4.66-9.81,10.08-9.82h.02c1.56,0,3.08.35,4.45,1.03-.26-1.05-.39-2.12-.39-3.21,0-3.57,1.4-6.92,3.95-9.44,2.56-2.52,5.92-3.92,9.55-3.84,7.24.1,13.13,6.05,13.13,13.27,0,1.26-.17,2.5-.52,3.69,1.66-1.03,3.58-1.56,5.58-1.5,5.41.14,9.73,4.48,9.83,9.88.02,1.34-.21,2.65-.7,3.88,1.22-.54,2.53-.82,3.92-.79,4.98.07,9.11,4.18,9.21,9.14.05,2.55-.92,4.95-2.72,6.76-1.77,1.78-4.12,2.75-6.63,2.75Zm-.16-1.18s.1,0,.16,0c2.19,0,4.24-.85,5.79-2.4,1.57-1.58,2.42-3.67,2.38-5.9-.08-4.34-3.69-7.92-8.04-7.99-1.83-.07-3.56.53-5.02,1.62-.23.17-.55.15-.76-.04-.21-.2-.24-.52-.09-.75,1-1.51,1.51-3.26,1.47-5.07-.09-4.77-3.9-8.6-8.68-8.72-2.43-.07-4.7.82-6.43,2.49-.21.2-.52.22-.75.05-.23-.17-.31-.47-.19-.73.77-1.63,1.17-3.37,1.16-5.18,0-6.58-5.37-12-11.97-12.09-3.25-.06-6.37,1.2-8.7,3.5-2.32,2.29-3.6,5.34-3.6,8.6,0,1.48.26,2.92.79,4.29.09.24.02.52-.19.68-.2.16-.49.16-.7.02-1.51-1.06-3.29-1.63-5.14-1.63h-.02c-4.79,0-8.79,3.9-8.91,8.67-.04,1.64.37,3.26,1.2,4.67.14.23.1.53-.1.72s-.49.22-.72.08c-1.36-.82-2.92-1.22-4.52-1.16-4.31.15-7.77,3.64-7.87,7.94-.05,2.21.77,4.29,2.31,5.88,1.55,1.59,3.63,2.46,5.86,2.46h61.27Z"/>
          <path class="uuid-91da7a90-34a6-4e52-9064-ad735595c749" d="m171.06,129.55c-.33,0-.59-.26-.59-.59v-58.27c0-.33.26-.59.59-.59s.59.26.59.59v58.27c0,.33-.26.59-.59.59Z"/>
          <path class="uuid-91da7a90-34a6-4e52-9064-ad735595c749" d="m170.66,89.72c-.13,0-.26-.04-.37-.13l-15.41-12.29c-.26-.2-.3-.57-.09-.83.2-.25.58-.3.83-.09l15.41,12.29c.26.2.3.57.09.83-.12.15-.29.22-.46.22Z"/>
          <path class="uuid-91da7a90-34a6-4e52-9064-ad735595c749" d="m171.57,80.5c-.25,0-.48-.16-.56-.4-.1-.29.04-.6.32-.72.68-.43,6.81-6.02,10.54-9.47.24-.22.61-.21.83.03.22.24.21.61-.03.83-6.8,6.29-10.47,9.56-10.91,9.7-.06.02-.12.03-.19.03Z"/>
        </g>
      </g>
      <g>
        <path class="uuid-1ca4d5e4-f414-4e19-bc58-95d865676a1b" d="m880.4,73.33c7.75.13,14.06-6.16,13.91-13.89-.14-7.3-6.13-13.25-13.46-13.36-3.15-.05-6.06.97-8.39,2.71,1.6-2.41,2.51-5.31,2.46-8.43-.14-7.87-6.55-14.31-14.44-14.52-4.16-.11-7.94,1.49-10.7,4.14,1.22-2.57,1.91-5.45,1.91-8.48,0-10.77-8.78-19.63-19.58-19.78-11.09-.15-20.12,8.77-20.12,19.79,0,2.47.46,4.84,1.29,7.02-2.42-1.7-5.38-2.71-8.57-2.7-8,.01-14.62,6.45-14.81,14.43-.07,2.84.67,5.5,1.99,7.78-2.19-1.32-4.79-2.05-7.57-1.95-7.18.26-13,6.13-13.16,13.29-.18,7.68,6.01,13.95,13.67,13.95h95.6Z"/>
        <g>
          <path class="uuid-91da7a90-34a6-4e52-9064-ad735595c749" d="m879.43,73.46c-.08,0-.17,0-.25,0h-95.59c-3.97,0-7.68-1.56-10.45-4.4-2.76-2.82-4.23-6.55-4.13-10.5.18-7.68,6.35-13.92,14.05-14.19,1.95-.06,3.87.24,5.66.92-.69-1.86-1.02-3.84-.97-5.85.21-8.43,7.27-15.31,15.73-15.32h.03c2.44,0,4.8.55,6.95,1.61-.41-1.63-.61-3.31-.61-5.01,0-5.57,2.19-10.8,6.16-14.72,3.99-3.94,9.24-6.11,14.89-5.99,11.29.15,20.48,9.44,20.49,20.7,0,1.97-.27,3.9-.81,5.75,2.59-1.6,5.59-2.44,8.71-2.33,8.45.22,15.18,7,15.34,15.42.04,2.09-.33,4.14-1.09,6.05,1.91-.84,3.95-1.28,6.12-1.23,7.77.12,14.22,6.52,14.36,14.27.08,3.98-1.43,7.73-4.25,10.54-2.76,2.77-6.43,4.29-10.34,4.29Zm-.24-1.84c.08.01.16,0,.24,0,3.42,0,6.62-1.33,9.04-3.75,2.46-2.46,3.77-5.73,3.71-9.21-.13-6.77-5.76-12.36-12.55-12.46-2.86-.1-5.55.83-7.83,2.52-.36.27-.86.24-1.18-.07-.32-.31-.38-.81-.13-1.18,1.56-2.35,2.35-5.08,2.3-7.91-.14-7.44-6.09-13.42-13.54-13.61-3.79-.1-7.33,1.28-10.04,3.89-.32.31-.82.35-1.18.08-.36-.26-.48-.74-.29-1.14,1.21-2.54,1.82-5.26,1.82-8.09,0-10.26-8.38-18.72-18.68-18.86-5.07-.1-9.94,1.87-13.58,5.46-3.62,3.57-5.61,8.34-5.61,13.41,0,2.3.41,4.56,1.23,6.7.14.38.02.81-.3,1.05-.32.25-.76.26-1.09.03-2.36-1.66-5.13-2.54-8.02-2.54h-.02c-7.48.01-13.71,6.08-13.9,13.53-.06,2.56.58,5.09,1.86,7.29.21.36.15.82-.15,1.12s-.76.35-1.12.13c-2.12-1.28-4.55-1.91-7.06-1.82-6.73.24-12.12,5.68-12.28,12.4-.08,3.45,1.2,6.7,3.61,9.17,2.42,2.48,5.67,3.84,9.14,3.84h95.6Z"/>
          <path class="uuid-91da7a90-34a6-4e52-9064-ad735595c749" d="m831.51,129.55c-.51,0-.92-.41-.92-.92V37.72c0-.51.41-.92.92-.92s.92.41.92.92v90.91c0,.51-.41.92-.92.92Z"/>
          <path class="uuid-91da7a90-34a6-4e52-9064-ad735595c749" d="m830.88,67.4c-.2,0-.4-.07-.57-.2l-24.04-19.17c-.4-.32-.46-.9-.15-1.29.32-.4.9-.47,1.29-.15l24.04,19.17c.4.32.46.9.15,1.29-.18.23-.45.35-.72.35Z"/>
          <path class="uuid-91da7a90-34a6-4e52-9064-ad735595c749" d="m832.3,53.02c-.39,0-.75-.24-.87-.63-.15-.45.07-.94.49-1.13,1.07-.67,10.63-9.4,16.44-14.78.37-.35.96-.32,1.3.05.35.37.32.96-.05,1.3-10.61,9.82-16.33,14.91-17.02,15.14-.1.03-.19.05-.29.05Z"/>
        </g>
      </g>
      <g>
        <path class="uuid-1ca4d5e4-f414-4e19-bc58-95d865676a1b" d="m971.4,93.52c4.97.09,9.01-3.95,8.91-8.9-.09-4.68-3.93-8.49-8.62-8.56-2.02-.03-3.88.62-5.38,1.73,1.02-1.54,1.61-3.4,1.57-5.4-.09-5.04-4.2-9.17-9.26-9.3-2.67-.07-5.09.96-6.86,2.66.78-1.65,1.22-3.49,1.22-5.44,0-6.9-5.63-12.58-12.55-12.68-7.11-.09-12.9,5.62-12.9,12.68,0,1.59.29,3.1.83,4.5-1.55-1.09-3.45-1.74-5.49-1.73-5.13,0-9.37,4.13-9.49,9.25-.05,1.82.43,3.53,1.28,4.99-1.41-.85-3.07-1.31-4.85-1.25-4.6.16-8.33,3.93-8.44,8.52-.11,4.92,3.85,8.94,8.76,8.94h61.27Z"/>
        <g>
          <path class="uuid-91da7a90-34a6-4e52-9064-ad735595c749" d="m970.78,93.6c-.05,0-.11,0-.16,0h-61.26c-2.54,0-4.92-1-6.7-2.82-1.77-1.81-2.71-4.2-2.65-6.73.12-4.92,4.07-8.92,9.01-9.1,1.25-.04,2.48.16,3.63.59-.44-1.19-.66-2.46-.62-3.75.13-5.41,4.66-9.81,10.08-9.82h.02c1.56,0,3.08.35,4.45,1.03-.26-1.05-.39-2.12-.39-3.21,0-3.57,1.4-6.92,3.95-9.44,2.56-2.52,5.92-3.92,9.55-3.84,7.24.1,13.13,6.05,13.13,13.27,0,1.26-.17,2.5-.52,3.69,1.66-1.03,3.58-1.56,5.58-1.5,5.41.14,9.73,4.48,9.83,9.88.02,1.34-.21,2.65-.7,3.88,1.22-.54,2.53-.82,3.92-.79,4.98.07,9.11,4.18,9.21,9.14.05,2.55-.92,4.95-2.72,6.76-1.77,1.78-4.12,2.75-6.63,2.75Zm-.16-1.18s.1,0,.16,0c2.19,0,4.24-.85,5.79-2.4,1.57-1.58,2.42-3.67,2.38-5.9-.08-4.34-3.69-7.92-8.04-7.99-1.83-.07-3.56.53-5.02,1.62-.23.17-.55.15-.76-.04-.21-.2-.24-.52-.09-.75,1-1.51,1.51-3.26,1.47-5.07-.09-4.77-3.9-8.6-8.68-8.72-2.43-.07-4.7.82-6.43,2.49-.21.2-.52.22-.75.05-.23-.17-.31-.47-.19-.73.77-1.63,1.17-3.37,1.16-5.18,0-6.58-5.37-12-11.97-12.09-3.25-.06-6.37,1.2-8.7,3.5-2.32,2.29-3.6,5.34-3.6,8.6,0,1.48.26,2.92.79,4.29.09.24.02.52-.19.68-.2.16-.49.16-.7.02-1.51-1.06-3.29-1.63-5.14-1.63h-.02c-4.79,0-8.79,3.9-8.91,8.67-.04,1.64.37,3.26,1.2,4.67.14.23.1.53-.1.72s-.49.22-.72.08c-1.36-.82-2.92-1.22-4.52-1.16-4.31.15-7.77,3.64-7.87,7.94-.05,2.21.77,4.29,2.31,5.88,1.55,1.59,3.63,2.46,5.86,2.46h61.27Z"/>
          <path class="uuid-91da7a90-34a6-4e52-9064-ad735595c749" d="m940.06,129.55c-.33,0-.59-.26-.59-.59v-58.27c0-.33.26-.59.59-.59s.59.26.59.59v58.27c0,.33-.26.59-.59.59Z"/>
          <path class="uuid-91da7a90-34a6-4e52-9064-ad735595c749" d="m939.66,89.72c-.13,0-.26-.04-.37-.13l-15.41-12.29c-.26-.2-.3-.57-.09-.83.2-.25.58-.3.83-.09l15.41,12.29c.26.2.3.57.09.83-.12.15-.29.22-.46.22Z"/>
          <path class="uuid-91da7a90-34a6-4e52-9064-ad735595c749" d="m940.57,80.5c-.25,0-.48-.16-.56-.4-.1-.29.04-.6.32-.72.68-.43,6.81-6.02,10.54-9.47.24-.22.61-.21.83.03.22.24.21.61-.03.83-6.8,6.29-10.47,9.56-10.91,9.7-.06.02-.12.03-.19.03Z"/>
        </g>
      </g>
      <g>
        <g class="uuid-1494cdef-002c-4dce-858d-157373e77b8c">
          <g class="uuid-0b7b78b5-a26f-45c3-a33b-1312c9ac08c5">
            <path class="uuid-477b8cd9-6a9b-4f43-8ce2-282a09d02ec0" d="m362.85,74.27h-92.17c-2.17,0-3.92-1.76-3.92-3.92v-15.69c0-2.17,1.76-3.92,3.92-3.92h92.17c2.17,0,3.92,1.76,3.92,3.92v15.69c0,2.17-1.76,3.92-3.92,3.92"/>
            <path class="uuid-477b8cd9-6a9b-4f43-8ce2-282a09d02ec0" d="m362.85,74.76h-92.17c-2.43,0-4.41-1.98-4.41-4.41v-15.69c0-2.43,1.98-4.41,4.41-4.41h92.17c2.43,0,4.41,1.98,4.41,4.41v15.69c0,2.43-1.98,4.41-4.41,4.41Zm-92.17-23.53c-1.89,0-3.43,1.54-3.43,3.43v15.69c0,1.89,1.54,3.43,3.43,3.43h92.17c1.89,0,3.43-1.54,3.43-3.43v-15.69c0-1.89-1.54-3.43-3.43-3.43h-92.17Z"/>
          </g>
        </g>
        <path class="uuid-64fe39ed-6df9-41b4-a489-72b52cf654e8" d="m368.73,70.35h-92.17c-2.17,0-3.92-1.76-3.92-3.92v-15.69c0-2.17,1.76-3.92,3.92-3.92h92.17c2.17,0,3.92,1.76,3.92,3.92v15.69c0,2.17-1.76,3.92-3.92,3.92"/>
        <path class="uuid-91da7a90-34a6-4e52-9064-ad735595c749" d="m368.73,70.84h-92.17c-2.43,0-4.41-1.98-4.41-4.41v-15.69c0-2.43,1.98-4.41,4.41-4.41h92.17c2.43,0,4.41,1.98,4.41,4.41v15.69c0,2.43-1.98,4.41-4.41,4.41Zm-92.17-23.53c-1.89,0-3.43,1.54-3.43,3.43v15.69c0,1.89,1.54,3.43,3.43,3.43h92.17c1.89,0,3.43-1.54,3.43-3.43v-15.69c0-1.89-1.54-3.43-3.43-3.43h-92.17Z"/>
        <path class="uuid-1b86cfac-74c5-495e-bf8e-d1d23da20cb2" d="m289.8,65.93h-10.79c-1.08,0-1.96-.88-1.96-1.96v-10.79c0-1.08.88-1.96,1.96-1.96h10.79c1.08,0,1.96.88,1.96,1.96v10.79c0,1.08-.88,1.96-1.96,1.96"/>
        <path class="uuid-30b76d39-7482-4b66-820a-200fd1f2faed" d="m289.8,66.42h-10.79c-1.35,0-2.45-1.1-2.45-2.45v-10.79c0-1.35,1.1-2.45,2.45-2.45h10.79c1.35,0,2.45,1.1,2.45,2.45v10.79c0,1.35-1.1,2.45-2.45,2.45Zm-10.79-14.71c-.81,0-1.47.66-1.47,1.47v10.79c0,.81.66,1.47,1.47,1.47h10.79c.81,0,1.47-.66,1.47-1.47v-10.79c0-.81-.66-1.47-1.47-1.47h-10.79Z"/>
        <path class="uuid-30b76d39-7482-4b66-820a-200fd1f2faed" d="m284.48,63.48c-2.7,0-4.9-2.2-4.9-4.9s2.2-4.9,4.9-4.9c1.42,0,2.77.62,3.71,1.7.18.2.16.51-.05.69s-.51.16-.69-.05c-.75-.86-1.83-1.36-2.97-1.36-2.16,0-3.92,1.76-3.92,3.92s1.76,3.92,3.92,3.92c1.77,0,3.33-1.19,3.79-2.9.07-.26.34-.41.6-.34.26.07.42.34.34.6-.58,2.13-2.52,3.62-4.73,3.62Z"/>
        <path class="uuid-30b76d39-7482-4b66-820a-200fd1f2faed" d="m286.07,56.53c-.24,0-.46-.18-.49-.43-.03-.27.16-.51.43-.54l1.46-.18-.17-1.46c-.03-.27.16-.51.43-.54.26-.04.51.16.54.43l.23,1.95c.03.27-.16.51-.43.54l-1.95.23s-.04,0-.06,0Z"/>
        <path class="uuid-30b76d39-7482-4b66-820a-200fd1f2faed" d="m340.3,56.62h-39.22c-1.08,0-1.96-.88-1.96-1.96s.88-1.96,1.96-1.96h39.22c1.08,0,1.96.88,1.96,1.96s-.88,1.96-1.96,1.96"/>
        <path class="uuid-81d2159e-ab6c-4dd9-a988-6b41cc381cd3" d="m315.05,64.22h-14.22c-.95,0-1.72-.77-1.72-1.72s.77-1.72,1.72-1.72h14.22c.95,0,1.72.77,1.72,1.72s-.77,1.72-1.72,1.72"/>
        <path class="uuid-81d2159e-ab6c-4dd9-a988-6b41cc381cd3" d="m333.68,64.22h-10.3c-.95,0-1.72-.77-1.72-1.72s.77-1.72,1.72-1.72h10.3c.95,0,1.72.77,1.72,1.72s-.77,1.72-1.72,1.72"/>
        <path class="uuid-81d2159e-ab6c-4dd9-a988-6b41cc381cd3" d="m366.77,54.66c0,1.62-1.32,2.94-2.94,2.94s-2.94-1.32-2.94-2.94,1.32-2.94,2.94-2.94,2.94,1.32,2.94,2.94"/>
        <path class="uuid-64fe39ed-6df9-41b4-a489-72b52cf654e8" d="m362.85,102.7h-92.17c-2.17,0-3.92-1.76-3.92-3.92v-15.69c0-2.17,1.76-3.92,3.92-3.92h92.17c2.17,0,3.92,1.76,3.92,3.92v15.69c0,2.17-1.76,3.92-3.92,3.92"/>
        <path class="uuid-91da7a90-34a6-4e52-9064-ad735595c749" d="m362.85,103.19h-92.17c-2.43,0-4.41-1.98-4.41-4.41v-15.69c0-2.43,1.98-4.41,4.41-4.41h92.17c2.43,0,4.41,1.98,4.41,4.41v15.69c0,2.43-1.98,4.41-4.41,4.41Zm-92.17-23.53c-1.89,0-3.43,1.54-3.43,3.43v15.69c0,1.89,1.54,3.43,3.43,3.43h92.17c1.89,0,3.43-1.54,3.43-3.43v-15.69c0-1.89-1.54-3.43-3.43-3.43h-92.17Z"/>
        <path class="uuid-30b76d39-7482-4b66-820a-200fd1f2faed" d="m334.41,88.98h-39.22c-1.08,0-1.96-.88-1.96-1.96s.88-1.96,1.96-1.96h39.22c1.08,0,1.96.88,1.96,1.96s-.88,1.96-1.96,1.96"/>
        <path class="uuid-81d2159e-ab6c-4dd9-a988-6b41cc381cd3" d="m309.16,96.58h-14.22c-.95,0-1.72-.77-1.72-1.72s.77-1.72,1.72-1.72h14.22c.95,0,1.72.77,1.72,1.72s-.77,1.72-1.72,1.72"/>
        <path class="uuid-81d2159e-ab6c-4dd9-a988-6b41cc381cd3" d="m327.8,96.58h-10.3c-.95,0-1.72-.77-1.72-1.72s.77-1.72,1.72-1.72h10.3c.95,0,1.72.77,1.72,1.72s-.77,1.72-1.72,1.72"/>
        <path class="uuid-81d2159e-ab6c-4dd9-a988-6b41cc381cd3" d="m360.89,87.02c0,1.62-1.32,2.94-2.94,2.94s-2.94-1.32-2.94-2.94,1.32-2.94,2.94-2.94,2.94,1.32,2.94,2.94"/>
        <path class="uuid-63f0015d-bc5f-4b6e-80f0-0e47141810cb" d="m282.93,97.8h-8.83c-.81,0-1.47-.66-1.47-1.47v-8.33h11.77v8.33c0,.81-.66,1.47-1.47,1.47"/>
        <path class="uuid-81d2159e-ab6c-4dd9-a988-6b41cc381cd3" d="m282.93,98.29h-8.83c-1.08,0-1.96-.88-1.96-1.96v-8.33c0-.27.22-.49.49-.49h11.77c.27,0,.49.22.49.49v8.33c0,1.08-.88,1.96-1.96,1.96Zm-9.81-9.81v7.84c0,.54.44.98.98.98h8.83c.54,0,.98-.44.98-.98v-7.84h-10.79Z"/>
        <path class="uuid-64fe39ed-6df9-41b4-a489-72b52cf654e8" d="m281.71,97.8h-2.45v-4.41c0-.27.22-.49.49-.49h1.47c.27,0,.49.22.49.49v4.41Z"/>
        <path class="uuid-81d2159e-ab6c-4dd9-a988-6b41cc381cd3" d="m281.71,98.29h-2.45c-.27,0-.49-.22-.49-.49v-4.41c0-.54.44-.98.98-.98h1.47c.54,0,.98.44.98.98v4.41c0,.27-.22.49-.49.49Zm-1.96-.98h1.47v-3.92h-1.47v3.92Z"/>
        <path class="uuid-64fe39ed-6df9-41b4-a489-72b52cf654e8" d="m276.81,95.11h-1.47c-.27,0-.49-.22-.49-.49v-1.47c0-.27.22-.49.49-.49h1.47c.27,0,.49.22.49.49v1.47c0,.27-.22.49-.49.49"/>
        <path class="uuid-81d2159e-ab6c-4dd9-a988-6b41cc381cd3" d="m276.81,95.6h-1.47c-.54,0-.98-.44-.98-.98v-1.47c0-.54.44-.98.98-.98h1.47c.54,0,.98.44.98.98v1.47c0,.54-.44.98-.98.98Zm0-.98v.49-.49s0,0,0,0Zm-1.47-1.47v1.47h1.47v-1.47h-1.47Z"/>
        <path class="uuid-1b86cfac-74c5-495e-bf8e-d1d23da20cb2" d="m284.48,85.28c-.3-.73-1-1.2-1.77-1.2h-8.37c-.77,0-1.47.47-1.77,1.2l-1.29,2.45c-.1.25-.14.53-.08.79.2.83.93,1.44,1.79,1.44,1.02,0,1.85-.85,1.85-1.91,0,1.05.83,1.91,1.84,1.91s1.84-.85,1.84-1.91c0,1.05.83,1.91,1.84,1.91s1.85-.85,1.85-1.91c0,1.05.83,1.91,1.84,1.91.86,0,1.59-.61,1.79-1.44.06-.26.02-.54-.08-.79l-1.29-2.45Z"/>
        <path class="uuid-81d2159e-ab6c-4dd9-a988-6b41cc381cd3" d="m284.06,90.45c-.75,0-1.42-.36-1.84-.93-.43.56-1.1.93-1.85.93s-1.42-.36-1.84-.93c-.43.56-1.1.93-1.84.93s-1.42-.36-1.84-.93c-.43.56-1.1.93-1.85.93-1.08,0-2.01-.75-2.27-1.82-.08-.35-.05-.72.1-1.09l1.31-2.49c.36-.87,1.23-1.47,2.2-1.47h8.37c.96,0,1.83.58,2.21,1.49l1.28,2.43c.17.41.21.79.12,1.13-.26,1.07-1.19,1.82-2.27,1.82Zm-1.84-2.89c.27,0,.49.22.49.49,0,.78.61,1.42,1.35,1.42.62,0,1.16-.44,1.31-1.07.04-.14.02-.32-.06-.49l-1.27-2.41s-.01-.03-.02-.04c-.23-.55-.74-.9-1.32-.9h-8.37c-.57,0-1.09.35-1.32.9l-1.31,2.49c-.05.13-.07.3-.04.44.15.63.69,1.07,1.31,1.07.75,0,1.35-.63,1.35-1.42,0-.27.22-.49.49-.49s.49.22.49.49c0,.78.61,1.42,1.35,1.42s1.35-.63,1.35-1.42c0-.27.22-.49.49-.49s.49.22.49.49c0,.78.61,1.42,1.35,1.42s1.35-.63,1.35-1.42c0-.27.22-.49.49-.49Z"/>
        <path class="uuid-d9bdd211-f140-45da-b390-b888d2c77c9a" d="m275.79,84.07l-.96,3.98c0,1.05.83,1.91,1.84,1.91s1.84-.85,1.84-1.91v-3.98h-2.73Z"/>
        <path class="uuid-81d2159e-ab6c-4dd9-a988-6b41cc381cd3" d="m276.68,90.45c-1.29,0-2.33-1.07-2.33-2.4,0-.04,0-.08.01-.11l.96-3.98c.05-.22.25-.38.48-.38h2.73c.27,0,.49.22.49.49v3.98c0,1.32-1.05,2.4-2.33,2.4Zm-1.35-2.34c.03.76.62,1.36,1.35,1.36s1.35-.63,1.35-1.42v-3.49h-1.85l-.86,3.54Z"/>
        <path class="uuid-d9bdd211-f140-45da-b390-b888d2c77c9a" d="m284.06,89.96c.86,0,1.59-.61,1.79-1.44.06-.26.02-.54-.08-.79l-1.29-2.45c-.3-.73-1-1.21-1.77-1.21h-1.3l.8,3.98c0,1.05.83,1.91,1.84,1.91"/>
        <path class="uuid-81d2159e-ab6c-4dd9-a988-6b41cc381cd3" d="m284.06,90.45c-1.29,0-2.33-1.07-2.33-2.4l-.79-3.88c-.03-.14,0-.29.1-.41.09-.11.23-.18.38-.18h1.3c.97,0,1.84.59,2.22,1.51l1.27,2.41c.17.41.21.79.12,1.13-.26,1.07-1.19,1.82-2.27,1.82Zm-2.05-5.88l.68,3.39c0,.88.62,1.51,1.36,1.51.62,0,1.16-.44,1.31-1.07.04-.14.02-.32-.06-.48l-1.27-2.41c-.25-.59-.76-.94-1.34-.94h-.7Z"/>
        <path class="uuid-64fe39ed-6df9-41b4-a489-72b52cf654e8" d="m366.77,125.26v-9.81c0-2.17-1.76-3.92-3.92-3.92h-92.17c-2.17,0-3.92,1.76-3.92,3.92v9.81h100.02Z"/>
        <path class="uuid-91da7a90-34a6-4e52-9064-ad735595c749" d="m366.77,125.75c-.27,0-.49-.22-.49-.49v-9.81c0-1.89-1.54-3.43-3.43-3.43h-92.17c-1.89,0-3.43,1.54-3.43,3.43v9.81c0,.27-.22.49-.49.49s-.49-.22-.49-.49v-9.81c0-2.43,1.98-4.41,4.41-4.41h92.17c2.43,0,4.41,1.98,4.41,4.41v9.81c0,.27-.22.49-.49.49Z"/>
        <path class="uuid-30b76d39-7482-4b66-820a-200fd1f2faed" d="m334.41,121.34h-39.22c-1.08,0-1.96-.88-1.96-1.96s.88-1.96,1.96-1.96h39.22c1.08,0,1.96.88,1.96,1.96s-.88,1.96-1.96,1.96"/>
        <path class="uuid-81d2159e-ab6c-4dd9-a988-6b41cc381cd3" d="m360.89,119.37c0,1.62-1.32,2.94-2.94,2.94s-2.94-1.32-2.94-2.94,1.32-2.94,2.94-2.94,2.94,1.32,2.94,2.94"/>
        <rect class="uuid-63f0015d-bc5f-4b6e-80f0-0e47141810cb" x="272.64" y="120.35" width="11.77" height="4.9"/>
        <path class="uuid-81d2159e-ab6c-4dd9-a988-6b41cc381cd3" d="m284.4,125.75c-.27,0-.49-.22-.49-.49v-4.41h-10.79v4.41c0,.27-.22.49-.49.49s-.49-.22-.49-.49v-4.9c0-.27.22-.49.49-.49h11.77c.27,0,.49.22.49.49v4.9c0,.27-.22.49-.49.49Z"/>
        <path class="uuid-1b86cfac-74c5-495e-bf8e-d1d23da20cb2" d="m284.48,117.64c-.3-.73-1-1.2-1.77-1.2h-8.37c-.77,0-1.47.47-1.77,1.2l-1.29,2.45c-.1.25-.14.53-.08.79.2.83.93,1.44,1.79,1.44,1.02,0,1.85-.85,1.85-1.91,0,1.05.83,1.91,1.84,1.91s1.84-.85,1.84-1.91c0,1.05.83,1.91,1.84,1.91s1.85-.85,1.85-1.91c0,1.05.83,1.91,1.84,1.91.86,0,1.59-.61,1.79-1.44.06-.26.02-.54-.08-.79l-1.29-2.45Z"/>
        <path class="uuid-81d2159e-ab6c-4dd9-a988-6b41cc381cd3" d="m284.06,122.81c-.75,0-1.42-.36-1.84-.93-.43.56-1.1.93-1.85.93s-1.42-.36-1.84-.93c-.43.56-1.1.93-1.84.93s-1.42-.36-1.84-.93c-.43.56-1.1.93-1.85.93-1.08,0-2.01-.75-2.27-1.82-.08-.35-.05-.72.1-1.09l1.31-2.49c.36-.87,1.23-1.47,2.2-1.47h8.37c.96,0,1.83.58,2.21,1.49l1.28,2.43c.17.41.21.79.12,1.13-.26,1.07-1.19,1.82-2.27,1.82Zm-1.84-2.89c.27,0,.49.22.49.49,0,.78.61,1.42,1.35,1.42.62,0,1.16-.44,1.31-1.07.04-.14.02-.32-.06-.49l-1.27-2.41s-.01-.03-.02-.04c-.23-.55-.74-.9-1.32-.9h-8.37c-.57,0-1.09.35-1.32.9l-1.31,2.49c-.05.13-.07.3-.04.44.15.63.69,1.07,1.31,1.07.75,0,1.35-.63,1.35-1.42,0-.27.22-.49.49-.49s.49.22.49.49c0,.78.61,1.42,1.35,1.42s1.35-.63,1.35-1.42c0-.27.22-.49.49-.49s.49.22.49.49c0,.78.61,1.42,1.35,1.42s1.35-.63,1.35-1.42c0-.27.22-.49.49-.49Z"/>
        <path class="uuid-d9bdd211-f140-45da-b390-b888d2c77c9a" d="m275.79,116.43l-.96,3.98c0,1.05.83,1.91,1.84,1.91s1.84-.85,1.84-1.91v-3.98h-2.73Z"/>
        <path class="uuid-81d2159e-ab6c-4dd9-a988-6b41cc381cd3" d="m276.68,122.81c-1.29,0-2.33-1.07-2.33-2.4,0-.04,0-.08.01-.11l.96-3.98c.05-.22.25-.38.48-.38h2.73c.27,0,.49.22.49.49v3.98c0,1.32-1.05,2.4-2.33,2.4Zm-1.35-2.34c.03.76.62,1.36,1.35,1.36s1.35-.63,1.35-1.42v-3.49h-1.85l-.86,3.54Z"/>
        <path class="uuid-d9bdd211-f140-45da-b390-b888d2c77c9a" d="m284.06,122.32c.86,0,1.59-.61,1.79-1.44.06-.26.02-.54-.08-.79l-1.29-2.45c-.3-.73-1-1.21-1.77-1.21h-1.3l.8,3.98c0,1.05.83,1.91,1.84,1.91"/>
        <path class="uuid-81d2159e-ab6c-4dd9-a988-6b41cc381cd3" d="m284.06,122.81c-1.29,0-2.33-1.07-2.33-2.4l-.79-3.88c-.03-.14,0-.29.1-.41.09-.11.23-.18.38-.18h1.3c.97,0,1.84.59,2.22,1.51l1.27,2.41c.17.41.21.79.12,1.13-.26,1.07-1.19,1.82-2.27,1.82Zm-2.05-5.88l.68,3.39c0,.88.62,1.51,1.36,1.51.62,0,1.16-.44,1.31-1.07.04-.14.02-.32-.06-.48l-1.27-2.41c-.25-.59-.76-.94-1.34-.94h-.7Z"/>
        <path class="uuid-91da7a90-34a6-4e52-9064-ad735595c749" d="m374.13,125.75h-112.76c-.27,0-.49-.22-.49-.49s.22-.49.49-.49h112.76c.27,0,.49.22.49.49s-.22.49-.49.49Z"/>
      </g>
      <g>
        <path class="uuid-73c3a267-cdb4-4cac-8f31-79038320daf0" d="m548.97,63.19l-19.8.86c-2.03.09-3.79,1.14-4.87,2.7-2.98-6.38-5.57-10.07-8.41-11.94.35-1.21.48-2.55.48-3.58-.02-5.44-3.99-9.44-9.43-9.51-.2,0-.41,0-.61,0-5.31.23-9.14,3.96-9.1,8.86,0,.67.17,1.32.48,1.9-.32.78-.4,1.64-.22,2.46-1.47.69-2.47,2.22-2.39,3.94l2.45,4.62-9.57,12.45c-.3.21-.58.43-.85.65-.83.67-1.43,1.47-1.8,2.37-.41.86-.62,1.79-.6,2.74-.51.69-.98,1.32-1.25,1.69-.63.84-1.06,1.75-1.3,2.68-.12,0-.23,0-.35,0-1.3.06-2.52.51-3.53,1.3-1.55.99-2.54,3-2.94,6.03,0,.02,0,.05,0,.07-.27,2.1-.15,3.81.37,5.11-.5.11-1,.24-1.49.4-1.24.4-2.22,1.37-2.64,2.6-.06.17-.11.35-.14.53-3.86,2.54-6.2,6.95-5.99,11.8.32,7.41,6.61,13.17,14.02,12.85,7.2-.31,12.85-6.26,12.86-13.4.08-.08.16-.17.24-.26l2.52-.11c1.29,2.5,3.95,4.16,6.94,4.03l4.37-.19c1.23-.05,2.42-.42,3.46-1.03,1.89,5.48,7.22,9.32,13.3,9.06,7.41-.32,13.17-6.61,12.85-14.02-.07-1.58-.41-3.08-.97-4.47,1.39-1.13,1.91-3.06,1.22-4.77-.72-1.79-1.64-3.45-2.71-4.9.14-.11.27-.23.4-.35l1.96-1.87.43-.02c1.46-.06,2.74-.76,3.61-1.8l10.32-.45c3.45-.15,6.14-3.08,5.99-6.54l-.72-16.52c-.15-3.45-3.08-6.14-6.54-5.99Zm-53.59,24.21c-.01.14-.03.28-.03.42-.05-.11-.11-.21-.16-.32.07-.03.13-.06.2-.1Z"/>
        <g>
          <path class="uuid-178193d6-948f-4538-b0ce-8a2f3aad3a06" d="m492.27,77.86s-1.82.76-3.37,2.02c-.95.77-.79,1.53-.37,2.56.42,1.04.9,1.04,1.84,1.29.47.13.86-.66.23-1.02-.66-.37-.07-1.72.71-1.43.61.23,1.07.44,1.56.04.49-.4,1.28-1.53.97-2.42-.42-1.19-1.58-1.05-1.58-1.05"/>
          <path class="uuid-a11a6586-801e-432d-a696-d2a459ec2daa" d="m492.27,77.86s-1.82.76-3.37,2.02c-.95.77-.79,1.53-.37,2.56.42,1.04.9,1.04,1.84,1.29.47.13.86-.66.23-1.02-.66-.37-.07-1.72.71-1.43.61.23,1.07.44,1.56.04.49-.4,1.28-1.53.97-2.42-.42-1.19-1.58-1.05-1.58-1.05Z"/>
          <path class="uuid-63f0015d-bc5f-4b6e-80f0-0e47141810cb" d="m506.77,59.44l-7.2,8.57c-1.07,1.36-.84,3.33.52,4.4,1.36,1.07,3.24.96,4.93-.8,5.21-5.41,5.43-6.02,6.36-7.66.34-.6.55-1.23.56-1.83.06-3.07-2.97-5.24-5.17-2.68"/>
          <g class="uuid-42d24e63-f22c-41bd-937b-d769d05879db">
            <g class="uuid-7e21ee7c-79b8-4a2d-b601-54ae2cb410c6">
              <path class="uuid-477b8cd9-6a9b-4f43-8ce2-282a09d02ec0" d="m506.77,59.44l-7.2,8.57c-1.07,1.36-.84,3.33.52,4.4,1.36,1.07,3.24.96,4.93-.8,5.21-5.41,5.43-6.02,6.36-7.66.34-.6.55-1.23.56-1.83.06-3.07-2.97-5.24-5.17-2.68"/>
            </g>
          </g>
          <path class="uuid-a11a6586-801e-432d-a696-d2a459ec2daa" d="m505.77,60.63l-5.98,7.6c-1.07,1.36-1.07,3.1.29,4.18,1.36,1.07,3.12,1.05,4.93-.8,5.25-5.37,5.43-6.02,6.36-7.66.34-.6.52-1.23.56-1.83.04-.63-.1-1.57-.74-2.49"/>
          <path class="uuid-63f0015d-bc5f-4b6e-80f0-0e47141810cb" d="m504.14,67.73c-1.11-1.06-3.36-.3-4.1.5-.87.93-8.49,9.3-8.68,9.54.47,1.05,2.03,2.32,2.71,2.22l9.89-7.8c1.52-1.19,1.29-3.41.18-4.47"/>
          <g class="uuid-42d24e63-f22c-41bd-937b-d769d05879db">
            <g class="uuid-0dc6c28f-5ee0-432b-9beb-95031f38ab9a">
              <path class="uuid-477b8cd9-6a9b-4f43-8ce2-282a09d02ec0" d="m504.14,67.73c-1.11-1.06-3.36-.3-4.1.5-.87.93-8.49,9.3-8.68,9.54.47,1.05,2.03,2.32,2.71,2.22l9.89-7.8c1.52-1.19,1.29-3.41.18-4.47"/>
            </g>
          </g>
          <path class="uuid-a11a6586-801e-432d-a696-d2a459ec2daa" d="m499.8,68.17c-.15.17-.61.69-.85.98-2.13,2.53-7.44,8.42-7.59,8.62.48,1.03,1.92,2.29,2.71,2.22l10.62-8.18"/>
          <path class="uuid-bf67e8fa-6437-4807-9dbd-d1639ed7e8b3" d="m516.46,81.64h0c-1.04-1.98-3.62-3.12-6.34-1.77-4.62,2.3-4.71,2.47-9.27,4.87-2.14,1.12-2.75,3.6-1.67,5.43,1.08,1.83,2.66,2.32,5.02,1.41l10.12-3.82c2.65-1.04,3.18-4.14,2.15-6.12"/>
          <path class="uuid-a11a6586-801e-432d-a696-d2a459ec2daa" d="m512.35,79.29c-.71.02-1.46.21-2.23.59-4.62,2.3-4.71,2.47-9.27,4.87-2.14,1.12-2.75,3.6-1.67,5.43,1.08,1.83,2.66,2.32,5.02,1.42l11.48-4.36"/>
          <path class="uuid-bf67e8fa-6437-4807-9dbd-d1639ed7e8b3" d="m501.14,85.22c-1.6.69-2.95,2.46-1.61,5.13,1.34,2.67,5.06,9.12,7.1,14.48,1.4.31,3.95-.07,4.73-1.7-1.49-5.13-3.53-13.87-5.12-15.94-1.38-1.79-2.98-2.88-5.1-1.97"/>
          <path class="uuid-a11a6586-801e-432d-a696-d2a459ec2daa" d="m499.16,90.18c.18.39.29.55.52,1.01,1.34,2.67,5.1,8.66,6.94,13.64,1.3.39,4.05-.14,4.73-1.7-1.42-4.67-3.47-13.87-5.1-15.93-.07-.09-.15-.19-.23-.28"/>
          <path class="uuid-2c4928ef-045e-40b7-a1a3-16911db3163f" d="m486.75,95.12c-.3,2.25-3.98,3.61-6.23,3.32-1.09-.14-2.36-.93-1.9-4.39.46-3.46,1.89-3.89,2.97-3.74,2.24.3,5.45,2.57,5.16,4.81"/>
          <path class="uuid-1b86cfac-74c5-495e-bf8e-d1d23da20cb2" d="m478.62,94.05c-.46,3.46.82,4.24,1.9,4.39.05,0,.11,0,.16.01.55-1.01.98-2.4,1.19-3.97.21-1.57.14-3.03-.12-4.14-.05,0-.11-.02-.16-.03-1.09-.14-2.52.29-2.97,3.74"/>
          <path class="uuid-a11a6586-801e-432d-a696-d2a459ec2daa" d="m478.62,94.05c-.46,3.46.82,4.24,1.9,4.39.05,0,.11,0,.16.01.55-1.01.98-2.4,1.19-3.97.21-1.57.14-3.03-.12-4.14-.05,0-.11-.02-.16-.03-1.09-.14-2.52.29-2.97,3.74Z"/>
          <path class="uuid-d9bdd211-f140-45da-b390-b888d2c77c9a" d="m480.25,94.27c-.24,1.8-.79,3.2-1.24,3.14-.45-.06-.62-1.56-.38-3.36.24-1.8.79-3.2,1.24-3.14.45.06.62,1.56.38,3.36"/>
          <path class="uuid-a11a6586-801e-432d-a696-d2a459ec2daa" d="m486.75,95.12c-.3,2.25-3.98,3.61-6.23,3.32-1.09-.14-2.36-.93-1.9-4.39.46-3.46,1.89-3.89,2.97-3.74,2.24.3,5.45,2.57,5.16,4.81Z"/>
          <path class="uuid-930f810b-030f-4be0-83e1-572f2db101b8" d="m521.32,102.21c-5.13.22-9.1,4.56-8.88,9.69s4.56,9.1,9.69,8.88c5.13-.22,9.1-4.56,8.88-9.69-.22-5.13-4.56-9.1-9.69-8.88m.62,14.2c-2.71.12-5.01-1.99-5.13-4.7s1.99-5.01,4.7-5.13,5.01,1.99,5.13,4.7c.12,2.71-1.99,5.01-4.7,5.13"/>
          <path class="uuid-a11a6586-801e-432d-a696-d2a459ec2daa" d="m521.32,102.21c-5.13.22-9.1,4.56-8.88,9.69s4.56,9.1,9.69,8.88c5.13-.22,9.1-4.56,8.88-9.69-.22-5.13-4.56-9.1-9.69-8.88Zm.62,14.2c-2.71.12-5.01-1.99-5.13-4.7s1.99-5.01,4.7-5.13,5.01,1.99,5.13,4.7c.12,2.71-1.99,5.01-4.7,5.13Z"/>
          <path class="uuid-63f0015d-bc5f-4b6e-80f0-0e47141810cb" d="m524.45,111.37c.07,1.51-1.1,2.78-2.61,2.85s-2.78-1.1-2.85-2.61,1.1-2.78,2.61-2.85,2.78,1.1,2.85,2.61"/>
          <path class="uuid-a11a6586-801e-432d-a696-d2a459ec2daa" d="m524.45,111.37c.07,1.51-1.1,2.78-2.61,2.85s-2.78-1.1-2.85-2.61,1.1-2.78,2.61-2.85,2.78,1.1,2.85,2.61Z"/>
          <path class="uuid-64fe39ed-6df9-41b4-a489-72b52cf654e8" d="m522.91,112.11h0c-.34.65-1.14.9-1.79.56l-12.1-6.3,1.22-2.35,12.1,6.3c.65.34.9,1.14.56,1.78"/>
          <path class="uuid-a11a6586-801e-432d-a696-d2a459ec2daa" d="m522.91,112.11h0c-.34.65-1.14.9-1.79.56l-12.1-6.3,1.22-2.35,12.1,6.3c.65.34.9,1.14.56,1.78Z"/>
          <path class="uuid-930f810b-030f-4be0-83e1-572f2db101b8" d="m477.63,104.11c-5.13.22-9.1,4.56-8.88,9.69.22,5.13,4.56,9.1,9.69,8.88,5.13-.22,9.1-4.56,8.88-9.69s-4.56-9.1-9.69-8.88m.62,14.2c-2.71.12-5.01-1.99-5.13-4.7-.12-2.71,1.99-5.01,4.7-5.13,2.71-.12,5.01,1.99,5.13,4.7.12,2.71-1.99,5.01-4.7,5.13"/>
          <path class="uuid-a11a6586-801e-432d-a696-d2a459ec2daa" d="m477.63,104.11c-5.13.22-9.1,4.56-8.88,9.69.22,5.13,4.56,9.1,9.69,8.88,5.13-.22,9.1-4.56,8.88-9.69s-4.56-9.1-9.69-8.88Zm.62,14.2c-2.71.12-5.01-1.99-5.13-4.7-.12-2.71,1.99-5.01,4.7-5.13,2.71-.12,5.01,1.99,5.13,4.7.12,2.71-1.99,5.01-4.7,5.13Z"/>
          <path class="uuid-63f0015d-bc5f-4b6e-80f0-0e47141810cb" d="m480.76,113.28c.07,1.51-1.1,2.78-2.61,2.85-1.51.07-2.78-1.1-2.85-2.61-.07-1.51,1.1-2.78,2.61-2.85s2.78,1.1,2.85,2.61"/>
          <path class="uuid-a11a6586-801e-432d-a696-d2a459ec2daa" d="m480.76,113.28c.07,1.51-1.1,2.78-2.61,2.85-1.51.07-2.78-1.1-2.85-2.61-.07-1.51,1.1-2.78,2.61-2.85s2.78,1.1,2.85,2.61Z"/>
          <path class="uuid-63f0015d-bc5f-4b6e-80f0-0e47141810cb" d="m477.55,102.47c-1.01.04-1.98.23-2.89.53.18.27.92,1.41,1.33,2.01.68,1.01,1.51,1.29,2.28,1.29.08,0,.15,0,.19,0,2.23.13,4.2,1.3,5.41,3.05.54.78,1.41,1.27,2.36,1.22l2.33-.1c-1.33-4.8-5.82-8.23-11-8"/>
          <path class="uuid-a11a6586-801e-432d-a696-d2a459ec2daa" d="m477.55,102.47c-1.01.04-1.98.23-2.89.53.18.27.92,1.41,1.33,2.01.68,1.01,1.51,1.29,2.28,1.29.08,0,.15,0,.19,0,2.23.13,4.2,1.3,5.41,3.05.54.78,1.41,1.27,2.36,1.22l2.33-.1c-1.33-4.8-5.82-8.23-11-8Z"/>
          <path class="uuid-63f0015d-bc5f-4b6e-80f0-0e47141810cb" d="m498.32,108.13l-2.77.12c-.58.03-1.08-.43-1.1-1.01l-.1-2.25c-.03-.58.43-1.08,1.01-1.1l2.77-.12.19,4.37Z"/>
          <path class="uuid-a11a6586-801e-432d-a696-d2a459ec2daa" d="m498.32,108.13l-2.77.12c-.58.03-1.08-.43-1.1-1.01l-.1-2.25c-.03-.58.43-1.08,1.01-1.1l2.77-.12.19,4.37Z"/>
          <path class="uuid-63f0015d-bc5f-4b6e-80f0-0e47141810cb" d="m505.5,109.74l-6.64.29c-1.46.06-2.7-1.07-2.76-2.53l-.13-2.9c-.06-1.46,1.07-2.7,2.53-2.76l6.64-.29.36,8.19Z"/>
          <g class="uuid-42d24e63-f22c-41bd-937b-d769d05879db">
            <g class="uuid-8c7f3b4b-8b50-446f-a01a-90fc1b84e706">
              <path class="uuid-477b8cd9-6a9b-4f43-8ce2-282a09d02ec0" d="m501.03,107.17c-1.07,1.99,2.12,2.09,4.43,1.62l-.32-7.25-5.77.25c2.06.36,3.53,1.88,1.66,5.38"/>
            </g>
          </g>
          <path class="uuid-a11a6586-801e-432d-a696-d2a459ec2daa" d="m505.5,109.74l-6.64.29c-1.46.06-2.7-1.07-2.76-2.53l-.13-2.9c-.06-1.46,1.07-2.7,2.53-2.76l6.64-.29.36,8.19Z"/>
          <path class="uuid-63f0015d-bc5f-4b6e-80f0-0e47141810cb" d="m527.67,97.32l-.18-4.14-5.46.24.05,1.18c-.36-.03-.73-.05-1.1-.04-4.42.19-8.09,4.05-9.77,9.55,2.21-3.15,5.81-5.27,9.95-5.45s7.91,1.62,10.39,4.57c-.96-2.39-2.3-4.41-3.88-5.9"/>
          <path class="uuid-a11a6586-801e-432d-a696-d2a459ec2daa" d="m527.67,97.32l-.18-4.14-5.46.24.05,1.18c-.36-.03-.73-.05-1.1-.04-4.42.19-8.09,4.05-9.77,9.55,2.21-3.15,5.81-5.27,9.95-5.45s7.91,1.62,10.39,4.57c-.96-2.39-2.3-4.41-3.88-5.9Z"/>
          <path class="uuid-63f0015d-bc5f-4b6e-80f0-0e47141810cb" d="m532.33,89.14l-2.78,2.66c-.34.32-.77.51-1.24.53l-4.14.18-.47,1.66,5.29-.23c.46-.02.9-.21,1.24-.53l3.23-3.08-1.13-1.19Z"/>
          <path class="uuid-56a107db-d2b3-4142-b2bb-8b5f3e29ec83" d="m532.33,89.14l-2.78,2.66c-.34.32-.77.51-1.24.53l-4.14.18-.47,1.66,5.29-.23c.46-.02.9-.21,1.24-.53l3.23-3.08-1.13-1.19Z"/>
          <path class="uuid-63f0015d-bc5f-4b6e-80f0-0e47141810cb" d="m535.3,90.38l-10.65.46.47-1.66,10.1-.44c.45-.02.84.33.85.78s-.33.84-.78.85"/>
          <path class="uuid-56a107db-d2b3-4142-b2bb-8b5f3e29ec83" d="m535.3,90.38l-10.65.46.47-1.66,10.1-.44c.45-.02.84.33.85.78s-.33.84-.78.85Z"/>
          <path class="uuid-2c4928ef-045e-40b7-a1a3-16911db3163f" d="m549.23,88.13l-19.8.86c-1.17.05-2.16-.85-2.21-2.02l-.72-16.52c-.05-1.17.86-2.16,2.02-2.21l19.8-.86c1.17-.05,2.16.86,2.21,2.02l.72,16.52c.05,1.17-.86,2.16-2.02,2.21"/>
          <path class="uuid-63f0015d-bc5f-4b6e-80f0-0e47141810cb" d="m549.23,88.13l-19.8.86c-1.17.05-2.16-.85-2.21-2.02l-.1-2.25,24.03-1.05.1,2.25c.05,1.17-.86,2.16-2.02,2.21"/>
          <rect class="uuid-a11a6586-801e-432d-a696-d2a459ec2daa" x="526.85" y="67.8" width="24.05" height="20.77" rx="2.12" ry="2.12" transform="translate(-2.89 23.53) rotate(-2.49)"/>
          <path class="uuid-d9bdd211-f140-45da-b390-b888d2c77c9a" d="m540.01,71.89h-.1s-.46.02-.46.02l-5.32.23c-.08,0-.15.07-.15.16l.04.84c.04.92.72,1.4,1.9,1.35l4.2-.17c.44-.02.82.32.84.77s-.32.82-.77.84l-4.71.21c-.07,0-.13.05-.14.12l-.92,4.45s0,.09.03.13c.03.04.07.05.12.05l1.49-.06c.56-.02.81-.5.86-.75l.37-1.62,3-.13c1.77-.08,3.15-1.58,3.07-3.35s-1.58-3.15-3.35-3.07"/>
          <path class="uuid-2c4928ef-045e-40b7-a1a3-16911db3163f" d="m521.16,98.66c.11,0,.21,0,.32,0l-.19-4.33-15.57.79-17.76-2.16-2.95,6.18s.7.38,1.44.76c.74.38,1.33.04,1.73-.49.4-.53.82-.61,1.68-.41.86.19,8.08,1.69,10.16,2.11,2.08.42,4.57,1.45,3.17,5.42-1.03,2.93,3.72,1.81,6.3,1.01,1.6-4.96,6.15-8.64,11.67-8.88"/>
          <g class="uuid-42d24e63-f22c-41bd-937b-d769d05879db">
            <g class="uuid-517929ea-8656-495b-9ef7-8d748bfbf603">
              <path class="uuid-477b8cd9-6a9b-4f43-8ce2-282a09d02ec0" d="m502.58,98.88c-3.38-.61-16.07-2.87-16.07-2.87l-1.49,3.12s.7.38,1.44.76c.74.38,1.33.04,1.73-.49.4-.53.82-.61,1.68-.41.86.19,8.08,1.69,10.16,2.11,2.08.42,4.57,1.45,3.17,5.42-.58,1.64.67,2.01,2.33,1.88.13-.3.26-.59.37-.88,1.07-2.64,2.45-7.61-3.31-8.65"/>
            </g>
          </g>
          <path class="uuid-a11a6586-801e-432d-a696-d2a459ec2daa" d="m521.16,98.66c.11,0,.21,0,.32,0l-.19-4.33-15.57.79-17.76-2.16-2.95,6.18s.7.38,1.44.76c.74.38,1.33.04,1.73-.49.4-.53.82-.61,1.68-.41.86.19,8.08,1.69,10.16,2.11,2.08.42,4.57,1.45,3.17,5.42-1.03,2.93,3.72,1.81,6.3,1.01,1.6-4.96,6.15-8.64,11.67-8.88Z"/>
          <path class="uuid-930f810b-030f-4be0-83e1-572f2db101b8" d="m503.75,90.57c-1.46.06-1.37,1.02-.97,1.74.77,1.4,2.59,3.03,3.59,3.86.44.36.99.55,1.55.54,1.96-.05,6.67-.18,7.68-.3,1.01-.13,5.15-.82,7.84-1.27.71-.12,1.28-.64,1.47-1.34l1.22-4.57c.27-1-.66-1.9-1.65-1.62,0,0-4.77,1.26-7.06,1.82-2.29.56-5.78.82-8.15.92l-5.51.22Z"/>
          <path class="uuid-64fe39ed-6df9-41b4-a489-72b52cf654e8" d="m505.36,112.75l-4.37.19c-1.81.08-3.34-1.32-3.42-3.13s1.32-3.34,3.13-3.42l7.65-.33c1.35-.06,2.19,1.45,1.43,2.56l-1.85,2.71c-.58.85-1.53,1.38-2.56,1.42"/>
          <path class="uuid-a11a6586-801e-432d-a696-d2a459ec2daa" d="m505.36,112.75l-4.37.19c-1.81.08-3.34-1.32-3.42-3.13s1.32-3.34,3.13-3.42l7.65-.33c1.35-.06,2.19,1.45,1.43,2.56l-1.85,2.71c-.58.85-1.53,1.38-2.56,1.42Z"/>
          <g class="uuid-42d24e63-f22c-41bd-937b-d769d05879db">
            <g class="uuid-4cde7620-3ec9-4f97-9c4a-04c4bcdaffbf">
              <path class="uuid-477b8cd9-6a9b-4f43-8ce2-282a09d02ec0" d="m502.76,109.58c.05,1.06-.77,1.95-1.83,2s-1.95-.77-1.99-1.83.77-1.95,1.83-1.99,1.95.77,2,1.83"/>
            </g>
          </g>
          <path class="uuid-64fe39ed-6df9-41b4-a489-72b52cf654e8" d="m488.55,90.82c-1.15-.67-1.53-.88-1.99-1.13l-.18-.1c-.57-.32-.93-.79-1.06-1.37-.15-.72.07-1.53.64-2.29.82-1.11,3.55-4.79,3.55-4.79l.88.65s-2.73,3.69-3.55,4.79c-.37.5-.53,1.01-.45,1.41.06.27.23.48.52.64l.18.1c.46.25.84.47,2,1.14l-.55.95Z"/>
          <path class="uuid-a11a6586-801e-432d-a696-d2a459ec2daa" d="m488.55,90.82c-1.15-.67-1.53-.88-1.99-1.13l-.18-.1c-.57-.32-.93-.79-1.06-1.37-.15-.72.07-1.53.64-2.29.82-1.11,3.55-4.79,3.55-4.79l.88.65s-2.73,3.69-3.55,4.79c-.37.5-.53,1.01-.45,1.41.06.27.23.48.52.64l.18.1c.46.25.84.47,2,1.14l-.55.95Z"/>
          <path class="uuid-64fe39ed-6df9-41b4-a489-72b52cf654e8" d="m491.85,81.58c.05,1.06-.77,1.95-1.83,2s-1.95-.77-1.99-1.83.77-1.95,1.83-1.99c1.06-.05,1.95.77,2,1.83"/>
          <path class="uuid-a11a6586-801e-432d-a696-d2a459ec2daa" d="m491.85,81.58c.05,1.06-.77,1.95-1.83,2s-1.95-.77-1.99-1.83.77-1.95,1.83-1.99c1.06-.05,1.95.77,2,1.83Z"/>
          <path class="uuid-64fe39ed-6df9-41b4-a489-72b52cf654e8" d="m491.85,83.75l-1.96-1.09c-.38-.21-.52-.7-.31-1.08l.03-.05c.21-.38.7-.52,1.08-.31l1.95,1.09c.38.21.52.7.31,1.08l-.03.05c-.21.38-.7.52-1.08.31"/>
          <path class="uuid-a11a6586-801e-432d-a696-d2a459ec2daa" d="m491.85,83.75l-1.96-1.09c-.38-.21-.52-.7-.31-1.08l.03-.05c.21-.38.7-.52,1.08-.31l1.95,1.09c.38.21.52.7.31,1.08l-.03.05c-.21.38-.7.52-1.08.31Z"/>
          <path class="uuid-178193d6-948f-4538-b0ce-8a2f3aad3a06" d="m493.44,78.76s-1.88.6-3.53,1.72c-1.01.69-.92,1.46-.59,2.52.33,1.07.81,1.11,1.72,1.44.46.17.92-.59.32-.99-.62-.42.08-1.72.83-1.36.59.28,1.03.53,1.55.18.52-.36,1.41-1.41,1.17-2.33-.31-1.23-1.48-1.18-1.48-1.18"/>
          <path class="uuid-a11a6586-801e-432d-a696-d2a459ec2daa" d="m493.44,78.76s-1.88.6-3.53,1.72c-1.01.69-.92,1.46-.59,2.52.33,1.07.81,1.11,1.72,1.44.46.17.92-.59.32-.99-.62-.42.08-1.72.83-1.36.59.28,1.03.53,1.55.18.52-.36,1.41-1.41,1.17-2.33-.31-1.23-1.48-1.18-1.48-1.18Z"/>
          <path class="uuid-64fe39ed-6df9-41b4-a489-72b52cf654e8" d="m477.79,113.94h0c-.4-.19-.56-.66-.37-1.06l10.52-22.05,1.43.68-10.52,22.05c-.19.4-.66.56-1.06.37"/>
          <path class="uuid-a11a6586-801e-432d-a696-d2a459ec2daa" d="m477.79,113.94h0c-.4-.19-.56-.66-.37-1.06l10.52-22.05,1.43.68-10.52,22.05c-.19.4-.66.56-1.06.37Z"/>
          <path class="uuid-64fe39ed-6df9-41b4-a489-72b52cf654e8" d="m488.85,92.08l-1.51-.72,1.41-2.96,1.51.72c.53.25.75.88.5,1.41l-.5,1.05c-.25.53-.88.75-1.41.5"/>
          <path class="uuid-a11a6586-801e-432d-a696-d2a459ec2daa" d="m488.85,92.08l-1.51-.72,1.41-2.96,1.51.72c.53.25.75.88.5,1.41l-.5,1.05c-.25.53-.88.75-1.41.5Z"/>
          <path class="uuid-2c4928ef-045e-40b7-a1a3-16911db3163f" d="m484.39,98.25l1.18-2.48-1.61-.54c-.46-.15-.88.32-.67.76l1.09,2.26Z"/>
          <path class="uuid-a11a6586-801e-432d-a696-d2a459ec2daa" d="m484.39,98.25l1.18-2.48-1.61-.54c-.46-.15-.88.32-.67.76l1.09,2.26Z"/>
          <g class="uuid-42d24e63-f22c-41bd-937b-d769d05879db">
            <g class="uuid-9c4838c7-72bd-4bde-a42d-98c14b11beb7">
              <path class="uuid-477b8cd9-6a9b-4f43-8ce2-282a09d02ec0" d="m484.39,98.25l1.18-2.48-1.61-.54c-.46-.15-.88.32-.67.76l1.09,2.26Z"/>
            </g>
          </g>
          <g class="uuid-3e0c3051-ce7c-41b5-bf19-c0b0c8ec3a1c">
            <g class="uuid-84b5e412-ee59-4788-abae-f6983035edbf">
              <path class="uuid-51079c9d-43ee-4beb-a726-f13391c2d329" d="m511.4,94.38c-2.06.5-2.61.47-4.2-.59-1.09-.73-3.14-2.15-4.33-2.99-.5.34-.37.98-.08,1.5.77,1.4,2.59,3.03,3.59,3.86.44.36.99.55,1.55.54,1.96-.05,6.67-.17,7.67-.3,1.01-.13,5.15-.82,7.84-1.28.71-.12,1.28-.64,1.47-1.34l1.22-4.57c.1-.38.03-.74-.15-1.03-3.15,2.48-11.26,5.39-14.58,6.18"/>
            </g>
          </g>
          <path class="uuid-a11a6586-801e-432d-a696-d2a459ec2daa" d="m503.75,90.57c-1.46.06-1.37,1.02-.97,1.74.77,1.4,2.59,3.03,3.59,3.86.44.36.99.55,1.55.54,1.96-.05,6.67-.18,7.68-.3,1.01-.13,5.15-.82,7.84-1.27.71-.12,1.28-.64,1.47-1.34l1.22-4.57c.27-1-.66-1.9-1.65-1.62,0,0-4.77,1.26-7.06,1.82-2.29.56-5.78.82-8.15.92l-5.51.22Z"/>
          <path class="uuid-178193d6-948f-4538-b0ce-8a2f3aad3a06" d="m506.7,60.37c.12.28.39.48.72.53.46.07,1.19.03,2.1-.49.91-.52,1.32-1.12,1.5-1.55.13-.31.1-.64-.09-.89l-3.41-4.35-2.93,1.66,2.11,5.09Z"/>
          <path class="uuid-a11a6586-801e-432d-a696-d2a459ec2daa" d="m506.7,60.37c.12.28.39.48.72.53.46.07,1.19.03,2.1-.49.91-.52,1.32-1.12,1.5-1.55.13-.31.1-.64-.09-.89l-3.41-4.35-2.93,1.66,2.11,5.09Z"/>
          <path class="uuid-178193d6-948f-4538-b0ce-8a2f3aad3a06" d="m500.71,54.13l1.02-1.57c.01-1.82,1.24-3.46,3.09-3.92,2.18-.54,4.4.79,4.94,2.97.54,2.18-.78,4.41-2.97,4.94-3.29.81-4.17.71-4.79-2.39l-1.29-.03Z"/>
          <path class="uuid-a11a6586-801e-432d-a696-d2a459ec2daa" d="m508.45,55.69l.25-.24c.96-.98,1.4-2.42,1.05-3.84-.54-2.18-2.76-3.51-4.94-2.97-1.84.46-3.08,2.11-3.09,3.92-.37.56-1.01,1.57-1.01,1.57,0,0,.8.06,1.29.03.59,2.7,1.16,3.06,3.8,2.61l.27-.05"/>
          <path class="uuid-91da7a90-34a6-4e52-9064-ad735595c749" d="m502.7,53.1h0c.14,0,.26-.1.27-.24v-.23c.01-.14-.1-.26-.24-.27-.14,0-.26.1-.27.24v.23c-.01.14.1.26.24.27"/>
          <path class="uuid-071d29ec-d41e-4327-96fd-56b43dc6835f" d="m502.19,50.45c-.38-.07-.56-.52-.32-.98.31-.58,1.24-1.46,3.02-1.7,2.22-.3,3.96.72,4.82,2.14.85,1.42.39,1.69.16,1.72-.21.02-.43-.2-.43-.2,0,0,.4.77-.23.95-.57.17-.96-.58-1.26-1.15.22.44.03.8-.32.91-.43.13-.71-.24-1.19-.84-.47-.59-1.3-1.16-2.39-1.13-1.31.03-1.5.35-1.86.28"/>
          <path class="uuid-a11a6586-801e-432d-a696-d2a459ec2daa" d="m502.19,50.45c-.38-.07-.56-.52-.32-.98.31-.58,1.24-1.46,3.02-1.7,2.22-.3,3.96.72,4.82,2.14.85,1.42.39,1.69.16,1.72-.21.02-.43-.2-.43-.2,0,0,.4.77-.23.95-.57.17-.96-.58-1.26-1.15.22.44.03.8-.32.91-.43.13-.71-.24-1.19-.84-.47-.59-1.3-1.16-2.39-1.13-1.31.03-1.5.35-1.86.28Z"/>
          <path class="uuid-2c4928ef-045e-40b7-a1a3-16911db3163f" d="m511.39,51.29c-.01-3.38-2.36-5.34-5.33-5.37-2.72-.03-5.53,1.57-5.51,4.69.71.89,2.03.73,2.87.53,1.25-.3,2.48.19,2.75,1.74.36,2.05,2.46,2.93,4.69,1.4.28-.55.53-1.8.53-2.99"/>
          <path class="uuid-a11a6586-801e-432d-a696-d2a459ec2daa" d="m511.39,51.29c-.01-3.38-2.36-5.34-5.33-5.37-2.72-.03-5.53,1.57-5.51,4.69.71.89,2.03.73,2.87.53,1.25-.3,2.48.19,2.75,1.74.36,2.05,2.46,2.93,4.69,1.4.28-.55.53-1.8.53-2.99Z"/>
          <path class="uuid-30b76d39-7482-4b66-820a-200fd1f2faed" d="m519.42,88.84l-2.06.53-5.49-7.46,9.75-3.27,1.21,3.61c.9,2.67-.55,5.73-3.41,6.59"/>
          <path class="uuid-a11a6586-801e-432d-a696-d2a459ec2daa" d="m519.42,88.84l-2.06.53-5.49-7.46,9.75-3.27,1.21,3.61c.9,2.67-.55,5.73-3.41,6.59Z"/>
          <path class="uuid-30b76d39-7482-4b66-820a-200fd1f2faed" d="m519.03,83.87h0c-.81-2.09-3.25-3.5-6.11-2.46-4.84,1.77-4.96,1.94-9.75,3.81-2.25.88-3.13,3.27-2.26,5.21.87,1.94,2.39,2.6,4.83,1.96l10.48-2.68c2.75-.74,3.62-3.77,2.81-5.85"/>
          <g class="uuid-42d24e63-f22c-41bd-937b-d769d05879db">
            <g class="uuid-d5ff153c-df2f-411e-ad1c-e04b88ce5e7a">
              <path class="uuid-477b8cd9-6a9b-4f43-8ce2-282a09d02ec0" d="m509.83,82.51s1.79-.01,4.05,1.16c2.19,1.14,4.42,1.27,6.28,1,1.58-.23,2.71-1.3,2.71-1.3,0,0-.02-.62-.46-1.53-.63-1.29-10.84-.46-10.84-.46l-1.73,1.13Z"/>
            </g>
          </g>
          <path class="uuid-a11a6586-801e-432d-a696-d2a459ec2daa" d="m515.2,81.07c-.71-.05-1.48.04-2.28.34-4.84,1.77-4.96,1.94-9.75,3.81-2.25.88-3.13,3.27-2.26,5.21.87,1.94,2.39,2.6,4.83,1.96l11.98-3.1"/>
          <path class="uuid-d9bdd211-f140-45da-b390-b888d2c77c9a" d="m509.62,101.99l.1-.02c.84-.18,1.67.36,1.85,1.2l.89,4.19c.18.84-.36,1.67-1.2,1.85l-.1.02c-.84.18-1.67-.36-1.85-1.2l-.89-4.19c-.18-.84.36-1.67,1.2-1.85"/>
          <path class="uuid-a11a6586-801e-432d-a696-d2a459ec2daa" d="m510.4,101.89h.1c.86,0,1.55.7,1.55,1.55v4.28c0,.86-.7,1.56-1.56,1.56h-.1c-.86,0-1.56-.7-1.56-1.56v-4.28c0-.86.7-1.56,1.56-1.56Z" transform="translate(-10.79 109.35) rotate(-12.1)"/>
          <path class="uuid-30b76d39-7482-4b66-820a-200fd1f2faed" d="m503.11,85.73c-1.62.64-3.02,2.37-1.76,5.08,1.26,2.71,4.79,9.26,6.67,14.68,1.39.35,3.95.04,4.78-1.56-1.34-5.17-3.12-13.97-4.65-16.08-1.32-1.83-2.9-2.97-5.04-2.12"/>
          <path class="uuid-a11a6586-801e-432d-a696-d2a459ec2daa" d="m500.99,90.63c.17.4.27.56.49,1.02,1.27,2.71,4.84,8.81,6.54,13.83,1.29.43,4.05-.02,4.78-1.56-1.28-4.71-3.06-13.97-4.63-16.07-.07-.1-.15-.19-.22-.28"/>
          <path class="uuid-63f0015d-bc5f-4b6e-80f0-0e47141810cb" d="m507.49,59c-1.92,1.89-2.55,5.55-2.54,8.73.01,3.35,2.87,15.17,2.87,15.17,0,0,2.89-1.37,6.19-.43,2.37.67,4.72.62,6.38.25,2.21-.49,3.4-1.7,3.4-1.7,0,0-1.22-6.28-4-12.27-3.26-7.03-7.62-14.38-12.31-9.75"/>
          <path class="uuid-a11a6586-801e-432d-a696-d2a459ec2daa" d="m507.49,59c-1.92,1.89-2.55,5.55-2.54,8.73.01,3.35,2.87,15.17,2.87,15.17,0,0,2.89-1.37,6.19-.43,2.37.67,4.72.62,6.38.25,2.21-.49,3.4-1.7,3.4-1.7,0,0-1.22-6.28-4-12.27-3.26-7.03-7.62-14.38-12.31-9.75Z"/>
          <path class="uuid-63f0015d-bc5f-4b6e-80f0-0e47141810cb" d="m508.42,60.62l-6.68,8.98c-.99,1.42-.64,3.37.78,4.37,1.42.99,3.29.77,4.88-1.09,4.88-5.71,5.07-6.33,5.89-8.03.3-.62.47-1.26.45-1.86-.12-3.07-3.27-5.05-5.32-2.37"/>
          <path class="uuid-a11a6586-801e-432d-a696-d2a459ec2daa" d="m507.5,61.87l-5.52,7.94c-.99,1.42-.88,3.16.54,4.15,1.42.99,3.18.86,4.88-1.09,4.92-5.68,5.07-6.33,5.89-8.03.3-.62.45-1.26.45-1.86,0-.64-.19-1.56-.88-2.44"/>
          <path class="uuid-63f0015d-bc5f-4b6e-80f0-0e47141810cb" d="m506.36,69.59c-1.02-1.14-3.32-.56-4.13.17-.94.86-9.2,8.59-9.41,8.82.38,1.09,1.84,2.48,2.52,2.43l10.48-6.99c1.61-1.06,1.56-3.3.53-4.44"/>
          <path class="uuid-a11a6586-801e-432d-a696-d2a459ec2daa" d="m502,69.69c-.16.16-.66.64-.93.91-2.32,2.35-8.08,7.8-8.25,7.99.4,1.06,1.73,2.44,2.52,2.43l11.24-7.31"/>
          <path class="uuid-63f0015d-bc5f-4b6e-80f0-0e47141810cb" d="m505.91,62.16l-.31-3.21s.77-.95,2.54-1.74c1.78-.79,2.97-.55,2.97-.55l1.08,1.63s-2.02-.42-3.66.87c-1.64,1.29-2.63,3-2.63,3"/>
          <path class="uuid-a11a6586-801e-432d-a696-d2a459ec2daa" d="m505.87,62l-.27-3.05s.77-.95,2.54-1.74c1.78-.79,2.97-.55,2.97-.55l1.01,1.33"/>
          <path class="uuid-d9bdd211-f140-45da-b390-b888d2c77c9a" d="m503.4,109.35c-.58.08-.7.33-.7.33l-.09.88s2.4.3,5.38.58c2.99.29,5.06.5,5.06.5,0,0,.41-.56.06-1.04-.11-.15-9.07-1.34-9.7-1.26"/>
          <path class="uuid-a11a6586-801e-432d-a696-d2a459ec2daa" d="m503.4,109.35c-.58.08-.7.33-.7.33l-.09.88s2.4.3,5.38.58c2.99.29,5.06.5,5.06.5,0,0,.41-.56.06-1.04-.11-.15-9.07-1.34-9.7-1.26Z"/>
          <path class="uuid-d9bdd211-f140-45da-b390-b888d2c77c9a" d="m513.13,107.51c-.16.25-.59.67-1.41.68-.71,0-1.28-.37-1.66-.73l-.02-.64c-.04-.9-.61-1.4-1.54-1.37l-1.18.22.48,1.47-3.87,1.9,2.4.95s2.21.21,3.64.34c1.86.17,3.12.28,3.12.28,0,0,.26-1.65.03-3.1"/>
          <path class="uuid-a11a6586-801e-432d-a696-d2a459ec2daa" d="m513.13,107.51c-.16.25-.59.67-1.41.68-.71,0-1.28-.37-1.66-.73l-.02-.64c-.04-.9-.61-1.4-1.54-1.37l-1.18.22.48,1.47-3.87,1.9,2.4.95s2.21.21,3.64.34c1.86.17,3.12.28,3.12.28,0,0,.26-1.65.03-3.1Z"/>
          <path class="uuid-d9bdd211-f140-45da-b390-b888d2c77c9a" d="m502.88,109.62c.55.06,1.85.23,3.46.38-.05-.11-.49-1.14-1.81-1.26-1.25-.12-1.91.86-1.66.88"/>
          <path class="uuid-a11a6586-801e-432d-a696-d2a459ec2daa" d="m502.88,109.62c.55.06,1.85.23,3.46.38-.05-.11-.49-1.14-1.81-1.26-1.25-.12-1.91.86-1.66.88Z"/>
        </g>
      </g>
      <g>
        <path class="uuid-73c3a267-cdb4-4cac-8f31-79038320daf0" d="m1105.43,63.19l-19.8.86c-2.03.09-3.79,1.14-4.87,2.7-2.98-6.38-5.57-10.07-8.41-11.94.35-1.21.48-2.55.48-3.58-.02-5.44-3.99-9.44-9.43-9.51-.2,0-.41,0-.61,0-5.31.23-9.14,3.96-9.1,8.86,0,.67.17,1.32.48,1.9-.32.78-.4,1.64-.22,2.46-1.47.69-2.47,2.22-2.39,3.94l2.45,4.62-9.57,12.45c-.3.21-.58.43-.85.65-.83.67-1.43,1.47-1.8,2.37-.41.86-.62,1.79-.6,2.74-.51.69-.98,1.32-1.25,1.69-.63.84-1.06,1.75-1.3,2.68-.12,0-.23,0-.35,0-1.3.06-2.52.51-3.53,1.3-1.55.99-2.54,3-2.94,6.03,0,.02,0,.05,0,.07-.27,2.1-.15,3.81.37,5.11-.5.11-1,.24-1.49.4-1.24.4-2.22,1.37-2.64,2.6-.06.17-.11.35-.14.53-3.86,2.54-6.2,6.95-5.99,11.8.32,7.41,6.61,13.17,14.02,12.85,7.2-.31,12.85-6.26,12.86-13.4.08-.08.16-.17.24-.26l2.52-.11c1.29,2.5,3.95,4.16,6.94,4.03l4.37-.19c1.23-.05,2.42-.42,3.46-1.03,1.89,5.48,7.22,9.32,13.3,9.06,7.41-.32,13.17-6.61,12.85-14.02-.07-1.58-.41-3.08-.97-4.47,1.39-1.13,1.91-3.06,1.22-4.77-.72-1.79-1.64-3.45-2.71-4.9.14-.11.27-.23.4-.35l1.96-1.87.43-.02c1.46-.06,2.74-.76,3.61-1.8l10.32-.45c3.45-.15,6.14-3.08,5.99-6.54l-.72-16.52c-.15-3.45-3.08-6.14-6.54-5.99Zm-53.59,24.21c-.01.14-.03.28-.03.42-.05-.11-.11-.21-.16-.32.07-.03.13-.06.2-.1Z"/>
        <g>
          <path class="uuid-178193d6-948f-4538-b0ce-8a2f3aad3a06" d="m1048.73,77.86s-1.82.76-3.37,2.02c-.95.77-.79,1.53-.37,2.56.42,1.04.9,1.04,1.84,1.29.47.13.86-.66.23-1.02-.66-.37-.07-1.72.71-1.43.61.23,1.07.44,1.56.04.49-.4,1.28-1.53.97-2.42-.42-1.19-1.58-1.05-1.58-1.05"/>
          <path class="uuid-a11a6586-801e-432d-a696-d2a459ec2daa" d="m1048.73,77.86s-1.82.76-3.37,2.02c-.95.77-.79,1.53-.37,2.56.42,1.04.9,1.04,1.84,1.29.47.13.86-.66.23-1.02-.66-.37-.07-1.72.71-1.43.61.23,1.07.44,1.56.04.49-.4,1.28-1.53.97-2.42-.42-1.19-1.58-1.05-1.58-1.05Z"/>
          <path class="uuid-63f0015d-bc5f-4b6e-80f0-0e47141810cb" d="m1063.22,59.44l-7.2,8.57c-1.07,1.36-.84,3.33.52,4.4,1.36,1.07,3.24.96,4.93-.8,5.21-5.41,5.43-6.02,6.36-7.66.34-.6.55-1.23.56-1.83.06-3.07-2.97-5.24-5.17-2.68"/>
          <g class="uuid-42d24e63-f22c-41bd-937b-d769d05879db">
            <g class="uuid-3ccb3b57-2999-4e89-b57c-3a38d4db9f52">
              <path class="uuid-477b8cd9-6a9b-4f43-8ce2-282a09d02ec0" d="m1063.22,59.44l-7.2,8.57c-1.07,1.36-.84,3.33.52,4.4,1.36,1.07,3.24.96,4.93-.8,5.21-5.41,5.43-6.02,6.36-7.66.34-.6.55-1.23.56-1.83.06-3.07-2.97-5.24-5.17-2.68"/>
            </g>
          </g>
          <path class="uuid-a11a6586-801e-432d-a696-d2a459ec2daa" d="m1062.23,60.63l-5.98,7.6c-1.07,1.36-1.07,3.1.29,4.18,1.36,1.07,3.12,1.05,4.93-.8,5.25-5.37,5.43-6.02,6.36-7.66.34-.6.52-1.23.56-1.83.04-.63-.1-1.57-.74-2.49"/>
          <path class="uuid-63f0015d-bc5f-4b6e-80f0-0e47141810cb" d="m1060.6,67.73c-1.11-1.06-3.36-.3-4.1.5-.87.93-8.49,9.3-8.68,9.54.47,1.05,2.03,2.32,2.71,2.22l9.89-7.8c1.52-1.19,1.29-3.41.18-4.47"/>
          <g class="uuid-42d24e63-f22c-41bd-937b-d769d05879db">
            <g class="uuid-6af22146-26fb-433b-a1c0-d1afe44f37b2">
              <path class="uuid-477b8cd9-6a9b-4f43-8ce2-282a09d02ec0" d="m1060.6,67.73c-1.11-1.06-3.36-.3-4.1.5-.87.93-8.49,9.3-8.68,9.54.47,1.05,2.03,2.32,2.71,2.22l9.89-7.8c1.52-1.19,1.29-3.41.18-4.47"/>
            </g>
          </g>
          <path class="uuid-a11a6586-801e-432d-a696-d2a459ec2daa" d="m1056.26,68.17c-.15.17-.61.69-.85.98-2.13,2.53-7.44,8.42-7.59,8.62.48,1.03,1.92,2.29,2.71,2.22l10.62-8.18"/>
          <path class="uuid-bf67e8fa-6437-4807-9dbd-d1639ed7e8b3" d="m1072.92,81.64h0c-1.04-1.98-3.62-3.12-6.34-1.77-4.62,2.3-4.71,2.47-9.27,4.87-2.14,1.12-2.75,3.6-1.67,5.43,1.08,1.83,2.66,2.32,5.02,1.41l10.12-3.82c2.65-1.04,3.18-4.14,2.15-6.12"/>
          <path class="uuid-a11a6586-801e-432d-a696-d2a459ec2daa" d="m1068.8,79.29c-.71.02-1.46.21-2.23.59-4.62,2.3-4.71,2.47-9.27,4.87-2.14,1.12-2.75,3.6-1.67,5.43,1.08,1.83,2.66,2.32,5.02,1.42l11.48-4.36"/>
          <path class="uuid-bf67e8fa-6437-4807-9dbd-d1639ed7e8b3" d="m1057.6,85.22c-1.6.69-2.95,2.46-1.61,5.13,1.34,2.67,5.06,9.12,7.1,14.48,1.4.31,3.95-.07,4.73-1.7-1.49-5.13-3.53-13.87-5.12-15.94-1.38-1.79-2.98-2.88-5.1-1.97"/>
          <path class="uuid-a11a6586-801e-432d-a696-d2a459ec2daa" d="m1055.62,90.18c.18.39.29.55.52,1.01,1.34,2.67,5.1,8.66,6.94,13.64,1.3.39,4.05-.14,4.73-1.7-1.42-4.67-3.47-13.87-5.1-15.93-.07-.09-.15-.19-.23-.28"/>
          <path class="uuid-2c4928ef-045e-40b7-a1a3-16911db3163f" d="m1043.21,95.12c-.3,2.25-3.98,3.61-6.23,3.32-1.09-.14-2.36-.93-1.9-4.39.46-3.46,1.89-3.89,2.97-3.74,2.24.3,5.45,2.57,5.16,4.81"/>
          <path class="uuid-1b86cfac-74c5-495e-bf8e-d1d23da20cb2" d="m1035.08,94.05c-.46,3.46.82,4.24,1.9,4.39.05,0,.11,0,.16.01.55-1.01.98-2.4,1.19-3.97.21-1.57.14-3.03-.12-4.14-.05,0-.11-.02-.16-.03-1.09-.14-2.52.29-2.97,3.74"/>
          <path class="uuid-a11a6586-801e-432d-a696-d2a459ec2daa" d="m1035.08,94.05c-.46,3.46.82,4.24,1.9,4.39.05,0,.11,0,.16.01.55-1.01.98-2.4,1.19-3.97.21-1.57.14-3.03-.12-4.14-.05,0-.11-.02-.16-.03-1.09-.14-2.52.29-2.97,3.74Z"/>
          <path class="uuid-d9bdd211-f140-45da-b390-b888d2c77c9a" d="m1036.7,94.27c-.24,1.8-.79,3.2-1.24,3.14-.45-.06-.62-1.56-.38-3.36.24-1.8.79-3.2,1.24-3.14.45.06.62,1.56.38,3.36"/>
          <path class="uuid-a11a6586-801e-432d-a696-d2a459ec2daa" d="m1043.21,95.12c-.3,2.25-3.98,3.61-6.23,3.32-1.09-.14-2.36-.93-1.9-4.39.46-3.46,1.89-3.89,2.97-3.74,2.24.3,5.45,2.57,5.16,4.81Z"/>
          <path class="uuid-930f810b-030f-4be0-83e1-572f2db101b8" d="m1077.78,102.21c-5.13.22-9.1,4.56-8.88,9.69.22,5.13,4.56,9.1,9.69,8.88,5.13-.22,9.1-4.56,8.88-9.69-.22-5.13-4.56-9.1-9.69-8.88m.62,14.2c-2.71.12-5.01-1.99-5.13-4.7s1.99-5.01,4.7-5.13,5.01,1.99,5.13,4.7c.12,2.71-1.99,5.01-4.7,5.13"/>
          <path class="uuid-a11a6586-801e-432d-a696-d2a459ec2daa" d="m1077.78,102.21c-5.13.22-9.1,4.56-8.88,9.69.22,5.13,4.56,9.1,9.69,8.88,5.13-.22,9.1-4.56,8.88-9.69-.22-5.13-4.56-9.1-9.69-8.88Zm.62,14.2c-2.71.12-5.01-1.99-5.13-4.7s1.99-5.01,4.7-5.13,5.01,1.99,5.13,4.7c.12,2.71-1.99,5.01-4.7,5.13Z"/>
          <path class="uuid-63f0015d-bc5f-4b6e-80f0-0e47141810cb" d="m1080.91,111.37c.07,1.51-1.1,2.78-2.61,2.85s-2.78-1.1-2.85-2.61,1.1-2.78,2.61-2.85,2.78,1.1,2.85,2.61"/>
          <path class="uuid-a11a6586-801e-432d-a696-d2a459ec2daa" d="m1080.91,111.37c.07,1.51-1.1,2.78-2.61,2.85s-2.78-1.1-2.85-2.61,1.1-2.78,2.61-2.85,2.78,1.1,2.85,2.61Z"/>
          <path class="uuid-64fe39ed-6df9-41b4-a489-72b52cf654e8" d="m1079.37,112.11h0c-.34.65-1.14.9-1.79.56l-12.1-6.3,1.22-2.35,12.1,6.3c.65.34.9,1.14.56,1.78"/>
          <path class="uuid-a11a6586-801e-432d-a696-d2a459ec2daa" d="m1079.37,112.11h0c-.34.65-1.14.9-1.79.56l-12.1-6.3,1.22-2.35,12.1,6.3c.65.34.9,1.14.56,1.78Z"/>
          <path class="uuid-930f810b-030f-4be0-83e1-572f2db101b8" d="m1034.08,104.11c-5.13.22-9.1,4.56-8.88,9.69.22,5.13,4.56,9.1,9.69,8.88,5.13-.22,9.1-4.56,8.88-9.69s-4.56-9.1-9.69-8.88m.62,14.2c-2.71.12-5.01-1.99-5.13-4.7s1.99-5.01,4.7-5.13c2.71-.12,5.01,1.99,5.13,4.7.12,2.71-1.99,5.01-4.7,5.13"/>
          <path class="uuid-a11a6586-801e-432d-a696-d2a459ec2daa" d="m1034.08,104.11c-5.13.22-9.1,4.56-8.88,9.69.22,5.13,4.56,9.1,9.69,8.88,5.13-.22,9.1-4.56,8.88-9.69s-4.56-9.1-9.69-8.88Zm.62,14.2c-2.71.12-5.01-1.99-5.13-4.7s1.99-5.01,4.7-5.13c2.71-.12,5.01,1.99,5.13,4.7.12,2.71-1.99,5.01-4.7,5.13Z"/>
          <path class="uuid-63f0015d-bc5f-4b6e-80f0-0e47141810cb" d="m1037.22,113.28c.07,1.51-1.1,2.78-2.61,2.85-1.51.07-2.78-1.1-2.85-2.61s1.1-2.78,2.61-2.85,2.78,1.1,2.85,2.61"/>
          <path class="uuid-a11a6586-801e-432d-a696-d2a459ec2daa" d="m1037.22,113.28c.07,1.51-1.1,2.78-2.61,2.85-1.51.07-2.78-1.1-2.85-2.61s1.1-2.78,2.61-2.85,2.78,1.1,2.85,2.61Z"/>
          <path class="uuid-63f0015d-bc5f-4b6e-80f0-0e47141810cb" d="m1034.01,102.47c-1.01.04-1.98.23-2.89.53.18.27.92,1.41,1.33,2.01.68,1.01,1.51,1.29,2.28,1.29.08,0,.15,0,.19,0,2.23.13,4.2,1.3,5.41,3.05.54.78,1.41,1.27,2.36,1.22l2.33-.1c-1.33-4.8-5.82-8.23-11-8"/>
          <path class="uuid-a11a6586-801e-432d-a696-d2a459ec2daa" d="m1034.01,102.47c-1.01.04-1.98.23-2.89.53.18.27.92,1.41,1.33,2.01.68,1.01,1.51,1.29,2.28,1.29.08,0,.15,0,.19,0,2.23.13,4.2,1.3,5.41,3.05.54.78,1.41,1.27,2.36,1.22l2.33-.1c-1.33-4.8-5.82-8.23-11-8Z"/>
          <path class="uuid-63f0015d-bc5f-4b6e-80f0-0e47141810cb" d="m1054.78,108.13l-2.77.12c-.58.03-1.08-.43-1.1-1.01l-.1-2.25c-.03-.58.43-1.08,1.01-1.1l2.77-.12.19,4.37Z"/>
          <path class="uuid-a11a6586-801e-432d-a696-d2a459ec2daa" d="m1054.78,108.13l-2.77.12c-.58.03-1.08-.43-1.1-1.01l-.1-2.25c-.03-.58.43-1.08,1.01-1.1l2.77-.12.19,4.37Z"/>
          <path class="uuid-63f0015d-bc5f-4b6e-80f0-0e47141810cb" d="m1061.96,109.74l-6.64.29c-1.46.06-2.7-1.07-2.76-2.53l-.13-2.9c-.06-1.46,1.07-2.7,2.53-2.76l6.64-.29.36,8.19Z"/>
          <g class="uuid-42d24e63-f22c-41bd-937b-d769d05879db">
            <g class="uuid-54f1579d-c587-4f06-96d7-e45906ae00c7">
              <path class="uuid-477b8cd9-6a9b-4f43-8ce2-282a09d02ec0" d="m1057.49,107.17c-1.07,1.99,2.12,2.09,4.43,1.62l-.32-7.25-5.77.25c2.06.36,3.53,1.88,1.66,5.38"/>
            </g>
          </g>
          <path class="uuid-a11a6586-801e-432d-a696-d2a459ec2daa" d="m1061.96,109.74l-6.64.29c-1.46.06-2.7-1.07-2.76-2.53l-.13-2.9c-.06-1.46,1.07-2.7,2.53-2.76l6.64-.29.36,8.19Z"/>
          <path class="uuid-63f0015d-bc5f-4b6e-80f0-0e47141810cb" d="m1084.13,97.32l-.18-4.14-5.46.24.05,1.18c-.36-.03-.73-.05-1.1-.04-4.42.19-8.09,4.05-9.77,9.55,2.21-3.15,5.81-5.27,9.95-5.45s7.91,1.62,10.39,4.57c-.96-2.39-2.3-4.41-3.88-5.9"/>
          <path class="uuid-a11a6586-801e-432d-a696-d2a459ec2daa" d="m1084.13,97.32l-.18-4.14-5.46.24.05,1.18c-.36-.03-.73-.05-1.1-.04-4.42.19-8.09,4.05-9.77,9.55,2.21-3.15,5.81-5.27,9.95-5.45s7.91,1.62,10.39,4.57c-.96-2.39-2.3-4.41-3.88-5.9Z"/>
          <path class="uuid-63f0015d-bc5f-4b6e-80f0-0e47141810cb" d="m1088.79,89.14l-2.78,2.66c-.34.32-.77.51-1.24.53l-4.14.18-.47,1.66,5.29-.23c.46-.02.9-.21,1.24-.53l3.23-3.08-1.13-1.19Z"/>
          <path class="uuid-56a107db-d2b3-4142-b2bb-8b5f3e29ec83" d="m1088.79,89.14l-2.78,2.66c-.34.32-.77.51-1.24.53l-4.14.18-.47,1.66,5.29-.23c.46-.02.9-.21,1.24-.53l3.23-3.08-1.13-1.19Z"/>
          <path class="uuid-63f0015d-bc5f-4b6e-80f0-0e47141810cb" d="m1091.76,90.38l-10.65.46.47-1.66,10.1-.44c.45-.02.84.33.85.78s-.33.84-.78.85"/>
          <path class="uuid-56a107db-d2b3-4142-b2bb-8b5f3e29ec83" d="m1091.76,90.38l-10.65.46.47-1.66,10.1-.44c.45-.02.84.33.85.78s-.33.84-.78.85Z"/>
          <path class="uuid-2c4928ef-045e-40b7-a1a3-16911db3163f" d="m1105.69,88.13l-19.8.86c-1.17.05-2.16-.85-2.21-2.02l-.72-16.52c-.05-1.17.86-2.16,2.02-2.21l19.8-.86c1.17-.05,2.16.86,2.21,2.02l.72,16.52c.05,1.17-.86,2.16-2.02,2.21"/>
          <path class="uuid-63f0015d-bc5f-4b6e-80f0-0e47141810cb" d="m1105.69,88.13l-19.8.86c-1.17.05-2.16-.85-2.21-2.02l-.1-2.25,24.03-1.05.1,2.25c.05,1.17-.86,2.16-2.02,2.21"/>
          <rect class="uuid-a11a6586-801e-432d-a696-d2a459ec2daa" x="1083.31" y="67.8" width="24.05" height="20.77" rx="2.12" ry="2.12" transform="translate(-2.37 47.75) rotate(-2.49)"/>
          <path class="uuid-d9bdd211-f140-45da-b390-b888d2c77c9a" d="m1096.47,71.89h-.1s-.46.02-.46.02l-5.32.23c-.08,0-.15.07-.15.16l.04.84c.04.92.72,1.4,1.9,1.35l4.2-.17c.44-.02.82.32.84.77s-.32.82-.77.84l-4.71.21c-.07,0-.13.05-.14.12l-.92,4.45s0,.09.03.13c.03.04.07.05.12.05l1.49-.06c.56-.02.81-.5.86-.75l.37-1.62,3-.13c1.77-.08,3.15-1.58,3.07-3.35-.08-1.77-1.58-3.15-3.35-3.07"/>
          <path class="uuid-2c4928ef-045e-40b7-a1a3-16911db3163f" d="m1077.62,98.66c.11,0,.21,0,.32,0l-.19-4.33-15.57.79-17.76-2.16-2.95,6.18s.7.38,1.44.76c.74.38,1.33.04,1.73-.49.4-.53.82-.61,1.68-.41.86.19,8.08,1.69,10.16,2.11,2.08.42,4.57,1.45,3.17,5.42-1.03,2.93,3.72,1.81,6.3,1.01,1.6-4.96,6.15-8.64,11.67-8.88"/>
          <g class="uuid-42d24e63-f22c-41bd-937b-d769d05879db">
            <g class="uuid-639d7f90-9040-403b-ac8d-2c0cb8099c22">
              <path class="uuid-477b8cd9-6a9b-4f43-8ce2-282a09d02ec0" d="m1059.04,98.88c-3.38-.61-16.07-2.87-16.07-2.87l-1.49,3.12s.7.38,1.44.76c.74.38,1.33.04,1.73-.49.4-.53.82-.61,1.68-.41.86.19,8.08,1.69,10.16,2.11,2.08.42,4.57,1.45,3.17,5.42-.58,1.64.67,2.01,2.33,1.88.13-.3.26-.59.37-.88,1.07-2.64,2.45-7.61-3.31-8.65"/>
            </g>
          </g>
          <path class="uuid-a11a6586-801e-432d-a696-d2a459ec2daa" d="m1077.62,98.66c.11,0,.21,0,.32,0l-.19-4.33-15.57.79-17.76-2.16-2.95,6.18s.7.38,1.44.76c.74.38,1.33.04,1.73-.49.4-.53.82-.61,1.68-.41.86.19,8.08,1.69,10.16,2.11,2.08.42,4.57,1.45,3.17,5.42-1.03,2.93,3.72,1.81,6.3,1.01,1.6-4.96,6.15-8.64,11.67-8.88Z"/>
          <path class="uuid-930f810b-030f-4be0-83e1-572f2db101b8" d="m1060.21,90.57c-1.46.06-1.37,1.02-.97,1.74.77,1.4,2.59,3.03,3.59,3.86.44.36.99.55,1.55.54,1.96-.05,6.67-.18,7.68-.3,1.01-.13,5.15-.82,7.84-1.27.71-.12,1.28-.64,1.47-1.34l1.22-4.57c.27-1-.66-1.9-1.65-1.62,0,0-4.77,1.26-7.06,1.82-2.29.56-5.78.82-8.15.92l-5.51.22Z"/>
          <path class="uuid-64fe39ed-6df9-41b4-a489-72b52cf654e8" d="m1061.82,112.75l-4.37.19c-1.81.08-3.34-1.32-3.42-3.13-.08-1.81,1.32-3.34,3.13-3.42l7.65-.33c1.35-.06,2.19,1.45,1.43,2.56l-1.85,2.71c-.58.85-1.53,1.38-2.56,1.42"/>
          <path class="uuid-a11a6586-801e-432d-a696-d2a459ec2daa" d="m1061.82,112.75l-4.37.19c-1.81.08-3.34-1.32-3.42-3.13-.08-1.81,1.32-3.34,3.13-3.42l7.65-.33c1.35-.06,2.19,1.45,1.43,2.56l-1.85,2.71c-.58.85-1.53,1.38-2.56,1.42Z"/>
          <g class="uuid-42d24e63-f22c-41bd-937b-d769d05879db">
            <g class="uuid-14f413aa-04a0-453e-9d16-76ea29f1aad7">
              <path class="uuid-477b8cd9-6a9b-4f43-8ce2-282a09d02ec0" d="m1059.22,109.58c.05,1.06-.77,1.95-1.83,2s-1.95-.77-1.99-1.83.77-1.95,1.83-1.99,1.95.77,2,1.83"/>
            </g>
          </g>
          <path class="uuid-64fe39ed-6df9-41b4-a489-72b52cf654e8" d="m1045,90.82c-1.15-.67-1.53-.88-1.99-1.13l-.18-.1c-.57-.32-.93-.79-1.06-1.37-.15-.72.07-1.53.64-2.29.82-1.11,3.55-4.79,3.55-4.79l.88.65s-2.73,3.69-3.55,4.79c-.37.5-.53,1.01-.45,1.41.06.27.23.48.52.64l.18.1c.46.25.84.47,2,1.14l-.55.95Z"/>
          <path class="uuid-a11a6586-801e-432d-a696-d2a459ec2daa" d="m1045,90.82c-1.15-.67-1.53-.88-1.99-1.13l-.18-.1c-.57-.32-.93-.79-1.06-1.37-.15-.72.07-1.53.64-2.29.82-1.11,3.55-4.79,3.55-4.79l.88.65s-2.73,3.69-3.55,4.79c-.37.5-.53,1.01-.45,1.41.06.27.23.48.52.64l.18.1c.46.25.84.47,2,1.14l-.55.95Z"/>
          <path class="uuid-64fe39ed-6df9-41b4-a489-72b52cf654e8" d="m1048.31,81.58c.05,1.06-.77,1.95-1.83,2s-1.95-.77-1.99-1.83.77-1.95,1.83-1.99c1.06-.05,1.95.77,2,1.83"/>
          <path class="uuid-a11a6586-801e-432d-a696-d2a459ec2daa" d="m1048.31,81.58c.05,1.06-.77,1.95-1.83,2s-1.95-.77-1.99-1.83.77-1.95,1.83-1.99c1.06-.05,1.95.77,2,1.83Z"/>
          <path class="uuid-64fe39ed-6df9-41b4-a489-72b52cf654e8" d="m1048.31,83.75l-1.96-1.09c-.38-.21-.52-.7-.31-1.08l.03-.05c.21-.38.7-.52,1.08-.31l1.95,1.09c.38.21.52.7.31,1.08l-.03.05c-.21.38-.7.52-1.08.31"/>
          <path class="uuid-a11a6586-801e-432d-a696-d2a459ec2daa" d="m1048.31,83.75l-1.96-1.09c-.38-.21-.52-.7-.31-1.08l.03-.05c.21-.38.7-.52,1.08-.31l1.95,1.09c.38.21.52.7.31,1.08l-.03.05c-.21.38-.7.52-1.08.31Z"/>
          <path class="uuid-178193d6-948f-4538-b0ce-8a2f3aad3a06" d="m1049.89,78.76s-1.88.6-3.53,1.72c-1.01.69-.92,1.46-.59,2.52.33,1.07.81,1.11,1.72,1.44.46.17.92-.59.32-.99-.62-.42.08-1.72.83-1.36.59.28,1.03.53,1.55.18.52-.36,1.41-1.41,1.17-2.33-.31-1.23-1.48-1.18-1.48-1.18"/>
          <path class="uuid-a11a6586-801e-432d-a696-d2a459ec2daa" d="m1049.89,78.76s-1.88.6-3.53,1.72c-1.01.69-.92,1.46-.59,2.52.33,1.07.81,1.11,1.72,1.44.46.17.92-.59.32-.99-.62-.42.08-1.72.83-1.36.59.28,1.03.53,1.55.18.52-.36,1.41-1.41,1.17-2.33-.31-1.23-1.48-1.18-1.48-1.18Z"/>
          <path class="uuid-64fe39ed-6df9-41b4-a489-72b52cf654e8" d="m1034.24,113.94h0c-.4-.19-.56-.66-.37-1.06l10.52-22.05,1.43.68-10.52,22.05c-.19.4-.66.56-1.06.37"/>
          <path class="uuid-a11a6586-801e-432d-a696-d2a459ec2daa" d="m1034.24,113.94h0c-.4-.19-.56-.66-.37-1.06l10.52-22.05,1.43.68-10.52,22.05c-.19.4-.66.56-1.06.37Z"/>
          <path class="uuid-64fe39ed-6df9-41b4-a489-72b52cf654e8" d="m1045.31,92.08l-1.51-.72,1.41-2.96,1.51.72c.53.25.75.88.5,1.41l-.5,1.05c-.25.53-.88.75-1.41.5"/>
          <path class="uuid-a11a6586-801e-432d-a696-d2a459ec2daa" d="m1045.31,92.08l-1.51-.72,1.41-2.96,1.51.72c.53.25.75.88.5,1.41l-.5,1.05c-.25.53-.88.75-1.41.5Z"/>
          <path class="uuid-2c4928ef-045e-40b7-a1a3-16911db3163f" d="m1040.85,98.25l1.18-2.48-1.61-.54c-.46-.15-.88.32-.67.76l1.09,2.26Z"/>
          <path class="uuid-a11a6586-801e-432d-a696-d2a459ec2daa" d="m1040.85,98.25l1.18-2.48-1.61-.54c-.46-.15-.88.32-.67.76l1.09,2.26Z"/>
          <g class="uuid-42d24e63-f22c-41bd-937b-d769d05879db">
            <g class="uuid-25f6b724-76f3-474d-9326-97d6ebdc0e91">
              <path class="uuid-477b8cd9-6a9b-4f43-8ce2-282a09d02ec0" d="m1040.85,98.25l1.18-2.48-1.61-.54c-.46-.15-.88.32-.67.76l1.09,2.26Z"/>
            </g>
          </g>
          <g class="uuid-3e0c3051-ce7c-41b5-bf19-c0b0c8ec3a1c">
            <g class="uuid-cb56eae6-4c8a-430e-a8fa-769b6f21ddf1">
              <path class="uuid-51079c9d-43ee-4beb-a726-f13391c2d329" d="m1067.85,94.38c-2.06.5-2.61.47-4.2-.59-1.09-.73-3.14-2.15-4.33-2.99-.5.34-.37.98-.08,1.5.77,1.4,2.59,3.03,3.59,3.86.44.36.99.55,1.55.54,1.96-.05,6.67-.17,7.67-.3,1.01-.13,5.15-.82,7.84-1.28.71-.12,1.28-.64,1.47-1.34l1.22-4.57c.1-.38.03-.74-.15-1.03-3.15,2.48-11.26,5.39-14.58,6.18"/>
            </g>
          </g>
          <path class="uuid-a11a6586-801e-432d-a696-d2a459ec2daa" d="m1060.21,90.57c-1.46.06-1.37,1.02-.97,1.74.77,1.4,2.59,3.03,3.59,3.86.44.36.99.55,1.55.54,1.96-.05,6.67-.18,7.68-.3,1.01-.13,5.15-.82,7.84-1.27.71-.12,1.28-.64,1.47-1.34l1.22-4.57c.27-1-.66-1.9-1.65-1.62,0,0-4.77,1.26-7.06,1.82-2.29.56-5.78.82-8.15.92l-5.51.22Z"/>
          <path class="uuid-178193d6-948f-4538-b0ce-8a2f3aad3a06" d="m1063.16,60.37c.12.28.39.48.72.53.46.07,1.19.03,2.1-.49.91-.52,1.32-1.12,1.5-1.55.13-.31.1-.64-.09-.89l-3.41-4.35-2.93,1.66,2.11,5.09Z"/>
          <path class="uuid-a11a6586-801e-432d-a696-d2a459ec2daa" d="m1063.16,60.37c.12.28.39.48.72.53.46.07,1.19.03,2.1-.49.91-.52,1.32-1.12,1.5-1.55.13-.31.1-.64-.09-.89l-3.41-4.35-2.93,1.66,2.11,5.09Z"/>
          <path class="uuid-178193d6-948f-4538-b0ce-8a2f3aad3a06" d="m1057.16,54.13l1.02-1.57c.01-1.82,1.24-3.46,3.09-3.92,2.18-.54,4.4.79,4.94,2.97.54,2.18-.78,4.41-2.97,4.94-3.29.81-4.17.71-4.79-2.39l-1.29-.03Z"/>
          <path class="uuid-a11a6586-801e-432d-a696-d2a459ec2daa" d="m1064.9,55.69l.25-.24c.96-.98,1.4-2.42,1.05-3.84-.54-2.18-2.76-3.51-4.94-2.97-1.84.46-3.08,2.11-3.09,3.92-.37.56-1.01,1.57-1.01,1.57,0,0,.8.06,1.29.03.59,2.7,1.16,3.06,3.8,2.61l.27-.05"/>
          <path class="uuid-91da7a90-34a6-4e52-9064-ad735595c749" d="m1059.16,53.1h0c.14,0,.26-.1.27-.24v-.23c.01-.14-.1-.26-.24-.27-.14,0-.26.1-.27.24v.23c-.01.14.1.26.24.27"/>
          <path class="uuid-071d29ec-d41e-4327-96fd-56b43dc6835f" d="m1058.64,50.45c-.38-.07-.56-.52-.32-.98.31-.58,1.24-1.46,3.02-1.7,2.22-.3,3.96.72,4.82,2.14.85,1.42.39,1.69.16,1.72-.21.02-.43-.2-.43-.2,0,0,.4.77-.23.95-.57.17-.96-.58-1.26-1.15.22.44.03.8-.32.91-.43.13-.71-.24-1.19-.84-.47-.59-1.3-1.16-2.39-1.13-1.31.03-1.5.35-1.86.28"/>
          <path class="uuid-a11a6586-801e-432d-a696-d2a459ec2daa" d="m1058.64,50.45c-.38-.07-.56-.52-.32-.98.31-.58,1.24-1.46,3.02-1.7,2.22-.3,3.96.72,4.82,2.14.85,1.42.39,1.69.16,1.72-.21.02-.43-.2-.43-.2,0,0,.4.77-.23.95-.57.17-.96-.58-1.26-1.15.22.44.03.8-.32.91-.43.13-.71-.24-1.19-.84-.47-.59-1.3-1.16-2.39-1.13-1.31.03-1.5.35-1.86.28Z"/>
          <path class="uuid-2c4928ef-045e-40b7-a1a3-16911db3163f" d="m1067.84,51.29c-.01-3.38-2.36-5.34-5.33-5.37-2.72-.03-5.53,1.57-5.51,4.69.71.89,2.03.73,2.87.53,1.25-.3,2.48.19,2.75,1.74.36,2.05,2.46,2.93,4.69,1.4.28-.55.53-1.8.53-2.99"/>
          <path class="uuid-a11a6586-801e-432d-a696-d2a459ec2daa" d="m1067.84,51.29c-.01-3.38-2.36-5.34-5.33-5.37-2.72-.03-5.53,1.57-5.51,4.69.71.89,2.03.73,2.87.53,1.25-.3,2.48.19,2.75,1.74.36,2.05,2.46,2.93,4.69,1.4.28-.55.53-1.8.53-2.99Z"/>
          <path class="uuid-30b76d39-7482-4b66-820a-200fd1f2faed" d="m1075.88,88.84l-2.06.53-5.49-7.46,9.75-3.27,1.21,3.61c.9,2.67-.55,5.73-3.41,6.59"/>
          <path class="uuid-a11a6586-801e-432d-a696-d2a459ec2daa" d="m1075.88,88.84l-2.06.53-5.49-7.46,9.75-3.27,1.21,3.61c.9,2.67-.55,5.73-3.41,6.59Z"/>
          <path class="uuid-30b76d39-7482-4b66-820a-200fd1f2faed" d="m1075.49,83.87h0c-.81-2.09-3.25-3.5-6.11-2.46-4.84,1.77-4.96,1.94-9.75,3.81-2.25.88-3.13,3.27-2.26,5.21.87,1.94,2.39,2.6,4.83,1.96l10.48-2.68c2.75-.74,3.62-3.77,2.81-5.85"/>
          <g class="uuid-42d24e63-f22c-41bd-937b-d769d05879db">
            <g class="uuid-c5cd8d77-01f6-49fc-9e0f-8caa602ebd13">
              <path class="uuid-477b8cd9-6a9b-4f43-8ce2-282a09d02ec0" d="m1066.29,82.51s1.79-.01,4.05,1.16c2.19,1.14,4.42,1.27,6.28,1,1.58-.23,2.71-1.3,2.71-1.3,0,0-.02-.62-.46-1.53-.63-1.29-10.84-.46-10.84-.46l-1.73,1.13Z"/>
            </g>
          </g>
          <path class="uuid-a11a6586-801e-432d-a696-d2a459ec2daa" d="m1071.66,81.07c-.71-.05-1.48.04-2.28.34-4.84,1.77-4.96,1.94-9.75,3.81-2.25.88-3.13,3.27-2.26,5.21.87,1.94,2.39,2.6,4.83,1.96l11.98-3.1"/>
          <path class="uuid-d9bdd211-f140-45da-b390-b888d2c77c9a" d="m1066.08,101.99l.1-.02c.84-.18,1.67.36,1.85,1.2l.89,4.19c.18.84-.36,1.67-1.2,1.85l-.1.02c-.84.18-1.67-.36-1.85-1.2l-.89-4.19c-.18-.84.36-1.67,1.2-1.85"/>
          <path class="uuid-a11a6586-801e-432d-a696-d2a459ec2daa" d="m1066.08,101.99l.1-.02c.84-.18,1.67.36,1.85,1.2l.89,4.19c.18.84-.36,1.67-1.2,1.85l-.1.02c-.84.18-1.67-.36-1.85-1.2l-.89-4.19c-.18-.84.36-1.67,1.2-1.85Z"/>
          <path class="uuid-30b76d39-7482-4b66-820a-200fd1f2faed" d="m1059.57,85.73c-1.62.64-3.02,2.37-1.76,5.08,1.26,2.71,4.79,9.26,6.67,14.68,1.39.35,3.95.04,4.78-1.56-1.34-5.17-3.12-13.97-4.65-16.08-1.32-1.83-2.9-2.97-5.04-2.12"/>
          <path class="uuid-a11a6586-801e-432d-a696-d2a459ec2daa" d="m1057.44,90.63c.17.4.27.56.49,1.02,1.27,2.71,4.84,8.81,6.54,13.83,1.29.43,4.05-.02,4.78-1.56-1.28-4.71-3.06-13.97-4.63-16.07-.07-.1-.15-.19-.22-.28"/>
          <path class="uuid-63f0015d-bc5f-4b6e-80f0-0e47141810cb" d="m1063.95,59c-1.92,1.89-2.55,5.55-2.54,8.73.01,3.35,2.87,15.17,2.87,15.17,0,0,2.89-1.37,6.19-.43,2.37.67,4.72.62,6.38.25,2.21-.49,3.4-1.7,3.4-1.7,0,0-1.22-6.28-4-12.27-3.26-7.03-7.62-14.38-12.31-9.75"/>
          <path class="uuid-a11a6586-801e-432d-a696-d2a459ec2daa" d="m1063.95,59c-1.92,1.89-2.55,5.55-2.54,8.73.01,3.35,2.87,15.17,2.87,15.17,0,0,2.89-1.37,6.19-.43,2.37.67,4.72.62,6.38.25,2.21-.49,3.4-1.7,3.4-1.7,0,0-1.22-6.28-4-12.27-3.26-7.03-7.62-14.38-12.31-9.75Z"/>
          <path class="uuid-63f0015d-bc5f-4b6e-80f0-0e47141810cb" d="m1064.88,60.62l-6.68,8.98c-.99,1.42-.64,3.37.78,4.37,1.42.99,3.29.77,4.88-1.09,4.88-5.71,5.07-6.33,5.89-8.03.3-.62.47-1.26.45-1.86-.12-3.07-3.27-5.05-5.32-2.37"/>
          <path class="uuid-a11a6586-801e-432d-a696-d2a459ec2daa" d="m1063.96,61.87l-5.52,7.94c-.99,1.42-.88,3.16.54,4.15,1.42.99,3.18.86,4.88-1.09,4.92-5.68,5.07-6.33,5.89-8.03.3-.62.45-1.26.45-1.86,0-.64-.19-1.56-.88-2.44"/>
          <path class="uuid-63f0015d-bc5f-4b6e-80f0-0e47141810cb" d="m1062.82,69.59c-1.02-1.14-3.32-.56-4.13.17-.94.86-9.2,8.59-9.41,8.82.38,1.09,1.84,2.48,2.52,2.43l10.48-6.99c1.61-1.06,1.56-3.3.53-4.44"/>
          <path class="uuid-a11a6586-801e-432d-a696-d2a459ec2daa" d="m1058.46,69.69c-.16.16-.66.64-.93.91-2.32,2.35-8.08,7.8-8.25,7.99.4,1.06,1.73,2.44,2.52,2.43l11.24-7.31"/>
          <path class="uuid-63f0015d-bc5f-4b6e-80f0-0e47141810cb" d="m1062.37,62.16l-.31-3.21s.77-.95,2.54-1.74c1.78-.79,2.97-.55,2.97-.55l1.08,1.63s-2.02-.42-3.66.87c-1.64,1.29-2.63,3-2.63,3"/>
          <path class="uuid-a11a6586-801e-432d-a696-d2a459ec2daa" d="m1062.33,62l-.27-3.05s.77-.95,2.54-1.74c1.78-.79,2.97-.55,2.97-.55l1.01,1.33"/>
          <path class="uuid-d9bdd211-f140-45da-b390-b888d2c77c9a" d="m1059.85,109.35c-.58.08-.7.33-.7.33l-.09.88s2.4.3,5.38.58c2.99.29,5.06.5,5.06.5,0,0,.41-.56.06-1.04-.11-.15-9.07-1.34-9.7-1.26"/>
          <path class="uuid-a11a6586-801e-432d-a696-d2a459ec2daa" d="m1059.85,109.35c-.58.08-.7.33-.7.33l-.09.88s2.4.3,5.38.58c2.99.29,5.06.5,5.06.5,0,0,.41-.56.06-1.04-.11-.15-9.07-1.34-9.7-1.26Z"/>
          <path class="uuid-d9bdd211-f140-45da-b390-b888d2c77c9a" d="m1069.58,107.51c-.16.25-.59.67-1.41.68-.71,0-1.28-.37-1.66-.73l-.02-.64c-.04-.9-.61-1.4-1.54-1.37l-1.18.22.48,1.47-3.87,1.9,2.4.95s2.21.21,3.64.34c1.86.17,3.12.28,3.12.28,0,0,.26-1.65.03-3.1"/>
          <path class="uuid-a11a6586-801e-432d-a696-d2a459ec2daa" d="m1069.58,107.51c-.16.25-.59.67-1.41.68-.71,0-1.28-.37-1.66-.73l-.02-.64c-.04-.9-.61-1.4-1.54-1.37l-1.18.22.48,1.47-3.87,1.9,2.4.95s2.21.21,3.64.34c1.86.17,3.12.28,3.12.28,0,0,.26-1.65.03-3.1Z"/>
          <path class="uuid-d9bdd211-f140-45da-b390-b888d2c77c9a" d="m1059.34,109.62c.55.06,1.85.23,3.46.38-.05-.11-.49-1.14-1.81-1.26-1.25-.12-1.91.86-1.66.88"/>
          <path class="uuid-a11a6586-801e-432d-a696-d2a459ec2daa" d="m1059.34,109.62c.55.06,1.85.23,3.46.38-.05-.11-.49-1.14-1.81-1.26-1.25-.12-1.91.86-1.66.88Z"/>
        </g>
      </g>
    </g>
  </g>
</svg>