<?xml version="1.0" encoding="UTF-8"?>
<svg id="uuid-3e587cdf-bb7e-485b-bd47-a558ce39ab26" data-name="Capa 2" xmlns="http://www.w3.org/2000/svg" viewBox="0 0 26.42 26.42">
  <defs>
    <style>
      .uuid-dd400c2c-e0fe-4c8a-ae15-64d3f58c63df, .uuid-dab244b1-8f2f-41e1-a251-a1abe6a34267 {
        stroke-width: 0px;
      }

      .uuid-dab244b1-8f2f-41e1-a251-a1abe6a34267 {
        fill: #fff;
      }
    </style>
  </defs>
  <g id="uuid-69c179f7-7989-4018-85d9-5bab514fdf4f" data-name="Layer 1">
    <g>
      <circle class="uuid-dd400c2c-e0fe-4c8a-ae15-64d3f58c63df" cx="13.21" cy="13.21" r="13.21"/>
      <g>
        <path class="uuid-dab244b1-8f2f-41e1-a251-a1abe6a34267" d="m13.21,6.39c2.22,0,2.48,0,3.36.05.81.04,1.25.17,1.54.29.39.15.67.33.96.62.29.29.47.57.62.96.11.29.25.73.29,1.54.04.88.05,1.14.05,3.36s0,2.48-.05,3.36c-.04.81-.17,1.25-.29,1.54-.15.39-.33.67-.62.96-.29.29-.57.47-.96.62-.29.11-.73.25-1.54.29-.88.04-1.14.05-3.36.05s-2.48,0-3.36-.05c-.81-.04-1.25-.17-1.54-.29-.39-.15-.67-.33-.96-.62-.29-.29-.47-.57-.62-.96-.11-.29-.25-.73-.29-1.54-.04-.88-.05-1.14-.05-3.36s0-2.48.05-3.36c.04-.81.17-1.25.29-1.54.15-.39.33-.67.62-.96.29-.29.57-.47.96-.62.29-.11.73-.25,1.54-.29.88-.04,1.14-.05,3.36-.05m0-1.5c-2.26,0-2.54,0-3.43.05-.89.04-1.49.18-2.02.39-.55.21-1.01.5-1.47.96-.46.46-.75.93-.96,1.47-.21.53-.35,1.13-.39,2.02-.04.89-.05,1.17-.05,3.43s0,2.54.05,3.43c.04.89.18,1.49.39,2.02.21.55.5,1.01.96,1.47.46.46.93.75,1.47.96.53.21,1.13.35,2.02.39.89.04,1.17.05,3.43.05s2.54,0,3.43-.05c.89-.04,1.49-.18,2.02-.39.55-.21,1.01-.5,1.47-.96.46-.46.75-.93.96-1.47.21-.53.35-1.13.39-2.02.04-.89.05-1.17.05-3.43s0-2.54-.05-3.43c-.04-.89-.18-1.49-.39-2.02-.21-.55-.5-1.01-.96-1.47-.46-.46-.93-.75-1.47-.96-.53-.21-1.13-.35-2.02-.39-.89-.04-1.17-.05-3.43-.05h0Z"/>
        <path class="uuid-dab244b1-8f2f-41e1-a251-a1abe6a34267" d="m13.21,8.94c-2.36,0-4.27,1.91-4.27,4.27s1.91,4.27,4.27,4.27,4.27-1.91,4.27-4.27-1.91-4.27-4.27-4.27Zm0,7.04c-1.53,0-2.77-1.24-2.77-2.77s1.24-2.77,2.77-2.77,2.77,1.24,2.77,2.77-1.24,2.77-2.77,2.77Z"/>
        <circle class="uuid-dab244b1-8f2f-41e1-a251-a1abe6a34267" cx="17.65" cy="8.77" r="1"/>
      </g>
    </g>
  </g>
</svg>