<?xml version="1.0" encoding="UTF-8"?>
<svg id="Capa_2" data-name="Capa 2" xmlns="http://www.w3.org/2000/svg" xmlns:xlink="http://www.w3.org/1999/xlink" viewBox="0 0 140.03 965.96">
  <defs>
    <style>
      .cls-1, .cls-2, .cls-3, .cls-4, .cls-5, .cls-6, .cls-7, .cls-8, .cls-9, .cls-10, .cls-11, .cls-12, .cls-13, .cls-14, .cls-15 {
        stroke-width: 0px;
      }

      .cls-1, .cls-10 {
        fill-rule: evenodd;
      }

      .cls-1, .cls-11 {
        fill: #ea044e;
      }

      .cls-2 {
        fill: #e0d6e2;
      }

      .cls-3 {
        fill: #dcf8ff;
      }

      .cls-4 {
        fill: #5fbbd5;
      }

      .cls-5 {
        opacity: .28;
      }

      .cls-5, .cls-12 {
        fill: #40004d;
      }

      .cls-6 {
        fill: #c1f9fe;
      }

      .cls-16 {
        clip-path: url(#clippath-2);
      }

      .cls-7, .cls-10 {
        fill: #100423;
      }

      .cls-17 {
        clip-path: url(#clippath-6);
      }

      .cls-18 {
        stroke-width: .79px;
      }

      .cls-18, .cls-9, .cls-19, .cls-20 {
        fill: #fff;
      }

      .cls-18, .cls-19, .cls-20 {
        stroke-miterlimit: 10;
      }

      .cls-18, .cls-20 {
        stroke: #000;
      }

      .cls-8 {
        fill: none;
      }

      .cls-21 {
        clip-path: url(#clippath-7);
      }

      .cls-22 {
        clip-path: url(#clippath-1);
      }

      .cls-23 {
        clip-path: url(#clippath-4);
      }

      .cls-24 {
        clip-path: url(#clippath-9);
      }

      .cls-25 {
        clip-path: url(#clippath);
      }

      .cls-19 {
        stroke: #030725;
        stroke-width: 1.23px;
      }

      .cls-26 {
        opacity: .16;
      }

      .cls-26, .cls-27 {
        isolation: isolate;
      }

      .cls-13 {
        fill: #7c6282;
      }

      .cls-28 {
        clip-path: url(#clippath-3);
      }

      .cls-27 {
        opacity: .7;
      }

      .cls-29 {
        clip-path: url(#clippath-8);
      }

      .cls-14 {
        fill: #451f4d;
      }

      .cls-30 {
        clip-path: url(#clippath-5);
      }

      .cls-15 {
        fill: #f8ea46;
      }

      .cls-31 {
        clip-path: url(#clippath-10);
      }

      .cls-20 {
        stroke-width: 1.47px;
      }
    </style>
    <clipPath id="clippath">
      <rect class="cls-8" x="21.11" y="12.39" width="11.76" height="48.49" transform="translate(-3.25 2.63) rotate(-5.27)"/>
    </clipPath>
    <clipPath id="clippath-1">
      <rect class="cls-8" x="68.45" y="9.96" width="8.08" height="8.08" transform="translate(-.98 6.71) rotate(-5.27)"/>
    </clipPath>
    <clipPath id="clippath-2">
      <rect class="cls-8" x="42.11" y="12.38" width="8.08" height="8.08" transform="translate(-1.31 4.3) rotate(-5.27)"/>
    </clipPath>
    <clipPath id="clippath-3">
      <rect class="cls-8" x="43.25" y="15.24" width="3.61" height="3.35" transform="translate(-1.36 4.21) rotate(-5.27)"/>
    </clipPath>
    <clipPath id="clippath-4">
      <rect class="cls-8" x="69.59" y="12.81" width="3.61" height="3.35" transform="translate(-1.03 6.61) rotate(-5.27)"/>
    </clipPath>
    <clipPath id="clippath-5">
      <rect class="cls-8" x="36.51" y="947.19" width="3.82" height="25.46" transform="translate(-921.57 996.66) rotate(-89.9)"/>
    </clipPath>
    <clipPath id="clippath-6">
      <rect class="cls-8" x="5.02" y="935.99" width="31.83" height="12.15" transform="translate(-921.16 961.36) rotate(-89.9)"/>
    </clipPath>
    <clipPath id="clippath-7">
      <rect class="cls-8" x="44.38" y="926.48" width=".64" height="14.7" transform="translate(-889.21 976.91) rotate(-89.9)"/>
    </clipPath>
    <clipPath id="clippath-8">
      <rect class="cls-8" x="45.65" y="931.58" width=".64" height="14.7" transform="translate(-893.04 983.26) rotate(-89.9)"/>
    </clipPath>
    <clipPath id="clippath-9">
      <rect class="cls-8" x="36.73" y="935.38" width=".64" height="15.97" transform="translate(-906.38 978.77) rotate(-89.9)"/>
    </clipPath>
    <clipPath id="clippath-10">
      <rect class="cls-8" x="34.17" y="943.65" width=".64" height="8.33" transform="translate(-913.39 980.66) rotate(-89.9)"/>
    </clipPath>
  </defs>
  <g id="Layer_1" data-name="Layer 1">
    <path class="cls-19" d="m139.19,222.58H.66c-.95-18.51,13.45-36.65,31.62-40.31,18.17-3.66,38.17,7.61,44.45,25.05,4.55-4.78,10.96-6.96,17.49-5.99,6.53.97,12.47,5.26,15.44,11.15,4.98-3.37,11.45-4.32,17.14-2.36,5.69,1.96,10.55,6.73,12.4,12.46Z"/>
    <g>
      <path class="cls-20" d="m65.13,676.45c.74,0,1.48-.08,2.21-.25l3.33-.75c2.6-.59,4.78-2.18,6.18-4.31,4.33-1.88,6.87-6.64,5.8-11.42l-1.72-7.64c.23-7.81,1.82-12.63,3.22-16.9,1.51-4.61,3.08-9.37,1.73-15.33l-.37-1.66c-2.93-13-14.73-22.44-28.06-22.44-2.12,0-4.25.24-6.33.71-7.49,1.69-13.87,6.2-17.98,12.7-4.11,6.5-5.44,14.2-3.76,21.69l.37,1.66c1.34,5.96,4.8,9.59,8.14,13.1,3.1,3.25,6.59,6.93,10.16,13.89l1.72,7.64c1.04,4.61,5.07,7.83,9.79,7.83,0,0,.21,0,.31,0,1.58.97,3.4,1.49,5.25,1.49Z"/>
      <g>
        <path class="cls-15" d="m77.53,619.87c-2.52-11.16-13.5-18.22-24.49-15.75-10.99,2.48-17.88,13.57-15.37,24.73l.38,1.69c.85,3.77,3.04,6.11,6.08,9.35,3.37,3.59,7.55,8.05,11.74,16.39l16.97-3.82c.21-9.33,2.07-15.15,3.58-19.84,1.36-4.23,2.33-7.28,1.48-11.05l-.38-1.69Z"/>
        <rect class="cls-4" x="56.19" y="655.7" width="17.02" height="2.07" transform="translate(-142.95 30.34) rotate(-12.71)"/>
        <rect class="cls-4" x="57.03" y="659.43" width="17.02" height="2.07" transform="translate(-143.76 30.62) rotate(-12.71)"/>
        <path id="Lamp_1" data-name="Lamp 1" class="cls-7" d="m77.84,633.12c1.4-4.26,2.5-7.63,1.56-11.8l-.37-1.66c-2.68-11.9-14.55-19.41-26.45-16.72-11.9,2.68-19.41,14.55-16.72,26.45l.37,1.66c.94,4.17,3.38,6.74,6.47,9.99,3.35,3.52,7.51,7.9,11.64,16.2l1.9,8.44c.41,1.83,2.24,2.99,4.07,2.57l1.74-.39c.27.58.71,1.08,1.27,1.43.77.49,1.68.64,2.57.44h0s3.32-.75,3.32-.75c1.59-.36,2.66-1.78,2.65-3.34l1.74-.39c1.83-.41,2.98-2.24,2.57-4.07l-1.9-8.43c.17-9.27,2.05-15.01,3.57-19.63Zm-14.04,34.35l6.32-1.43c-.14.62-.63,1.14-1.29,1.28l-3.32.75h0c-.44.1-.9.02-1.28-.22-.17-.11-.31-.24-.43-.39Zm-5.97-2.52l16.61-3.75.08.35c.21.92-.37,1.83-1.29,2.03l-13.28,3c-.92.21-1.83-.37-2.03-1.29l-.08-.35Zm-.83-3.68l16.61-3.75.45,2.02-16.61,3.75-.45-2.02Zm-.83-3.68l16.61-3.74.45,2.01-16.61,3.75-.45-2.02Zm21.57-35.9c.84,3.71-.15,6.73-1.52,10.9-1.52,4.63-3.4,10.37-3.64,19.57l-16.97,3.82c-4.16-8.21-8.32-12.58-11.68-16.11-3.02-3.18-5.21-5.48-6.05-9.19l-.37-1.66c-2.48-10.99,4.45-21.94,15.44-24.42,10.99-2.48,21.94,4.45,24.42,15.44l.37,1.66Z"/>
        <path class="cls-9" d="m49.55,610.23c1.91-.77,3.86-1.08,5.74-.99,2.83.14,3.45,3.95.8,4.98-.05.02-.11.04-.16.06-5.21,2.11-8.59,7.45-8.26,13.06,0,.06,0,.12.01.18.2,2.83-3.51,3.91-4.85,1.41-.89-1.66-1.45-3.55-1.57-5.62-.34-5.62,3.05-10.98,8.27-13.09"/>
      </g>
    </g>
    <g>
      <path class="cls-2" d="m84.82,55.66l-49.75,4.59-4.45-48.29,55.6-5.12,3.91,42.43c.3,3.23-2.08,6.09-5.31,6.39"/>
      <rect class="cls-6" x="21.11" y="12.39" width="11.76" height="48.49" transform="translate(-3.25 2.63) rotate(-5.27)"/>
      <rect class="cls-11" x="19.43" y="12.47" width="11.76" height="11.76" transform="translate(-1.58 2.4) rotate(-5.27)"/>
      <g class="cls-26">
        <g class="cls-25">
          <rect class="cls-12" x="21.11" y="12.39" width="11.76" height="48.49" transform="translate(-3.25 2.63) rotate(-5.27)"/>
        </g>
      </g>
      <path class="cls-13" d="m30.68,60.65c-.2.02-.38-.13-.4-.33l-1.21-13.17c-.02-.2.13-.38.33-.4s.38.13.4.33l1.21,13.17c.02.2-.13.38-.33.4Z"/>
      <path class="cls-13" d="m28.89,41.26c-.2.02-.38-.13-.4-.33l-.34-3.66c-.02-.2.13-.38.33-.4s.38.13.4.33l.34,3.66c.02.2-.13.38-.33.4Z"/>
      <path class="cls-7" d="m35.1,60.61l-11.71,1.08c-.2.02-.38-.13-.4-.33l-4.45-48.29c-.02-.2.13-.38.33-.4l11.71-1.08c.2-.02.38.13.4.33l4.45,48.29c.02.2-.13.38-.33.4Zm-11.41.31l10.97-1.01-4.38-47.56-10.97,1.01,4.38,47.56Z"/>
      <path class="cls-7" d="m84.85,56.02l-49.75,4.59c-.2.02-.38-.13-.4-.33l-4.45-48.29c-.02-.2.13-.38.33-.4l55.6-5.12c.2-.02.38.13.4.33l3.91,42.43c.32,3.43-2.22,6.48-5.65,6.79Zm-49.45,3.82l49.38-4.55c3.03-.28,5.26-2.97,4.98-5.99l-3.88-42.07-54.87,5.06,4.38,47.56Z"/>
      <path class="cls-9" d="m87.98,55.37l-47.8,4.4s-6.78-17.51-9.57-47.82l55.6-5.12c1.77,19.26,4.89,33.47,6.91,41.21.91,3.51-1.54,6.99-5.15,7.33"/>
      <rect class="cls-11" x="31.04" y="9.37" width="55.84" height="11.76" transform="translate(-1.15 5.48) rotate(-5.27)"/>
      <path class="cls-7" d="m88.88,55.65l-48.66,4.48c-.16.02-.32-.08-.38-.23-.07-.18-6.83-17.91-9.59-47.91-.02-.2.13-.38.33-.4l55.6-5.12c.2-.02.38.13.4.33,1.87,20.26,5.26,34.99,7.12,41.96.42,1.57.12,3.23-.81,4.56-.93,1.33-2.4,2.19-4.02,2.34Zm-48.45,3.73l48.38-4.46c1.41-.13,2.67-.87,3.48-2.02.8-1.15,1.06-2.59.7-3.95-1.85-6.96-5.23-21.59-7.1-41.72l-54.87,5.06c2.59,27.72,8.58,44.82,9.42,47.09Z"/>
      <path class="cls-6" d="m84.81,33.15l-13.17,1.21c.56,3,1.12,5.66,1.65,7.96l13.17-1.21c-.53-2.3-1.09-4.96-1.65-7.96"/>
      <path class="cls-6" d="m84.29,30.25c-.43-2.47-.84-5.15-1.23-8l-13.17,1.21c.39,2.86.81,5.53,1.24,8l13.17-1.21Z"/>
      <path class="cls-6" d="m87.15,44.01l-13.17,1.21c1.2,4.86,2.09,7.46,2.09,7.46l7.92-.73c2.68-.25,4.49-2.84,3.8-5.43-.2-.75-.42-1.59-.64-2.51"/>
      <path class="cls-6" d="m67.98,34.71l-12.44,1.15c.56,3,1.12,5.66,1.65,7.96l12.44-1.15c-.53-2.3-1.09-4.96-1.65-7.96"/>
      <path class="cls-6" d="m67.46,31.8c-.43-2.47-.85-5.14-1.24-8l-12.44,1.15c.39,2.86.81,5.53,1.24,8l12.44-1.15Z"/>
      <path class="cls-6" d="m57.88,46.7c1.2,4.86,2.09,7.46,2.09,7.46l12.44-1.15s-.89-2.6-2.09-7.46l-12.44,1.15Z"/>
      <path class="cls-6" d="m51.37,33.29c-.43-2.47-.85-5.14-1.24-8l-12.58,1.16c.39,2.86.81,5.53,1.23,8l12.58-1.16Z"/>
      <path class="cls-6" d="m51.89,36.19l-12.58,1.16c.56,3.01,1.12,5.67,1.65,7.96l12.58-1.16c-.53-2.3-1.09-4.96-1.65-7.96"/>
      <path class="cls-6" d="m41.64,48.2c1.21,4.87,2.1,7.46,2.1,7.46l12.58-1.16s-.89-2.6-2.09-7.46l-12.58,1.16Z"/>
      <g class="cls-27">
        <g class="cls-22">
          <path class="cls-14" d="m76.52,13.63c.2,2.22-1.43,4.19-3.65,4.39-2.22.2-4.19-1.43-4.39-3.65-.2-2.22,1.43-4.19,3.65-4.39,2.22-.2,4.19,1.43,4.39,3.65"/>
        </g>
      </g>
      <g class="cls-27">
        <g class="cls-16">
          <path class="cls-14" d="m50.18,16.06c.2,2.22-1.43,4.19-3.65,4.39-2.22.2-4.19-1.43-4.39-3.65s1.43-4.19,3.65-4.39c2.22-.2,4.19,1.43,4.39,3.65"/>
        </g>
      </g>
      <path class="cls-9" d="m41.58,2.83c-4.44.41-7.72,4.35-7.31,8.79l2.93-.27c-.26-2.83,1.82-5.33,4.65-5.59s5.33,1.82,5.59,4.65c.25,2.7-1.65,5.11-4.28,5.54,0,0,0,.01,0,.02.1,1.08.62,2.02,1.38,2.68,3.67-1.04,6.19-4.57,5.83-8.51-.41-4.44-4.35-7.72-8.79-7.31"/>
      <g class="cls-26">
        <g class="cls-28">
          <path class="cls-12" d="m45.05,15.23c-.56.35-1.2.6-1.89.71,0,0,0,.01,0,.02.1,1.08.62,2.02,1.38,2.68.87-.25,1.68-.64,2.39-1.14-.88-.48-1.56-1.29-1.89-2.27"/>
        </g>
      </g>
      <path class="cls-7" d="m44.57,19.01c-.17.02-.34-.09-.39-.27-.06-.2.06-.4.25-.45,3.57-1.01,5.91-4.43,5.57-8.12-.39-4.24-4.15-7.36-8.39-6.97-4.11.38-7.18,3.94-7,8.02l2.2-.2c-.07-2.87,2.1-5.36,5-5.63s5.71,1.96,5.99,4.98c.26,2.84-1.71,5.42-4.51,5.92-.21.09-.48-.06-.5-.3-.02-.19.11-.38.31-.42,2.46-.4,4.21-2.66,3.98-5.14-.24-2.62-2.57-4.56-5.19-4.32-2.62.24-4.56,2.57-4.32,5.19.02.2-.13.38-.33.4l-2.93.27c-.2.02-.38-.13-.4-.33-.43-4.64,3-8.76,7.64-9.19,4.64-.43,8.76,3,9.19,7.64.37,4.04-2.19,7.79-6.1,8.9-.02,0-.04.01-.07.01Z"/>
      <path class="cls-9" d="m67.92.4c-4.44.41-7.72,4.35-7.31,8.79l2.93-.27c-.26-2.83,1.82-5.33,4.65-5.59s5.33,1.82,5.59,4.65-1.65,5.11-4.28,5.54c0,0,0,.01,0,.02.1,1.08.62,2.02,1.38,2.68,3.67-1.04,6.19-4.57,5.83-8.51-.41-4.44-4.35-7.72-8.79-7.31"/>
      <g class="cls-26">
        <g class="cls-23">
          <path class="cls-12" d="m71.38,12.8c-.56.35-1.2.6-1.89.71,0,0,0,.01,0,.02.1,1.08.62,2.02,1.38,2.68.87-.25,1.68-.64,2.39-1.14-.88-.48-1.56-1.29-1.89-2.27"/>
        </g>
      </g>
      <path class="cls-7" d="m70.91,16.58c-.17.02-.34-.09-.39-.27-.06-.2.06-.4.25-.45,3.57-1.01,5.91-4.43,5.57-8.12-.39-4.24-4.15-7.36-8.39-6.97-4.11.38-7.18,3.94-7,8.02l2.2-.2c-.07-2.87,2.1-5.36,5-5.63,3.03-.28,5.71,1.96,5.99,4.98.26,2.84-1.71,5.42-4.51,5.92-.21.09-.48-.06-.5-.3-.02-.19.11-.38.31-.42,2.46-.4,4.21-2.66,3.98-5.14-.24-2.62-2.57-4.56-5.19-4.32-2.62.24-4.56,2.57-4.32,5.19.02.2-.13.38-.33.4l-2.93.27c-.2.02-.38-.13-.4-.33-.43-4.64,3-8.76,7.64-9.19,4.64-.43,8.76,3,9.19,7.64.37,4.04-2.19,7.79-6.1,8.9-.02,0-.04.01-.07.01Z"/>
    </g>
    <g>
      <g>
        <path class="cls-10" d="m35.08,396.3c.26-.84,1.01-1.13,1.72-.91.6.19,1.16.89.9,1.72l-1.45,4.66,35.34,11c.6.19,1.01.97.82,1.57l-2.9,9.31,22.09,6.88c.71.22.89.93.71,1.53-.15.48-.19.6-.5.76l-14.57,11.44,5.57,17.45c.29.74.03,1.58-.72,1.87-.24-.07-.51-.03-.75-.1l-23.28-7.25c-.71-.22-1.13-1-.94-1.6l2.97-9.55-34.03-10.59-12.15,39.05c-.26.83-1.09.97-1.68.78-.72-.22-1.2-.77-.94-1.6l12.53-40.24,9.44-30.33,1.82-5.85Z"/>
        <polygon class="cls-1" points="35.48 404.28 35.48 404.28 26.78 432.22 60.81 442.81 66.65 424.06 69.51 414.87 35.48 404.28"/>
        <path class="cls-1" d="m68.74,426.16h0l-5.76,18.51-2.97,9.55,19.58,6.1-5.03-16.24c-.13-.43.02-.91.37-1.19l13.63-10.56-19.82-6.17Z"/>
        <rect class="cls-5" x="64.36" y="426.15" width="4.34" height="28.83" transform="translate(133.95 .14) rotate(17.29)"/>
      </g>
      <path class="cls-9" d="m53.31,416.31l-.15-.03-.68-.15-7.78-1.65c-.12-.03-.24.05-.27.18l-.26,1.23c-.29,1.35.51,2.3,2.24,2.67l6.14,1.31c.65.14,1.06.78.93,1.42s-.78,1.06-1.42.93l-6.88-1.46c-.1-.02-.2.03-.25.12l-2.99,6.09c-.03.06-.03.13,0,.2.03.06.09.11.16.12l2.18.46c.82.17,1.35-.42,1.52-.76l1.14-2.2,4.38.93c2.59.55,5.15-1.11,5.7-3.71s-1.11-5.15-3.71-5.7"/>
    </g>
    <g>
      <path class="cls-18" d="m26.86,965.42c.24.03.47.04.71.04l59.84.1c3.29,0,5.97-2.67,5.97-5.95v-1.27c0-1.73-1.29-3.19-3-3.4-.13-.02-.27-.03-.41-.03l-20.97-.04-7.64-27.49c-.65-2.33-2.62-4.03-5.02-4.32-.24-.03-.48-.04-.71-.04l-39.48-.07c-.62,0-1.24.11-1.82.32h-.09c-1.71,0-3.1,1.38-3.1,3.09v.09c-.38,1.04-.43,2.18-.13,3.25l.12.44,8.31,29.54s2.47,1.68,2.48,1.71v.64c0,.82.32,1.61.9,2.19.49.49,1.13.8,1.82.89.12.02.25.02.37.02h.64c.39.13.79.23,1.2.28Z"/>
      <g>
        <path class="cls-3" d="m88.07,961.92l-59.84-.1c-1.41,0-2.54-1.14-2.54-2.55v-1.27s64.94.11,64.94.11v1.27c0,1.41-1.15,2.54-2.55,2.54"/>
        <g class="cls-26">
          <g class="cls-30">
            <path class="cls-12" d="m48.61,958.03v1.27c0,1.41,1.13,2.55,2.54,2.55l-22.92-.04c-1.41,0-2.54-1.14-2.54-2.55v-1.27s22.92.04,22.92.04Z"/>
          </g>
        </g>
        <path class="cls-7" d="m51.14,962.17c-1.36,0-2.54-.97-2.8-2.3-.03-.17.08-.34.25-.38.17-.03.34.08.37.25.21,1.03,1.12,1.78,2.18,1.79.18,0,.32.14.32.32s-.14.32-.32.32Z"/>
        <path class="cls-7" d="m88.07,962.24l-59.84-.1c-1.58,0-2.86-1.29-2.86-2.87v-1.27c0-.18.15-.32.32-.32l64.93.11c.18,0,.32.14.32.32v1.27c0,1.58-1.29,2.86-2.87,2.86Zm-62.06-3.93v.95c0,1.23.99,2.23,2.22,2.23l59.84.1c1.23,0,2.23-1,2.23-2.22v-.95s-64.3-.11-64.3-.11Z"/>
        <path class="cls-3" d="m16.8,926.14l39.48.07c1.14,0,2.14.76,2.45,1.86l7.66,27.56c.34,1.22-.58,2.42-1.84,2.42l-39.48-.07c-1.14,0-2.14-.76-2.45-1.86l-7.67-27.56c-.34-1.22.58-2.42,1.84-2.42"/>
        <g class="cls-26">
          <g class="cls-17">
            <path class="cls-12" d="m24.53,956.13l-7.66-27.56c-.34-1.22.58-2.42,1.84-2.42h-1.91c-1.26,0-2.18,1.2-1.84,2.42l7.66,27.56c.31,1.1,1.31,1.86,2.45,1.86h1.91c-1.14,0-2.14-.76-2.45-1.86"/>
          </g>
        </g>
        <path class="cls-7" d="m64.55,958.37l-39.48-.07c-1.28,0-2.41-.86-2.75-2.1l-7.67-27.56c-.19-.68-.05-1.39.37-1.95.43-.56,1.07-.88,1.78-.88l39.48.07c1.28,0,2.41.86,2.76,2.1l7.66,27.56c.19.68.05,1.39-.37,1.95-.43.56-1.07.88-1.78.88Zm-47.75-31.91c-.5,0-.97.23-1.27.63s-.4.91-.27,1.39l7.67,27.56c.27.96,1.15,1.63,2.14,1.63l39.48.07c.5,0,.96-.23,1.27-.63.3-.4.4-.91.27-1.39l-7.66-27.56c-.27-.96-1.15-1.63-2.14-1.63l-39.48-.07Z"/>
        <path class="cls-9" d="m54.95,929.39l-33.43-.06c-.63,0-1.09.6-.92,1.21l6.67,23.97c.15.55.65.93,1.22.93l33.43.06c.63,0,1.09-.6.92-1.21l-6.67-23.97c-.15-.55-.65-.93-1.22-.93"/>
        <path class="cls-7" d="m61.92,955.82l-33.43-.06c-.71,0-1.34-.48-1.53-1.17l-6.67-23.97c-.11-.39-.03-.79.21-1.11.24-.32.61-.5,1.02-.5l33.43.06c.71,0,1.34.48,1.53,1.17l6.67,23.97c.11.39.03.79-.21,1.11-.24.32-.61.5-1.01.5Zm-40.39-26.17c-.2,0-.39.09-.51.25-.12.16-.16.36-.11.56l6.67,23.97c.11.41.49.7.92.7l33.43.06c.2,0,.39-.09.51-.25.12-.16.16-.36.11-.56l-6.67-23.97c-.11-.41-.49-.7-.92-.7l-33.43-.06Z"/>
        <g class="cls-26">
          <g class="cls-21">
            <path class="cls-12" d="m51.73,934.16l-14.06-.02c-.18,0-.32-.14-.32-.32s.14-.32.32-.32l14.06.02c.18,0,.32.14.32.32s-.14.32-.32.32Z"/>
          </g>
        </g>
        <g class="cls-26">
          <g class="cls-29">
            <path class="cls-12" d="m53,939.26l-14.06-.02c-.18,0-.32-.14-.32-.32s.14-.32.32-.32l14.06.02c.18,0,.32.14.32.32s-.14.32-.32.32Z"/>
          </g>
        </g>
        <g class="cls-26">
          <g class="cls-24">
            <path class="cls-12" d="m44.71,943.7l-15.33-.03c-.18,0-.32-.14-.32-.32s.14-.32.32-.32l15.33.03c.18,0,.32.14.32.32s-.14.32-.32.32Z"/>
          </g>
        </g>
        <g class="cls-26">
          <g class="cls-31">
            <path class="cls-12" d="m38.34,948.14h-7.7c-.18-.01-.32-.16-.32-.33s.14-.32.32-.32h7.7c.18.01.32.16.32.33s-.14.32-.32.32Z"/>
          </g>
        </g>
        <path class="cls-11" d="m35.25,938.56l-1.3-4.69c-.15-.55-.65-.93-1.22-.93h-5.41c-.63-.01-1.09.59-.92,1.2l1.3,4.69c.15.55.65.93,1.22.93h5.41c.63.01,1.09-.59.92-1.2"/>
      </g>
    </g>
  </g>
</svg>