<?xml version="1.0" encoding="UTF-8"?>
<svg id="uuid-a74f1cc4-c9d7-4182-aba1-cafd55ea2733" data-name="Capa 2" xmlns="http://www.w3.org/2000/svg" viewBox="0 0 26.42 26.42">
  <defs>
    <style>
      .uuid-a43b0719-9eaf-4725-b12d-a7ec108bab16, .uuid-ace0e45a-0397-447e-b14a-79ce0f370b96 {
        stroke-width: 0px;
      }

      .uuid-ace0e45a-0397-447e-b14a-79ce0f370b96 {
        fill: #fdfdfd;
      }
    </style>
  </defs>
  <g id="uuid-b2713708-d120-4554-b197-5072d8b57a05" data-name="Layer 1">
    <g>
      <circle class="uuid-a43b0719-9eaf-4725-b12d-a7ec108bab16" cx="13.21" cy="13.21" r="13.21"/>
      <g>
        <path class="uuid-ace0e45a-0397-447e-b14a-79ce0f370b96" d="m14.23,11.41c.22-.24.4-.49.62-.7.69-.65,1.5-.97,2.44-.96.52,0,1.03.04,1.54.19,1.15.33,1.81,1.12,2.13,2.24.24.84.28,1.7.28,2.57,0,1.83,0,3.65,0,5.48,0,.17-.05.22-.22.21-.94,0-1.88,0-2.82,0-.17,0-.2-.05-.2-.21,0-1.74,0-3.47,0-5.21,0-.44-.03-.87-.15-1.29-.22-.78-.78-1.18-1.6-1.13-1.11.06-1.69.61-1.84,1.74-.03.27-.05.54-.05.81,0,1.69,0,3.38,0,5.07,0,.17-.04.22-.21.22-.95,0-1.89,0-2.84,0-.15,0-.2-.04-.2-.19,0-3.34,0-6.69,0-10.03,0-.17.05-.2.21-.2.9,0,1.8,0,2.7,0,.17,0,.21.05.2.21,0,.4,0,.8,0,1.2Z"/>
        <path class="uuid-ace0e45a-0397-447e-b14a-79ce0f370b96" d="m9.08,15.23c0,1.65,0,3.31,0,4.96,0,.18-.04.24-.24.24-.94-.01-1.88,0-2.82,0-.15,0-.2-.04-.2-.19,0-3.35,0-6.7,0-10.05,0-.14.03-.19.18-.19.95,0,1.91,0,2.86,0,.18,0,.21.07.21.23,0,1.67,0,3.34,0,5Z"/>
        <path class="uuid-ace0e45a-0397-447e-b14a-79ce0f370b96" d="m9.34,6.68c0,1.04-.84,1.88-1.88,1.89-1.02,0-1.87-.85-1.88-1.87,0-1.03.85-1.88,1.88-1.88,1.03,0,1.87.84,1.87,1.87Z"/>
      </g>
    </g>
  </g>
</svg>