<?xml version="1.0" encoding="UTF-8"?>
<svg id="uuid-440afdf0-c890-4283-aedb-b2230edb1737" data-name="Capa 2" xmlns="http://www.w3.org/2000/svg" viewBox="0 0 128 28.82">
  <defs>
    <style>
      .uuid-d4423686-89fd-4001-915d-c518d3f8fff1 {
        fill: #fa0050;
        stroke-width: 0px;
      }
    </style>
  </defs>
  <g id="uuid-01966346-eb9f-41ca-877f-419a456d4ad0" data-name="Layer 1">
    <g id="uuid-25de4068-3cb4-4bcd-8ea3-5949ce7c54ef" data-name="peya-red">
      <g id="uuid-669ed366-092e-40f0-b572-75d026de1cb9" data-name="Sin-tiÌtulo-1-copia">
        <g id="uuid-663bae6a-7339-4bfa-b731-2ca78e86871d" data-name="Group-2">
          <g id="uuid-e840f3de-80f6-440a-872b-d9e50ba41a2e" data-name="Group">
            <path id="uuid-df178bb1-0d49-4398-b429-6c5af6138653" data-name="Path" class="uuid-d4423686-89fd-4001-915d-c518d3f8fff1" d="m75.83,7.69c-1.09,0-1.91.82-1.94,1.98-.03.91.55,1.46,1.52,1.46,1.09,0,1.91-.82,1.94-1.98,0-.91-.55-1.46-1.52-1.46Z"/>
            <path id="uuid-9a152315-e4ba-4966-bd56-1213fa6b0ca7" data-name="Shape" class="uuid-d4423686-89fd-4001-915d-c518d3f8fff1" d="m72.4,8.33c-.03-.06-.09-.09-.15-.09h-2.39c-.09,0-.18.06-.21.18,0,0-.94,4.6-1,4.94-.6-1.06-1.78-1.73-3.26-1.73-2.93,0-5.05,2.36-5.05,5.6,0,2.67,1.6,4.45,3.99,4.45,1.15,0,2.15-.45,2.9-1.3-.06.24-.09.48-.15.76,0,.06,0,.12.06.18.03.06.09.09.15.09h2.39c.09,0,.18-.06.21-.18l2.54-12.72c.03-.09,0-.15-.03-.18Zm-4.62,8.22c-.06.33-.18.67-.33.94-.15.27-.36.55-.58.76-.21.21-.49.37-.76.49-.55.21-1.18.24-1.67.03-.21-.09-.43-.21-.58-.4-.15-.18-.27-.4-.36-.64s-.12-.55-.09-.85c.03-.37.09-.73.24-1.07.15-.33.33-.64.58-.88.24-.24.52-.46.82-.58.3-.15.64-.21,1-.21.3,0,.58.06.82.18.24.12.46.27.61.49.15.21.27.46.33.73.03.3.03.64-.03,1Z"/>
            <path id="uuid-1d48a566-aba2-4b5e-a83e-813d36e3bea7" data-name="Path" class="uuid-d4423686-89fd-4001-915d-c518d3f8fff1" d="m76.26,12.35h-2.57c-.09,0-.19.06-.22.16l-1.73,8.68c0,.06,0,.13.06.16.03.03.09.06.19.06h2.57c.09,0,.19-.06.22-.16l1.76-8.65c0-.06,0-.13-.06-.16-.06-.06-.16-.09-.22-.09Z"/>
            <path id="uuid-03233d6b-3888-42b6-9002-356b3f60e57b" data-name="Shape" class="uuid-d4423686-89fd-4001-915d-c518d3f8fff1" d="m39.89,20.76c.23-1.05.68-3.41.68-3.46.11,0,2.93.03,2.93.03,3.5,0,5.67-1.86,5.67-4.89,0-2.65-1.8-4.2-4.82-4.2h-4.94c-.09,0-.18.06-.21.18l-2.56,12.72c0,.06,0,.12.06.18.03.06.09.09.18.09h2.26c-.06,0,.6,0,.74-.65Zm3.8-6.76h-2.47c.03-.06.63-3.17.66-3.29.12,0,2.29.03,2.29.03,1.09,0,1.69.51,1.69,1.45,0,1.15-.78,1.81-2.17,1.81Z"/>
            <path id="uuid-5e5e518d-c827-4950-aa78-6099ccc88080" data-name="Shape" class="uuid-d4423686-89fd-4001-915d-c518d3f8fff1" d="m94.69,11.49c-3.28,0-5.65,2.34-5.65,5.57,0,2.77,1.88,4.53,4.8,4.53,3.28,0,5.65-2.34,5.65-5.57,0-2.77-1.88-4.53-4.8-4.53Zm-.67,7.24c-1.25,0-1.97-.7-1.97-1.86,0-1.46,1.03-2.53,2.43-2.53,1.25,0,1.97.7,1.97,1.86,0,1.46-1,2.53-2.43,2.53Z"/>
            <path id="uuid-08442309-ff65-4c8a-9af7-32a8f2320ec3" data-name="Shape" class="uuid-d4423686-89fd-4001-915d-c518d3f8fff1" d="m89.35,8.33c-.03-.06-.09-.09-.15-.09h-2.39c-.09,0-.18.06-.21.18,0,0-.94,4.6-1,4.94-.6-1.06-1.78-1.73-3.26-1.73-2.93,0-5.05,2.36-5.05,5.6,0,2.67,1.6,4.45,3.99,4.45,1.15,0,2.15-.45,2.9-1.3-.06.24-.09.48-.15.76,0,.06,0,.12.06.18.03.06.09.09.15.09h2.39c.09,0,.18-.06.21-.18l2.54-12.72c.03-.09,0-.15-.03-.18Zm-4.56,8.22c-.06.33-.18.67-.33.94-.15.27-.36.55-.58.76-.21.21-.49.37-.76.49-.55.21-1.18.24-1.67.03-.21-.09-.43-.21-.58-.4-.15-.18-.27-.4-.36-.64-.09-.24-.12-.55-.09-.85.03-.37.09-.73.24-1.07s.33-.64.58-.88.52-.46.82-.58c.3-.15.64-.21,1-.21.3,0,.58.06.82.18.24.12.46.27.61.49.15.21.27.46.33.73.03.3.03.64-.03,1Z"/>
            <path id="uuid-e832a06b-2efb-4fa5-b2f1-e621eb549c2e" data-name="Path" class="uuid-d4423686-89fd-4001-915d-c518d3f8fff1" d="m107.44,12.22c-1.25-.58-2.55-.82-3.74-.73-2.07.18-3.25,1.43-3.1,3.23.09,1.1.73,1.92,1.91,2.56l1.31.7c.55.27.58.43.61.58.03.4-.43.49-.67.52-.82.06-1.82-.24-2.89-.91-.06-.03-.12-.03-.15-.03-.06,0-.09.06-.12.09l-1.06,1.86c-.06.09-.03.21.06.27,1.31.88,2.82,1.28,4.34,1.16,2.31-.21,3.52-1.43,3.37-3.35-.09-1.16-.67-1.89-1.94-2.56l-1.18-.61c-.7-.4-.73-.49-.76-.67,0-.09-.03-.4.64-.46s1.52.15,2.37.55c.06.03.12.03.15,0,.06-.03.09-.06.12-.12l.82-1.89c.06-.03.03-.15-.09-.18Z"/>
            <path id="uuid-ea5da9a5-78b4-450d-b81a-7028e17df109" data-name="Path" class="uuid-d4423686-89fd-4001-915d-c518d3f8fff1" d="m120.48,8.36c-.03-.09-.12-.12-.21-.12h-3.38s-.15.15-.18.22c0,0-3.4,4.81-3.61,5.27-.06-.43-1.73-5.2-1.73-5.2-.03-.09-.21.55-.21.55h-2.88c-.06,0-.14.03-.17.08-.03.06-.06.14-.03.2l2.94,7.48-.88,4.33c0,.06,0,.14.06.17.03.06.11.08.17.08h2.48c.3,0,.57-.21.63-.55l.85-4.3,6.2-8.03s0-.12-.03-.18Z"/>
            <path id="uuid-4619b567-01e7-420a-ba3f-468718b0481d" data-name="Shape" class="uuid-d4423686-89fd-4001-915d-c518d3f8fff1" d="m127.94,11.62c-.03-.06-.09-.09-.16-.09h-2.43c-.09,0-.19.06-.22.19,0,0-.09.47-.16.79h0c-.57-.66-1.42-1.07-2.27-1.14-.79-.06-1.54.06-2.27.35-2.39.92-4,3.28-3.97,5.87.03,2.24,1.48,3.76,3.75,3.88,1.2.06,2.27-.32,3.21-1.11-.06.25-.13.57-.16.79,0,.06,0,.13.06.19.03.06.09.06.16.06h2.43c.09,0,.19-.06.22-.19l1.86-9.44s-.03-.09-.06-.16Zm-3.85,5.17c-.06.33-.15.64-.3.91-.15.27-.33.52-.55.73-.21.21-.46.37-.73.49-.52.21-1.12.21-1.61.03-.21-.09-.39-.21-.55-.4-.15-.15-.27-.37-.33-.61-.09-.24-.12-.52-.09-.79.03-.37.09-.7.24-1.03.12-.3.33-.61.55-.85.21-.24.49-.43.79-.58.3-.15.61-.21.94-.21.3,0,.55.06.79.15.24.12.43.27.58.46.15.18.27.43.3.7.03.33.03.67-.03,1Z"/>
            <path id="uuid-87cf5e16-7a77-409d-a6a7-372f3223e215" data-name="Shape" class="uuid-d4423686-89fd-4001-915d-c518d3f8fff1" d="m54.81,11.42c-3.22,0-5.56,2.34-5.56,5.6,0,2.8,1.88,4.53,4.89,4.53,1.37,0,2.49-.37,3.67-1.16.12-.06.12-.21.03-.3l-1.49-1.52c-.06-.06-.15-.09-.24-.03-.64.33-1.28.49-1.94.49-1.37,0-2.19-.64-2.22-1.73l6.77-.03c.09,0,.18-.06.21-.18.15-.7.24-1.19.24-1.73.03-2.4-1.67-3.93-4.37-3.93Zm-2.52,4.2c.46-1.07,1.25-1.61,2.46-1.61s1.82.55,1.88,1.64c-.21,0-4.13-.03-4.34-.03Z"/>
          </g>
          <path id="uuid-9d98cee5-8a09-466a-894d-9d626d804b44" data-name="Path" class="uuid-d4423686-89fd-4001-915d-c518d3f8fff1" d="m20.01,0H.52C.24,0,0,.21,0,.52v3.34c0,2.82,2,4.38,5.63,4.38l12.87.03c1.35,0,2.45,1.1,2.45,2.46s-1.1,2.46-2.45,2.46h1.68H4.48c-.21,0-.43.15-.49.37L.29,28.21c-.03.15,0,.31.09.43.09.12.24.18.4.18h5.05c1.81,0,2.67-1.49,2.88-2.29l1.42-5.12h9.88c5.89,0,10.68-4.8,10.68-10.71S25.9,0,20.01,0Z"/>
        </g>
      </g>
    </g>
  </g>
</svg>