<?xml version="1.0" encoding="UTF-8"?>
<svg id="uuid-810cd38a-1175-400d-bf9f-1fcd746fe280" data-name="Capa 2" xmlns="http://www.w3.org/2000/svg" viewBox="0 0 26.42 26.42">
  <defs>
    <style>
      .uuid-f1ea38f1-f0f2-41e5-8847-f4800ec6f9c2, .uuid-800f8446-c9c3-4ba0-a757-00637574188a {
        stroke-width: 0px;
      }

      .uuid-800f8446-c9c3-4ba0-a757-00637574188a {
        fill: #fff;
      }
    </style>
  </defs>
  <g id="uuid-fe3f9d59-c568-4db4-a7e6-4b007addd168" data-name="Layer 1">
    <g>
      <circle class="uuid-f1ea38f1-f0f2-41e5-8847-f4800ec6f9c2" cx="13.21" cy="13.21" r="13.21"/>
      <path class="uuid-800f8446-c9c3-4ba0-a757-00637574188a" d="m21.65,8.97c-.2-.76-.8-1.35-1.56-1.56-1.37-.37-6.88-.37-6.88-.37,0,0-5.51,0-6.88.37-.76.2-1.35.8-1.56,1.56-.37,1.37-.37,4.24-.37,4.24,0,0,0,2.87.37,4.24.2.76.8,1.35,1.56,1.56,1.37.37,6.88.37,6.88.37,0,0,5.51,0,6.88-.37.76-.2,1.35-.8,1.56-1.56.37-1.37.37-4.24.37-4.24,0,0,0-2.87-.37-4.24Zm-10.2,6.88v-5.28l4.58,2.64-4.58,2.64Z"/>
    </g>
  </g>
</svg>